<?xml version="1.0" encoding="UTF-8"?>
<svg id="Layer_1" data-name="Layer 1" xmlns="http://www.w3.org/2000/svg" xmlns:xlink="http://www.w3.org/1999/xlink" viewBox="0 0 1080 1080">
  <defs>
    <style>
      .cls-1 {
        fill: url(#linear-gradient);
      }

      .cls-2 {
        fill: #00c;
      }

      .cls-2, .cls-3, .cls-4, .cls-5, .cls-6, .cls-7, .cls-8, .cls-9, .cls-10, .cls-11, .cls-12, .cls-13, .cls-14, .cls-15, .cls-16, .cls-17, .cls-18, .cls-19, .cls-20, .cls-21, .cls-22, .cls-23, .cls-24, .cls-25, .cls-26, .cls-27, .cls-28, .cls-29, .cls-30, .cls-31, .cls-32, .cls-33, .cls-34, .cls-35, .cls-36 {
        stroke-width: 0px;
      }

      .cls-3 {
        fill: none;
      }

      .cls-4 {
        fill: url(#linear-gradient-33);
      }

      .cls-5 {
        fill: url(#linear-gradient-29);
      }

      .cls-6 {
        fill: url(#linear-gradient-32);
      }

      .cls-7 {
        fill: url(#linear-gradient-30);
      }

      .cls-8 {
        fill: url(#linear-gradient-31);
      }

      .cls-9 {
        fill: url(#linear-gradient-34);
      }

      .cls-10 {
        fill: url(#linear-gradient-35);
      }

      .cls-11 {
        fill: url(#linear-gradient-28);
      }

      .cls-12 {
        fill: url(#linear-gradient-25);
      }

      .cls-13 {
        fill: url(#linear-gradient-11);
      }

      .cls-14 {
        fill: url(#linear-gradient-12);
      }

      .cls-15 {
        fill: url(#linear-gradient-13);
      }

      .cls-16 {
        fill: url(#linear-gradient-17);
      }

      .cls-17 {
        fill: url(#linear-gradient-16);
      }

      .cls-18 {
        fill: url(#linear-gradient-19);
      }

      .cls-19 {
        fill: url(#linear-gradient-15);
      }

      .cls-20 {
        fill: url(#linear-gradient-23);
      }

      .cls-21 {
        fill: url(#linear-gradient-21);
      }

      .cls-22 {
        fill: url(#linear-gradient-18);
      }

      .cls-23 {
        fill: url(#linear-gradient-14);
      }

      .cls-24 {
        fill: url(#linear-gradient-22);
      }

      .cls-25 {
        fill: url(#linear-gradient-20);
      }

      .cls-26 {
        fill: url(#linear-gradient-27);
      }

      .cls-27 {
        fill: url(#linear-gradient-24);
      }

      .cls-28 {
        fill: url(#linear-gradient-26);
      }

      .cls-29 {
        fill: url(#linear-gradient-4);
      }

      .cls-30 {
        fill: url(#linear-gradient-2);
      }

      .cls-31 {
        fill: url(#linear-gradient-3);
      }

      .cls-32 {
        fill: url(#linear-gradient-8);
      }

      .cls-33 {
        fill: url(#linear-gradient-9);
      }

      .cls-34 {
        fill: url(#linear-gradient-7);
      }

      .cls-35 {
        fill: url(#linear-gradient-5);
      }

      .cls-36 {
        fill: url(#linear-gradient-6);
      }

      .cls-37 {
        fill: url(#linear-gradient-10);
      }
    </style>
    <linearGradient id="linear-gradient" x1="524.66" y1="377.39" x2="748.99" y2="377.39" gradientUnits="userSpaceOnUse">
      <stop offset="0" stop-color="#ff6200"/>
      <stop offset="1" stop-color="#ff7f00"/>
    </linearGradient>
    <linearGradient id="linear-gradient-2" x1="2916.58" y1="1314.74" x2="2941.98" y2="1227.96" gradientTransform="translate(-1654.35 2537.32) rotate(-14.8) scale(1 -1)" gradientUnits="userSpaceOnUse">
      <stop offset="0" stop-color="#cd4e27"/>
      <stop offset="1" stop-color="#f37845"/>
    </linearGradient>
    <linearGradient id="linear-gradient-3" x1="2889.93" y1="1501.3" x2="2904.34" y2="1318.68" xlink:href="#linear-gradient-2"/>
    <linearGradient id="linear-gradient-4" x1="2931.72" y1="1319.17" x2="2957.12" y2="1232.39" xlink:href="#linear-gradient-2"/>
    <linearGradient id="linear-gradient-5" x1="2902.84" y1="1502.33" x2="2917.26" y2="1319.71" xlink:href="#linear-gradient-2"/>
    <linearGradient id="linear-gradient-6" x1="2927.18" y1="1317.83" x2="2952.57" y2="1231.06" xlink:href="#linear-gradient-2"/>
    <linearGradient id="linear-gradient-7" x1="2899" y1="1502.03" x2="2913.42" y2="1319.41" xlink:href="#linear-gradient-2"/>
    <linearGradient id="linear-gradient-8" x1="2922.34" y1="1316.41" x2="2947.73" y2="1229.64" xlink:href="#linear-gradient-2"/>
    <linearGradient id="linear-gradient-9" x1="2894.88" y1="1501.7" x2="2909.29" y2="1319.08" xlink:href="#linear-gradient-2"/>
    <linearGradient id="linear-gradient-10" x1="587.38" y1="624.9" x2="890.59" y2="624.9" gradientUnits="userSpaceOnUse">
      <stop offset="0" stop-color="#cd4e27"/>
      <stop offset="1" stop-color="#ff7f00"/>
    </linearGradient>
    <linearGradient id="linear-gradient-11" x1="2742.85" y1="1515.6" x2="2758.97" y2="1311.47" gradientTransform="translate(-1654.35 2537.32) rotate(-14.8) scale(1 -1)" xlink:href="#linear-gradient-10"/>
    <linearGradient id="linear-gradient-12" x1="2815.72" y1="1442.81" x2="2684.23" y2="1563.6" xlink:href="#linear-gradient-2"/>
    <linearGradient id="linear-gradient-13" x1="2831.23" y1="1496.68" x2="2845.65" y2="1314.06" xlink:href="#linear-gradient-2"/>
    <linearGradient id="linear-gradient-14" x1="2805.38" y1="1431.56" x2="2623.36" y2="1598.77" xlink:href="#linear-gradient-2"/>
    <linearGradient id="linear-gradient-15" x1="2819.69" y1="1495.76" x2="2834.11" y2="1313.14" xlink:href="#linear-gradient-2"/>
    <linearGradient id="linear-gradient-16" x1="2824.34" y1="1452.2" x2="2642.32" y2="1619.41" xlink:href="#linear-gradient-2"/>
    <linearGradient id="linear-gradient-17" x1="2840.25" y1="1497.39" x2="2854.66" y2="1314.77" xlink:href="#linear-gradient-2"/>
    <linearGradient id="linear-gradient-18" x1="2795.93" y1="1421.27" x2="2613.91" y2="1588.48" xlink:href="#linear-gradient-2"/>
    <linearGradient id="linear-gradient-19" x1="2808.51" y1="1494.89" x2="2822.93" y2="1312.25" xlink:href="#linear-gradient-2"/>
    <linearGradient id="linear-gradient-20" x1="2597.37" y1="1221.31" x2="2622.77" y2="1134.53" xlink:href="#linear-gradient-2"/>
    <linearGradient id="linear-gradient-21" x1="2598.55" y1="1478.31" x2="2612.96" y2="1295.69" xlink:href="#linear-gradient-2"/>
    <linearGradient id="linear-gradient-22" x1="2910.3" y1="1312.9" x2="2935.7" y2="1226.12" xlink:href="#linear-gradient-2"/>
    <linearGradient id="linear-gradient-23" x1="2884.5" y1="1500.88" x2="2898.92" y2="1318.26" xlink:href="#linear-gradient-2"/>
    <linearGradient id="linear-gradient-24" x1="2903.46" y1="1310.89" x2="2928.87" y2="1224.12" xlink:href="#linear-gradient-2"/>
    <linearGradient id="linear-gradient-25" x1="2878.55" y1="1500.41" x2="2892.96" y2="1317.79" xlink:href="#linear-gradient-2"/>
    <linearGradient id="linear-gradient-26" x1="2633.99" y1="1232.02" x2="2659.38" y2="1145.24" xlink:href="#linear-gradient-2"/>
    <linearGradient id="linear-gradient-27" x1="2632.73" y1="1481" x2="2647.14" y2="1298.38" xlink:href="#linear-gradient-2"/>
    <linearGradient id="linear-gradient-28" x1="2668.17" y1="1242.03" x2="2693.57" y2="1155.25" xlink:href="#linear-gradient-2"/>
    <linearGradient id="linear-gradient-29" x1="2664.54" y1="1483.52" x2="2678.95" y2="1300.9" xlink:href="#linear-gradient-2"/>
    <linearGradient id="linear-gradient-30" x1="2699.68" y1="1251.25" x2="2725.08" y2="1164.47" xlink:href="#linear-gradient-2"/>
    <linearGradient id="linear-gradient-31" x1="2693.75" y1="1485.82" x2="2708.17" y2="1303.2" xlink:href="#linear-gradient-2"/>
    <linearGradient id="linear-gradient-32" x1="2887.42" y1="1306.19" x2="2912.81" y2="1219.43" xlink:href="#linear-gradient-2"/>
    <linearGradient id="linear-gradient-33" x1="2864.46" y1="1499.29" x2="2878.88" y2="1316.68" xlink:href="#linear-gradient-2"/>
    <linearGradient id="linear-gradient-34" x1="2895.7" y1="1308.62" x2="2921.1" y2="1221.84" xlink:href="#linear-gradient-2"/>
    <linearGradient id="linear-gradient-35" x1="2871.76" y1="1499.88" x2="2886.18" y2="1317.25" xlink:href="#linear-gradient-2"/>
  </defs>
  <path class="cls-2" d="M640.44,789.62l-15.19-42.2-45.46-126.32-113.52-315.47c-.74-3.78-1.5-4.52-5.26-4.52h-104.79c-3.02,0-4.52,2.26-4.52,5.26-1.52,25.63-3.78,33.18-6.81,40.72l-155.29,441.79c-.76,5.27.76,7.53,5.28,7.53h75.4c4.2,0,6.4-1.41,7.92-5.23l.15.1c38.71-67.21,55.31-88.15,106.75-118.34,38.44-22.57,75.09-34.64,105.08-41.14l10.03,34.18,27.38,78.82,7.2,20.75c8.38,14,24.3,25.44,52.04,30.84.04,0,.08.02.12.02h43.23c3.36-.53,6.72-1.18,10.07-1.92.55-1.12.53-2.76.19-4.87ZM346.93,607.92c-4.16,2.45-8.15,4.84-11.99,7.24l9.21-31.36c22.61-68.59,52.77-156.79,64.83-207.32h.76c12.93,45.26,40.8,128.68,58.47,182.95-35.25,8.19-77.43,22.74-121.28,48.49Z"/>
  <g>
    <path class="cls-1" d="M710.72,459.94c2.01-2.87,3.93-5.75,5.74-8.64.61-.97,1.23-1.92,1.82-2.88,2.29-3.76,4.46-7.53,6.44-11.29.19-.36.34-.71.53-1.05,1.79-3.44,3.44-6.87,4.99-10.29.2-.44.38-.88.58-1.32-.14-.05-.29-.1-.43-.15-.2-.08-.41-.17-.61-.25h0c-5.25-1.22-10.51-2.46-15.78-3.66-27.53-6.21-55.17-11.95-82.08-20.64-18.9-6.1-37.08-13.71-53.17-25.65-1.89-1.41-3.61-3.05-5.77-4.88,1.42-1.35,18.42-13.77,34.2-18.52,29.42-8.87,59.3-11.98,89.82-7.95,11.98,1.58,23.87,3.85,34.55,9.91,12.82,7.27,14.66,9.77,13.4,24.66-.2,2.32-.51,4.62-.89,6.9,8.74-40.21,4.15-76.03-1.02-98.49-2.49-.62-5.02-1.17-7.57-1.66-26.78-5.16-53.55-4.41-80.3.19-24.28,4.17-48.12,10.05-70.65,20.15-16.67,7.47-32.88,16.02-45.02,30.26-7.17,8.4-13.43,17.38-14.6,28.9-1.71,17.02,4.89,30.85,16.9,42.19,12.56,11.88,27.44,20.52,42.74,28.41,24.85,12.83,51.41,21.05,78.09,28.94,12.28,3.63,24.53,7.38,37.27,11.22,3.05-3.71,5.88-7.44,8.59-11.18.77-1.07,1.51-2.13,2.26-3.2h-.05Z"/>
    <path class="cls-3" d="M805.99,455.19c-.17.47-.36.98-.55,1.47.18-.5.37-.99.55-1.47Z"/>
    <path class="cls-3" d="M804.02,460.46c-.23.6-.47,1.21-.71,1.83.24-.62.47-1.23.71-1.83Z"/>
    <path class="cls-3" d="M801.54,466.75c-.2.5-.38.97-.6,1.47.2-.51.39-.98.6-1.47Z"/>
    <path class="cls-30" d="M800.96,468.22c-.84,2.06-1.74,4.2-2.71,6.45.97-2.25,1.85-4.38,2.71-6.45Z"/>
    <path class="cls-31" d="M800.96,468.22c-.84,2.06-1.74,4.2-2.71,6.45.97-2.25,1.85-4.38,2.71-6.45Z"/>
    <path class="cls-29" d="M807.64,450.5c-.5,1.47-1.05,3.05-1.65,4.69.6-1.64,1.16-3.21,1.65-4.69Z"/>
    <path class="cls-35" d="M807.64,450.5c-.5,1.47-1.05,3.05-1.65,4.69.6-1.64,1.16-3.21,1.65-4.69Z"/>
    <path class="cls-36" d="M805.44,456.66c-.44,1.22-.93,2.49-1.42,3.8.51-1.31.98-2.58,1.42-3.8Z"/>
    <path class="cls-34" d="M805.44,456.66c-.44,1.22-.93,2.49-1.42,3.8.51-1.31.98-2.58,1.42-3.8Z"/>
    <path class="cls-32" d="M803.32,462.29c-.56,1.44-1.16,2.92-1.77,4.46.62-1.54,1.22-3.02,1.77-4.46Z"/>
    <path class="cls-33" d="M803.32,462.29c-.56,1.44-1.16,2.92-1.77,4.46.62-1.54,1.22-3.02,1.77-4.46Z"/>
    <path class="cls-3" d="M658.83,703.09c-.84,1.16-1.66,2.3-2.52,3.47.85-1.17,1.68-2.31,2.52-3.47Z"/>
    <path class="cls-3" d="M676.88,677.92h.17c.11-.03.2-.08.28-.14h.27s.06-.04.1-.05c1.4-.48,2.21-.71,2.96-1.03,27.8-11.62,54.75-24.87,79.49-42.25,15.79-11.1,30.55-23.36,41.99-39.12,9.63-13.28,15.28-27.03,10.12-44.35-5.21-17.47-16.03-29.77-30.01-40.65-.09-.09-.18-.18-.28-.25-.1-.09-.23-.15-.33-.23.11-.23.22-.43.33-.66-19.87,39.03-52.28,94.05-105.1,168.77h0v-.04Z"/>
    <path class="cls-3" d="M787.02,499.03c-.2.42-.39.81-.6,1.23.2-.42.39-.81.6-1.23Z"/>
    <path class="cls-3" d="M637.5,732.08c-1.13,1.51-2.26,3.02-3.4,4.55,1.14-1.52,2.27-3.04,3.4-4.55Z"/>
    <path class="cls-3" d="M613.68,763.65c-1.02,1.33-2.08,2.71-3.11,4.05,1.03-1.35,2.1-2.72,3.11-4.05Z"/>
    <path class="cls-3" d="M730.26,425.78c-1.55,3.43-3.2,6.86-4.99,10.29,1.79-3.44,3.44-6.87,4.99-10.29Z"/>
    <path class="cls-3" d="M791.62,489.41c-.39.85-.79,1.69-1.19,2.55.41-.86.8-1.7,1.19-2.55Z"/>
    <path class="cls-3" d="M798.25,474.67c-.18.42-.38.86-.56,1.28.18-.42.38-.88.56-1.28Z"/>
    <path class="cls-3" d="M795.18,481.66c-.36.79-.72,1.59-1.08,2.39.37-.8.74-1.61,1.08-2.39Z"/>
    <path class="cls-3" d="M716.46,451.3c-1.82,2.88-3.73,5.75-5.74,8.64,2.01-2.87,3.93-5.75,5.74-8.64Z"/>
    <path class="cls-3" d="M699.88,474.32c3.05-3.71,5.88-7.44,8.59-11.18-2.71,3.73-5.53,7.47-8.59,11.18Z"/>
    <path class="cls-3" d="M724.73,437.12c-1.98,3.76-4.15,7.53-6.44,11.29,2.29-3.76,4.46-7.53,6.44-11.29Z"/>
    <path class="cls-37" d="M889.99,559.46c-1.14-11.52-5.28-22.1-9.31-32.78-12.97-34.34-38.15-57.27-69.55-74.41-1.14-.62-2.32-1.19-3.48-1.79-.5,1.47-1.05,3.05-1.65,4.69-.18.47-.36.98-.55,1.47-.44,1.22-.93,2.49-1.42,3.8-.23.61-.46,1.21-.71,1.83-.56,1.44-1.16,2.92-1.77,4.46-.2.5-.38.97-.6,1.47-.85,2.06-1.74,4.2-2.71,6.45-.18.42-.38.86-.56,1.28-.8,1.84-1.63,3.73-2.52,5.7-.36.79-.72,1.59-1.08,2.39-.79,1.74-1.61,3.53-2.46,5.36-.39.85-.79,1.69-1.19,2.55-1.08,2.29-2.21,4.64-3.4,7.06-.2.42-.39.81-.6,1.23-1.41,2.86-2.9,5.84-4.46,8.89-.11.23-.22.43-.33.66.11.08.23.15.33.23s.19.17.28.25c13.97,10.89,24.8,23.2,30.01,40.65,5.16,17.32-.5,31.07-10.12,44.35-11.43,15.75-26.2,28.01-41.99,39.12-24.73,17.38-51.68,30.63-79.49,42.25-.76.32-1.56.55-2.96,1.03-.04.01-.06.04-.1.05h-.05c-.08.01-.15,0-.22,0-.08.05-.17.1-.28.14-.06.01-.11,0-.17,0h0c-5.75,8.13-11.8,16.57-18.04,25.17-.84,1.16-1.66,2.3-2.52,3.47-6.03,8.28-12.31,16.81-18.81,25.52-1.13,1.51-2.26,3.02-3.4,4.55-6.58,8.79-13.36,17.77-20.43,27.01-1.02,1.33-2.08,2.71-3.11,4.05-7.48,9.74-15.16,19.67-23.18,29.91,24.23,4.6,47.36-.47,70.35-7.04,56.67-16.2,107.46-43.5,152.52-81.47,23.06-19.44,43.71-41.06,59.3-67.04,15.24-25.38,23.39-52.63,20.43-82.6v.06Z"/>
    <path class="cls-13" d="M676.88,677.94c52.81-74.72,85.22-129.75,105.1-168.77,1.56-3.06,3.05-6.03,4.46-8.89.2-.42.39-.81.6-1.23,1.18-2.43,2.32-4.78,3.4-7.06.41-.86.8-1.7,1.19-2.55.85-1.83,1.68-3.62,2.46-5.36.37-.8.74-1.61,1.08-2.39.88-1.96,1.71-3.86,2.52-5.7.18-.42.38-.88.56-1.28.97-2.25,1.85-4.4,2.71-6.45.2-.51.39-.98.6-1.47.62-1.54,1.22-3.02,1.77-4.46.24-.62.47-1.23.71-1.83.51-1.31.98-2.58,1.42-3.8.18-.5.37-.99.55-1.47.6-1.64,1.16-3.23,1.65-4.69-.08-.04-.15-.08-.23-.11,2.6-9.43,5.27-18.59,7.67-27.81,5.89-22.64,6.69-45.62,1.73-68.36-3.76-17.24-12.54-32.14-26.07-44.1-13.99-12.34-57.31-43.97-153.93-22.35,125.53-9.71,116,56.24,107.26,96.45-1.21,5.58-2.69,11.24-4.45,16.97-2.35,7.66-5.3,15.45-8.78,23.26.01,0,.04,0,.05.01-.19.43-.43.86-.64,1.3-1.55,3.43-3.2,6.86-4.99,10.29-.19.36-.34.71-.53,1.05-1.98,3.76-4.15,7.53-6.44,11.29-.58.97-1.22,1.92-1.82,2.88-1.82,2.88-3.73,5.75-5.74,8.64-.75,1.07-1.49,2.13-2.26,3.2-2.71,3.73-5.53,7.47-8.59,11.18l-58.76,77.81c-9.25,11.67-18.53,23.32-27.8,34.99-18.83,23.73-36.73,48.22-54.58,72.7-2.99,4.09-5.78,8.33-8.47,12.63h0c-3.89,6.19-62.08,105.61,36.52,125.04.19.04,33.41,11.71,110.64-20.54-100.91,4.1-26.32-90.88-20.58-99.02Z"/>
    <path class="cls-14" d="M725.27,436.07c-.19.36-.34.71-.53,1.05.19-.36.34-.71.53-1.05Z"/>
    <path class="cls-15" d="M725.27,436.07c-.19.36-.34.71-.53,1.05.19-.36.34-.71.53-1.05Z"/>
    <path class="cls-23" d="M718.29,448.42c-.58.97-1.22,1.92-1.82,2.88.61-.97,1.23-1.92,1.82-2.88Z"/>
    <path class="cls-19" d="M718.29,448.42c-.58.97-1.22,1.92-1.82,2.88.61-.97,1.23-1.92,1.82-2.88Z"/>
    <path class="cls-17" d="M730.88,424.47s-.04,0-.05-.01c-.19.44-.38.88-.58,1.32.19-.43.43-.86.64-1.3h0Z"/>
    <path class="cls-16" d="M730.88,424.47s-.04,0-.05-.01c-.19.44-.38.88-.58,1.32.19-.43.43-.86.64-1.3h0Z"/>
    <path class="cls-22" d="M710.72,459.94c-.75,1.07-1.49,2.13-2.26,3.2.77-1.07,1.51-2.13,2.26-3.2Z"/>
    <path class="cls-18" d="M710.72,459.94c-.75,1.07-1.49,2.13-2.26,3.2.77-1.07,1.51-2.13,2.26-3.2Z"/>
    <path class="cls-25" d="M587.37,797.61c8.04-10.24,15.71-20.17,23.18-29.91-7.47,9.74-15.16,19.67-23.18,29.91Z"/>
    <path class="cls-21" d="M587.37,797.61c8.04-10.24,15.71-20.17,23.18-29.91-7.47,9.74-15.16,19.67-23.18,29.91Z"/>
    <path class="cls-24" d="M797.68,475.96c-.8,1.84-1.63,3.73-2.52,5.7.88-1.97,1.71-3.86,2.52-5.7Z"/>
    <path class="cls-20" d="M797.68,475.96c-.8,1.84-1.63,3.73-2.52,5.7.88-1.97,1.71-3.86,2.52-5.7Z"/>
    <path class="cls-27" d="M794.1,484.05c-.79,1.74-1.61,3.53-2.46,5.36.85-1.83,1.68-3.62,2.46-5.36Z"/>
    <path class="cls-12" d="M794.1,484.05c-.79,1.74-1.61,3.53-2.46,5.36.85-1.83,1.68-3.62,2.46-5.36Z"/>
    <path class="cls-28" d="M634.1,736.63c-6.58,8.79-13.36,17.77-20.43,27.01,7.06-9.24,13.86-18.22,20.43-27.01Z"/>
    <path class="cls-26" d="M634.1,736.63c-6.58,8.79-13.36,17.77-20.43,27.01,7.06-9.24,13.86-18.22,20.43-27.01Z"/>
    <path class="cls-11" d="M656.31,706.56c-6.03,8.28-12.31,16.81-18.81,25.52,6.5-8.73,12.78-17.24,18.81-25.52Z"/>
    <path class="cls-5" d="M656.31,706.56c-6.03,8.28-12.31,16.81-18.81,25.52,6.5-8.73,12.78-17.24,18.81-25.52Z"/>
    <path class="cls-7" d="M676.88,677.92c-5.74,8.13-11.8,16.57-18.04,25.17,6.24-8.6,12.3-17.04,18.04-25.17Z"/>
    <path class="cls-8" d="M676.88,677.92c-5.74,8.13-11.8,16.57-18.04,25.17,6.24-8.6,12.3-17.04,18.04-25.17Z"/>
    <path class="cls-6" d="M786.42,500.26c-1.41,2.86-2.9,5.84-4.46,8.89,1.56-3.06,3.05-6.03,4.46-8.89Z"/>
    <path class="cls-4" d="M786.42,500.26c-1.41,2.86-2.9,5.84-4.46,8.89,1.56-3.06,3.05-6.03,4.46-8.89Z"/>
    <path class="cls-9" d="M790.43,491.96c-1.08,2.29-2.21,4.64-3.4,7.06,1.18-2.43,2.32-4.78,3.4-7.06Z"/>
    <path class="cls-10" d="M790.43,491.96c-1.08,2.29-2.21,4.64-3.4,7.06,1.18-2.43,2.32-4.78,3.4-7.06Z"/>
  </g>
</svg>