<svg width="171" height="193" viewBox="0 0 171 193" fill="none" xmlns="http://www.w3.org/2000/svg">
<path d="M123.695 0.130005H0.545013V176.36H123.695V0.130005Z" fill="#F9EDF7"/>
<path d="M138.675 20.97H30.075V176.37H138.675V20.97Z" fill="#F3C7E9"/>
<path d="M153.645 41.8H59.605V176.37H153.645V41.8Z" fill="#F846D0"/>
<path d="M168.615 62.63H89.135V176.36H168.615V62.63Z" fill="#FA05C3"/>
<path d="M69.108 169.371V163.548L87.1411 157.387V156.482L69.108 150.32V144.498L92.8506 153.26V160.609L69.108 169.371ZM120.161 176.72V168.636H100.15V161.74L115.3 137.149H126.097V163.379H132.767V168.636H126.097V176.72H120.161ZM105.916 163.379H120.161V140.88H119.257L105.916 162.587V163.379ZM135.644 176.72L147.798 156.765L135.813 137.149H142.823L151.755 152.412H152.659L161.648 137.149H168.657L156.673 156.765L168.827 176.72H161.761L152.659 161.118H151.755L142.654 176.72H135.644Z" fill="white"/>
</svg>
