<svg width="93" height="88" viewBox="0 0 93 88" fill="none" xmlns="http://www.w3.org/2000/svg">
<g clip-path="url(#clip0_35_5250)">
<path d="M37.4583 54.7059L25.8333 56.6367L38.75 29.6055L60.0625 50.2007L48.4375 52.7751C48.4375 52.7751 50.375 67.5779 67.8125 74.6574C84.6042 81.0934 105.271 71.4395 111.729 54.7059C114.312 48.2699 114.312 41.1903 112.375 34.7543C110.438 28.3183 106.563 22.526 101.396 18.0208C96.2292 13.5156 93.6458 12.872 89.125 11.5848C84.6042 10.2976 81.375 10.2976 77.5 10.2976L65.875 1.9308L68.4583 1.2872C71.0417 1.2872 73.625 0 76.2083 0C83.9583 0 91.7083 0.643599 98.1667 3.86159C104.625 7.07959 110.438 11.5848 114.313 17.3772C118.188 22.526 120.771 27.6747 122.062 34.1107C125.292 46.9827 121.417 61.7855 112.375 71.4395C105.917 78.519 97.5208 84.3114 88.4792 86.2422C79.4375 88.173 87.1875 86.2422 86.5417 86.2422C78.7917 87.5294 69.75 86.2422 62.6458 83.6678C50.375 78.519 40.6875 66.9343 36.8125 54.0623" fill="#112FFF"/>
<path d="M86.5417 32.8235L98.1667 30.8927L85.25 57.9239L63.9375 37.3287L75.5625 34.7543C75.5625 34.7543 73.625 19.9516 56.1875 12.872C56.1875 12.872 31 2.57439 15.5 26.3875C15.5 26.3875 2.58334 46.3391 18.0833 65.0035C18.0833 65.0035 27.7708 78.519 46.5 77.2318L58.125 85.5986C58.125 85.5986 25.1875 97.827 5.16668 63.7163C5.16668 63.7163 -9.04165 39.2595 12.2708 14.1592C12.2708 14.1592 32.9375 -9.65398 62.6458 3.86159C62.6458 3.86159 81.375 11.5848 87.1875 32.8235" fill="url(#paint0_linear_35_5250)"/>
</g>
<defs>
<linearGradient id="paint0_linear_35_5250" x1="49.3469" y1="-9.7489" x2="49.3469" y2="119.693" gradientUnits="userSpaceOnUse">
<stop stop-color="white"/>
<stop offset="0.045" stop-color="#FCD7F4"/>
<stop offset="0.48" stop-color="#F774D9"/>
<stop offset="1" stop-color="#F105BB"/>
</linearGradient>
<clipPath id="clip0_35_5250">
<rect width="124" height="87.5294" fill="white"/>
</clipPath>
</defs>
</svg>
