<svg width="199" height="199" viewBox="0 0 199 199" fill="none" xmlns="http://www.w3.org/2000/svg">
<path d="M27.178 169.371V163.548L45.2111 157.387V156.482L27.178 150.32V144.498L50.9206 153.26V160.609L27.178 169.371ZM78.2312 176.72V168.636H58.2196V161.74L73.3697 137.149H84.1669V163.379H90.8374V168.636H84.1669V176.72H78.2312ZM63.9857 163.379H78.2312V140.88H77.3268L63.9857 162.587V163.379ZM93.7138 176.72L105.868 156.765L93.8834 137.149H100.893L109.825 152.412H110.729L119.718 137.149H126.727L114.743 156.765L126.897 176.72H119.831L110.729 161.118H109.825L100.724 176.72H93.7138Z" fill="white"/>
<path d="M197.77 16.62H74.25V193.38H197.77V16.62Z" fill="#0131FF"/>
<path d="M182.54 28.68H67.53V193.38H182.54V28.68Z" fill="#1743FE"/>
<path d="M167.33 40.74H60.82V193.38H167.33V40.74Z" fill="#2D54FD"/>
<path d="M152.11 52.81H54.11V193.38H152.11V52.81Z" fill="#4366FB"/>
<path d="M136.89 64.87H47.4V193.38H136.89V64.87Z" fill="#5977FA"/>
<path d="M121.66 76.93H40.6801V193.38H121.66V76.93Z" fill="#6F89F9"/>
<path d="M106.44 88.99H33.97V193.38H106.44V88.99Z" fill="#849AF8"/>
<path d="M91.22 101.05H27.26V193.38H91.22V101.05Z" fill="#9AACF7"/>
<path d="M76 113.12H20.55V193.38H76V113.12Z" fill="#B0BDF6"/>
<path d="M60.77 125.18H13.83V193.38H60.77V125.18Z" fill="#C6CFF4"/>
<path d="M45.5501 137.24H7.12006V193.38H45.5501V137.24Z" fill="#DCE0F3"/>
<path d="M30.33 149.3H0.410034V193.38H30.33V149.3Z" fill="#F2F2F2"/>
<path d="M131.268 55V50.5934C131.268 47.8788 131.732 45.6476 132.662 43.8998C133.592 42.152 134.912 40.7389 136.622 39.6605C138.37 38.5449 140.471 37.6152 142.926 36.8715L146.328 35.8117C147.853 35.3283 149.154 34.7333 150.233 34.0267C151.348 33.3202 152.204 32.4463 152.799 31.4051C153.394 30.3266 153.691 29.0809 153.691 27.6678V27.4447C153.691 25.2507 152.947 23.5401 151.46 22.3129C149.972 21.0486 148.02 20.4164 145.603 20.4164C143.111 20.4164 141.085 21.0858 139.523 22.4245C137.998 23.7632 137.236 25.7341 137.236 28.3372V29.2296H131.435V28.3929C131.435 25.5668 132.048 23.1868 133.276 21.2531C134.503 19.2822 136.195 17.7761 138.352 16.7349C140.508 15.6937 142.926 15.1731 145.603 15.1731C148.28 15.1731 150.66 15.6751 152.743 16.6791C154.862 17.6832 156.517 19.0963 157.707 20.9184C158.934 22.7406 159.548 24.8788 159.548 27.3331V27.8351C159.548 30.3638 159.046 32.4649 158.042 34.1383C157.038 35.8117 155.643 37.1876 153.858 38.266C152.111 39.3444 150.084 40.2555 147.778 40.9992L144.487 42.0033C142.74 42.5239 141.327 43.1003 140.248 43.7324C139.207 44.3274 138.426 45.0526 137.905 45.9079C137.422 46.7632 137.18 47.8602 137.18 49.1989V49.7567H159.213V55H131.268ZM163.433 55L175.426 35.3097L163.601 15.954H170.517L179.331 31.0146H180.223L189.092 15.954H196.009L184.184 35.3097L196.176 55H189.204L180.223 39.6047H179.331L170.35 55H163.433Z" fill="white"/>
<path d="M10.9201 192.94V179.519H10.5771L8.11147 184.578H5.73163L9.05483 177.932H13.1713V192.94H10.9201ZM15.3061 192.94L19.9157 185.372L15.3704 177.932H18.029L21.4165 183.721H21.7595L25.1685 177.932H27.8271L23.2818 185.372L27.8914 192.94H25.2114L21.7595 187.023H21.4165L17.9647 192.94H15.3061Z" fill="#0131FF"/>
</svg>
