<svg width="114" height="115" viewBox="0 0 114 115" fill="none" xmlns="http://www.w3.org/2000/svg">
<g clip-path="url(#clip0_218_1913)">
<path d="M15.5766 76.2283L98.4234 76.2283V37.8289L15.5766 37.8289V76.2283Z" fill="url(#paint0_linear_218_1913)"/>
<path d="M23.2222 68.6396L90.8348 68.6396V45.5315L23.2222 45.5315V68.6396Z" fill="url(#paint1_linear_218_1913)"/>
<path d="M102.132 92.2042V96.3124H90.7778V76.2283H94.8288V92.2042H102.132Z" fill="#112FFF"/>
<path d="M55.003 94.1443H59.0541V76.2284H55.003V94.1443Z" fill="#112FFF"/>
<path d="M23.3363 76.2283V96.3124H11.982V92.2042H19.2853V76.2283H23.3363Z" fill="#112FFF"/>
<path d="M83.1321 107.21V111.261H72.9189V76.2283H76.97V107.21H83.1321Z" fill="#112FFF"/>
<path d="M41.1952 76.2283V111.261H31.039V107.21H37.1441V76.2283H41.1952Z" fill="#112FFF"/>
<path d="M109.15 99.1082C111.829 99.1082 114 96.9368 114 94.2583C114 91.5798 111.829 89.4084 109.15 89.4084C106.472 89.4084 104.3 91.5798 104.3 94.2583C104.3 96.9368 106.472 99.1082 109.15 99.1082Z" fill="#112FFF"/>
<path d="M90.036 114.114C92.7145 114.114 94.8859 111.943 94.8859 109.264C94.8859 106.586 92.7145 104.415 90.036 104.415C87.3575 104.415 85.1862 106.586 85.1862 109.264C85.1862 111.943 87.3575 114.114 90.036 114.114Z" fill="#112FFF"/>
<path d="M57.0571 105.784C59.7356 105.784 61.9069 103.613 61.9069 100.934C61.9069 98.2556 59.7356 96.0842 57.0571 96.0842C54.3786 96.0842 52.2072 98.2556 52.2072 100.934C52.2072 103.613 54.3786 105.784 57.0571 105.784Z" fill="#112FFF"/>
<path d="M24.0781 114.114C26.7566 114.114 28.9279 111.943 28.9279 109.264C28.9279 106.586 26.7566 104.415 24.0781 104.415C21.3996 104.415 19.2282 106.586 19.2282 109.264C19.2282 111.943 21.3996 114.114 24.0781 114.114Z" fill="#112FFF"/>
<path d="M4.84985 99.1082C7.52835 99.1082 9.6997 96.9368 9.6997 94.2583C9.6997 91.5798 7.52835 89.4084 4.84985 89.4084C2.17135 89.4084 0 91.5798 0 94.2583C0 96.9368 2.17135 99.1082 4.84985 99.1082Z" fill="#112FFF"/>
<path d="M11.8679 21.9099V17.8018H23.2222V37.8858H19.1712V21.9099H11.8679Z" fill="#112FFF"/>
<path d="M58.9399 19.97H54.8889V37.8859H58.9399V19.97Z" fill="#112FFF"/>
<path d="M90.6637 37.8858V17.8018H102.018V21.9099H94.7147V37.8858H90.6637Z" fill="#112FFF"/>
<path d="M30.8679 6.90383V2.85278H41.0811V37.8858H37.03V6.90383H30.8679Z" fill="#112FFF"/>
<path d="M72.8048 37.8858V2.85278H82.961V6.90383H76.8559V37.8858H72.8048Z" fill="#112FFF"/>
<path d="M4.84985 24.7058C7.52835 24.7058 9.6997 22.5345 9.6997 19.856C9.6997 17.1775 7.52835 15.0061 4.84985 15.0061C2.17135 15.0061 0 17.1775 0 19.856C0 22.5345 2.17135 24.7058 4.84985 24.7058Z" fill="#112FFF"/>
<path d="M23.964 9.6997C26.6425 9.6997 28.8138 7.52835 28.8138 4.84985C28.8138 2.17135 26.6425 0 23.964 0C21.2855 0 19.1141 2.17135 19.1141 4.84985C19.1141 7.52835 21.2855 9.6997 23.964 9.6997Z" fill="#112FFF"/>
<path d="M56.9429 18.03C59.6214 18.03 61.7928 15.8587 61.7928 13.1802C61.7928 10.5017 59.6214 8.33032 56.9429 8.33032C54.2644 8.33032 52.0931 10.5017 52.0931 13.1802C52.0931 15.8587 54.2644 18.03 56.9429 18.03Z" fill="#112FFF"/>
<path d="M89.9219 9.6997C92.6004 9.6997 94.7718 7.52835 94.7718 4.84985C94.7718 2.17135 92.6004 0 89.9219 0C87.2434 0 85.0721 2.17135 85.0721 4.84985C85.0721 7.52835 87.2434 9.6997 89.9219 9.6997Z" fill="#112FFF"/>
<path d="M109.15 24.7058C111.829 24.7058 114 22.5345 114 19.856C114 17.1775 111.829 15.0061 109.15 15.0061C106.472 15.0061 104.3 17.1775 104.3 19.856C104.3 22.5345 106.472 24.7058 109.15 24.7058Z" fill="#112FFF"/>
</g>
<defs>
<linearGradient id="paint0_linear_218_1913" x1="15.5766" y1="57.0571" x2="98.4234" y2="57.0571" gradientUnits="userSpaceOnUse">
<stop stop-color="#F105BB"/>
<stop offset="1" stop-color="white"/>
</linearGradient>
<linearGradient id="paint1_linear_218_1913" x1="23.1652" y1="57.0571" x2="90.8348" y2="57.0571" gradientUnits="userSpaceOnUse">
<stop stop-color="white"/>
<stop offset="1" stop-color="#F105BB"/>
</linearGradient>
<clipPath id="clip0_218_1913">
<rect width="114" height="114.114" fill="white"/>
</clipPath>
</defs>
</svg>
