<svg width="171" height="188" viewBox="0 0 171 188" fill="none" xmlns="http://www.w3.org/2000/svg">
<path d="M123.615 7.13H0.464966V183.36H123.615V7.13Z" fill="#FFF2E8"/>
<path d="M138.595 27.97H29.9949V183.37H138.595V27.97Z" fill="#FFD0A9"/>
<path d="M153.565 48.8H59.525V183.37H153.565V48.8Z" fill="#FFA254"/>
<path d="M168.535 69.63H89.055V183.36H168.535V69.63Z" fill="#FF7500"/>
<path d="M120.651 170V161.916H100.639V155.02L115.789 130.429H126.587V156.659H133.257V161.916H126.587V170H120.651ZM106.405 156.659H120.651V134.16H119.746L106.405 155.868V156.659ZM136.134 170L148.288 150.045L136.303 130.429H143.313L152.245 145.692H153.149L162.137 130.429H169.147L157.163 150.045L169.317 170H162.25L153.149 154.398H152.245L143.143 170H136.134Z" fill="white"/>
<path d="M124.64 184V177.504H122.432V176.112H124.64V174.384C124.64 173.904 124.784 173.52 125.072 173.232C125.36 172.944 125.744 172.8 126.224 172.8H128.256V174.192H126.752C126.443 174.192 126.288 174.352 126.288 174.672V176.112H128.56V177.504H126.288V184H124.64ZM132.555 184.224C131.989 184.224 131.483 184.128 131.035 183.936C130.597 183.744 130.245 183.461 129.979 183.088C129.723 182.715 129.595 182.261 129.595 181.728C129.595 181.184 129.723 180.736 129.979 180.384C130.245 180.021 130.603 179.749 131.051 179.568C131.509 179.387 132.027 179.296 132.603 179.296H135.003V178.784C135.003 178.325 134.864 177.957 134.587 177.68C134.309 177.403 133.883 177.264 133.307 177.264C132.741 177.264 132.309 177.397 132.011 177.664C131.712 177.931 131.515 178.277 131.419 178.704L129.883 178.208C130.011 177.781 130.213 177.397 130.491 177.056C130.779 176.704 131.157 176.421 131.627 176.208C132.096 175.995 132.661 175.888 133.323 175.888C134.347 175.888 135.152 176.149 135.739 176.672C136.325 177.195 136.619 177.936 136.619 178.896V182.144C136.619 182.464 136.768 182.624 137.067 182.624H137.739V184H136.507C136.133 184 135.829 183.904 135.595 183.712C135.36 183.52 135.243 183.259 135.243 182.928V182.88H135.003C134.917 183.04 134.789 183.227 134.619 183.44C134.448 183.653 134.197 183.84 133.867 184C133.536 184.149 133.099 184.224 132.555 184.224ZM132.795 182.864C133.456 182.864 133.989 182.677 134.395 182.304C134.8 181.92 135.003 181.397 135.003 180.736V180.576H132.699C132.261 180.576 131.909 180.672 131.643 180.864C131.376 181.045 131.243 181.317 131.243 181.68C131.243 182.043 131.381 182.331 131.659 182.544C131.936 182.757 132.315 182.864 132.795 182.864ZM142.51 184.224C141.508 184.224 140.676 184 140.014 183.552C139.353 183.104 138.948 182.427 138.798 181.52L140.334 181.152C140.42 181.589 140.564 181.936 140.766 182.192C140.969 182.448 141.22 182.629 141.518 182.736C141.828 182.843 142.158 182.896 142.51 182.896C143.033 182.896 143.433 182.795 143.71 182.592C143.998 182.389 144.142 182.128 144.142 181.808C144.142 181.488 144.009 181.253 143.742 181.104C143.476 180.955 143.081 180.832 142.558 180.736L142.014 180.64C141.481 180.544 140.996 180.405 140.558 180.224C140.121 180.043 139.774 179.792 139.518 179.472C139.262 179.152 139.134 178.741 139.134 178.24C139.134 177.493 139.412 176.917 139.966 176.512C140.521 176.096 141.257 175.888 142.174 175.888C143.06 175.888 143.785 176.091 144.35 176.496C144.926 176.891 145.3 177.429 145.47 178.112L143.934 178.544C143.838 178.064 143.636 177.728 143.326 177.536C143.017 177.333 142.633 177.232 142.174 177.232C141.726 177.232 141.374 177.317 141.118 177.488C140.862 177.648 140.734 177.877 140.734 178.176C140.734 178.496 140.857 178.731 141.102 178.88C141.358 179.029 141.7 179.141 142.126 179.216L142.686 179.312C143.252 179.408 143.769 179.541 144.238 179.712C144.708 179.883 145.076 180.128 145.342 180.448C145.62 180.768 145.758 181.195 145.758 181.728C145.758 182.517 145.465 183.131 144.878 183.568C144.292 184.005 143.502 184.224 142.51 184.224ZM150.473 184C149.993 184 149.609 183.856 149.321 183.568C149.044 183.28 148.905 182.896 148.905 182.416V177.504H146.729V176.112H148.905V173.504H150.553V176.112H152.905V177.504H150.553V182.128C150.553 182.448 150.702 182.608 151.001 182.608H152.649V184H150.473ZM158.176 184.224C157.376 184.224 156.677 184.059 156.08 183.728C155.482 183.387 155.013 182.912 154.672 182.304C154.341 181.685 154.176 180.971 154.176 180.16V179.968C154.176 179.147 154.341 178.432 154.672 177.824C155.002 177.205 155.461 176.731 156.048 176.4C156.645 176.059 157.333 175.888 158.112 175.888C158.869 175.888 159.53 176.059 160.096 176.4C160.672 176.731 161.12 177.195 161.44 177.792C161.76 178.389 161.92 179.088 161.92 179.888V180.512H155.856C155.877 181.205 156.106 181.76 156.544 182.176C156.992 182.581 157.546 182.784 158.208 182.784C158.826 182.784 159.29 182.645 159.6 182.368C159.92 182.091 160.165 181.771 160.336 181.408L161.696 182.112C161.546 182.411 161.328 182.725 161.04 183.056C160.762 183.387 160.394 183.664 159.936 183.888C159.477 184.112 158.89 184.224 158.176 184.224ZM155.872 179.248H160.24C160.197 178.651 159.984 178.187 159.6 177.856C159.216 177.515 158.714 177.344 158.096 177.344C157.477 177.344 156.97 177.515 156.576 177.856C156.192 178.187 155.957 178.651 155.872 179.248ZM163.903 184V176.112H165.519V177.04H165.775C165.903 176.709 166.106 176.469 166.383 176.32C166.671 176.16 167.023 176.08 167.439 176.08H168.383V177.568H167.375C166.842 177.568 166.405 177.717 166.063 178.016C165.722 178.304 165.551 178.752 165.551 179.36V184H163.903Z" fill="white"/>
<path d="M6.60727 23V8.0386H6.22487L3.47637 13.679H0.823466L4.52797 6.27H9.11677V23H6.60727ZM11.4965 23L16.635 14.5633L11.5682 6.27H14.5318L18.308 12.723H18.6904L22.4905 6.27H25.4541L20.3873 14.5633L25.5258 23H22.5383L18.6904 16.4036H18.308L14.4601 23H11.4965Z" fill="#FF7500"/>
</svg>
