<svg width="199" height="199" viewBox="0 0 199 199" fill="none" xmlns="http://www.w3.org/2000/svg">
<path d="M198.03 16.62H74.51V193.38H198.03V16.62Z" fill="#0131FF"/>
<path d="M182.8 28.68H67.79V193.38H182.8V28.68Z" fill="#1743FE"/>
<path d="M167.59 40.74H61.08V193.38H167.59V40.74Z" fill="#2D54FD"/>
<path d="M152.37 52.81H54.37V193.38H152.37V52.81Z" fill="#4366FB"/>
<path d="M137.15 64.87H47.66V193.38H137.15V64.87Z" fill="#5977FA"/>
<path d="M121.92 76.93H40.94V193.38H121.92V76.93Z" fill="#6F89F9"/>
<path d="M106.7 88.99H34.23V193.38H106.7V88.99Z" fill="#849AF8"/>
<path d="M91.48 101.05H27.52V193.38H91.48V101.05Z" fill="#9AACF7"/>
<path d="M76.26 113.12H20.81V193.38H76.26V113.12Z" fill="#B0BDF6"/>
<path d="M61.03 125.18H14.09V193.38H61.03V125.18Z" fill="#C6CFF4"/>
<path d="M45.81 137.24H7.37997V193.38H45.81V137.24Z" fill="#DCE0F3"/>
<path d="M30.59 149.3H0.669983V193.38H30.59V149.3Z" fill="#F2F2F2"/>
<path d="M88.6655 55V20.0817H87.773L81.3583 33.2458H75.1667L83.8126 15.954H94.5224V55H88.6655ZM116.532 55.7809C111.995 55.7809 108.369 54.498 105.654 51.9321C102.977 49.329 101.638 45.4244 101.638 40.2183V30.7357C101.638 25.6411 102.977 21.7737 105.654 19.1335C108.369 16.4932 111.995 15.1731 116.532 15.1731C121.105 15.1731 124.731 16.4932 127.409 19.1335C130.123 21.7737 131.481 25.6411 131.481 30.7357V40.2183C131.481 45.4244 130.123 49.329 127.409 51.9321C124.731 54.498 121.105 55.7809 116.532 55.7809ZM116.532 50.5376C119.618 50.5376 121.905 49.6637 123.392 47.9159C124.88 46.131 125.624 43.6395 125.624 40.4414V30.401C125.624 27.203 124.824 24.7486 123.225 23.0381C121.626 21.2903 119.395 20.4164 116.532 20.4164C113.631 20.4164 111.4 21.3089 109.838 23.0938C108.276 24.8416 107.495 27.2773 107.495 30.401V40.4414C107.495 43.7138 108.239 46.2239 109.726 47.9717C111.251 49.6823 113.519 50.5376 116.532 50.5376ZM152.483 55.7809C147.947 55.7809 144.321 54.498 141.606 51.9321C138.929 49.329 137.59 45.4244 137.59 40.2183V30.7357C137.59 25.6411 138.929 21.7737 141.606 19.1335C144.321 16.4932 147.947 15.1731 152.483 15.1731C157.057 15.1731 160.683 16.4932 163.361 19.1335C166.075 21.7737 167.433 25.6411 167.433 30.7357V40.2183C167.433 45.4244 166.075 49.329 163.361 51.9321C160.683 54.498 157.057 55.7809 152.483 55.7809ZM152.483 50.5376C155.57 50.5376 157.857 49.6637 159.344 47.9159C160.832 46.131 161.576 43.6395 161.576 40.4414V30.401C161.576 27.203 160.776 24.7486 159.177 23.0381C157.578 21.2903 155.347 20.4164 152.483 20.4164C149.583 20.4164 147.352 21.3089 145.79 23.0938C144.228 24.8416 143.447 27.2773 143.447 30.401V40.4414C143.447 43.7138 144.191 46.2239 145.678 47.9717C147.203 49.6823 149.471 50.5376 152.483 50.5376ZM175.55 55.468L173.246 53.596L192.938 29.332L195.242 31.204L175.55 55.468ZM191.138 55.396C189.362 55.396 187.958 54.904 186.926 53.92C185.894 52.912 185.378 51.556 185.378 49.852V49.636C185.378 47.908 185.894 46.552 186.926 45.568C187.958 44.56 189.362 44.056 191.138 44.056C192.89 44.056 194.294 44.56 195.35 45.568C196.406 46.552 196.934 47.908 196.934 49.636V49.852C196.934 51.556 196.406 52.912 195.35 53.92C194.318 54.904 192.914 55.396 191.138 55.396ZM191.138 52.876C192.002 52.876 192.674 52.612 193.154 52.084C193.658 51.556 193.91 50.86 193.91 49.996V49.492C193.91 48.604 193.658 47.896 193.154 47.368C192.674 46.84 192.002 46.576 191.138 46.576C190.298 46.576 189.626 46.84 189.122 47.368C188.642 47.896 188.402 48.604 188.402 49.492V49.996C188.402 50.86 188.642 51.556 189.122 52.084C189.626 52.612 190.298 52.876 191.138 52.876ZM177.35 40.744C175.574 40.744 174.158 40.252 173.102 39.268C172.07 38.26 171.554 36.904 171.554 35.2V34.948C171.554 33.22 172.07 31.864 173.102 30.88C174.158 29.896 175.574 29.404 177.35 29.404C179.102 29.404 180.494 29.896 181.526 30.88C182.582 31.864 183.11 33.22 183.11 34.948V35.2C183.11 36.904 182.594 38.26 181.562 39.268C180.53 40.252 179.126 40.744 177.35 40.744ZM177.35 38.224C178.19 38.224 178.85 37.96 179.33 37.432C179.834 36.88 180.086 36.172 180.086 35.308V34.804C180.086 33.94 179.834 33.244 179.33 32.716C178.85 32.188 178.19 31.924 177.35 31.924C176.486 31.924 175.802 32.188 175.298 32.716C174.818 33.244 174.578 33.94 174.578 34.804V35.308C174.578 36.172 174.818 36.88 175.298 37.432C175.802 37.96 176.486 38.224 177.35 38.224Z" fill="white"/>
<path d="M11.1801 192.94V179.519H10.837L8.37142 184.578H5.99158L9.31478 177.932H13.4313V192.94H11.1801ZM15.5661 192.94L20.1757 185.372L15.6304 177.932H18.2889L21.6765 183.721H22.0195L25.4285 177.932H28.087L23.5417 185.372L28.1513 192.94H25.4713L22.0195 187.023H21.6765L18.2246 192.94H15.5661Z" fill="#0131FF"/>
</svg>
