<svg width="169" height="200" viewBox="0 0 169 200" fill="none" xmlns="http://www.w3.org/2000/svg">
<path d="M123.615 7.13H0.464966V183.36H123.615V7.13Z" fill="#D7FFF4"/>
<path d="M138.595 27.97H29.9949V183.37H138.595V27.97Z" fill="#9CFFE5"/>
<path d="M153.565 48.8H59.525V183.37H153.565V48.8Z" fill="#3EFFD1"/>
<path d="M168.535 69.63H89.055V183.36H168.535V69.63Z" fill="#00F4C5"/>
<path d="M117.903 183.72V148.332H116.999L110.498 161.673H104.223L112.985 144.149H123.839V183.72H117.903ZM129.468 183.72L141.621 163.765L129.637 144.149H136.647L145.579 159.412H146.483L155.471 144.149H162.481L150.497 163.765L162.651 183.72H155.584L146.483 168.118H145.579L136.477 183.72H129.468Z" fill="white"/>
<path d="M3.35687 16.9533L1.97067 15.1608L4.52797 13.201C4.8307 12.962 5.1414 12.7549 5.46007 12.5796C5.79467 12.4043 6.17707 12.3167 6.60727 12.3167C7.06933 12.3167 7.44377 12.4282 7.73057 12.6513C8.01737 12.8584 8.2723 13.1213 8.49537 13.44C8.7025 13.7268 8.86183 13.9419 8.97337 14.0853C9.10083 14.2128 9.26813 14.2765 9.47527 14.2765C9.65053 14.2765 9.80987 14.2367 9.95327 14.157C10.1126 14.0614 10.2799 13.9419 10.4552 13.7985L12.3672 12.3167L13.7534 14.1092L11.22 16.069C10.9172 16.308 10.5986 16.5151 10.264 16.6904C9.9453 16.8657 9.57087 16.9533 9.14067 16.9533C8.6786 16.9533 8.2962 16.8497 7.99347 16.6426C7.70667 16.4195 7.45173 16.1487 7.22867 15.83C7.03747 15.5273 6.87813 15.3122 6.75067 15.1847C6.63913 15.0572 6.47183 14.9935 6.24877 14.9935C6.0735 14.9935 5.91417 15.0413 5.77077 15.1369C5.62737 15.2166 5.46007 15.3281 5.26887 15.4715L3.35687 16.9533ZM16.433 23V21.1119C16.433 19.9488 16.6321 18.9928 17.0305 18.2439C17.4288 17.495 17.9944 16.8896 18.7274 16.4275C19.4762 15.9495 20.3765 15.5512 21.4281 15.2325L22.886 14.7784C23.5392 14.5713 24.0969 14.3163 24.559 14.0136C25.037 13.7109 25.4034 13.3364 25.6584 12.8903C25.9133 12.4282 26.0408 11.8945 26.0408 11.289V11.1934C26.0408 10.2533 25.7221 9.5204 25.0848 8.9946C24.4474 8.45287 23.6109 8.182 22.5753 8.182C21.5077 8.182 20.6394 8.4688 19.9702 9.0424C19.3169 9.616 18.9903 10.4605 18.9903 11.5758V11.9582H16.5047V11.5997C16.5047 10.3888 16.7676 9.36903 17.2934 8.5405C17.8192 7.69603 18.5441 7.05073 19.4683 6.6046C20.3924 6.15847 21.4281 5.9354 22.5753 5.9354C23.7225 5.9354 24.7422 6.1505 25.6345 6.5807C26.5427 7.0109 27.2517 7.61637 27.7616 8.3971C28.2874 9.17783 28.5503 10.094 28.5503 11.1456V11.3607C28.5503 12.4442 28.3352 13.3444 27.905 14.0614C27.4748 14.7784 26.8773 15.3679 26.1125 15.83C25.3636 16.2921 24.4952 16.6824 23.5074 17.0011L22.0973 17.4313C21.3484 17.6544 20.7429 17.9013 20.2809 18.1722C19.8347 18.4271 19.5001 18.7378 19.2771 19.1043C19.0699 19.4708 18.9664 19.9408 18.9664 20.5144V20.7534H28.4069V23H16.433ZM37.2656 23.3346C35.3217 23.3346 33.7682 22.7849 32.6051 21.6855C31.4579 20.5702 30.8843 18.8972 30.8843 16.6665V12.6035C30.8843 10.4206 31.4579 8.76357 32.6051 7.6323C33.7682 6.50103 35.3217 5.9354 37.2656 5.9354C39.2254 5.9354 40.7789 6.50103 41.9261 7.6323C43.0892 8.76357 43.6708 10.4206 43.6708 12.6035V16.6665C43.6708 18.8972 43.0892 20.5702 41.9261 21.6855C40.7789 22.7849 39.2254 23.3346 37.2656 23.3346ZM37.2656 21.088C38.588 21.088 39.5679 20.7136 40.2053 19.9647C40.8426 19.1999 41.1613 18.1324 41.1613 16.7621V12.4601C41.1613 11.0898 40.8187 10.0382 40.1336 9.3053C39.4484 8.55643 38.4924 8.182 37.2656 8.182C36.0228 8.182 35.0668 8.5644 34.3976 9.3292C33.7284 10.0781 33.3938 11.1217 33.3938 12.4601V16.7621C33.3938 18.1642 33.7124 19.2397 34.3498 19.9886C35.003 20.7215 35.975 21.088 37.2656 21.088Z" fill="#00F4C5"/>
</svg>
