<svg width="181" height="193" viewBox="0 0 181 193" fill="none" xmlns="http://www.w3.org/2000/svg">
<path d="M124.85 7.23001H0.900009V184.6H124.85V7.23001Z" fill="#F9EDF7"/>
<path d="M138.32 25.98H27.48V184.6H138.32V25.98Z" fill="#F3DCEE"/>
<path d="M151.8 44.73H54.06V184.6H151.8V44.73Z" fill="#F3C7E9"/>
<path d="M165.27 63.48H80.63V184.6H165.27V63.48Z" fill="#F846D0"/>
<path d="M178.74 82.23H107.21V184.6H178.74V82.23Z" fill="#FA05C3"/>
<path d="M80.628 177.534V173.9L91.8823 170.054V169.49L80.628 165.644V162.01L95.4456 167.479V172.065L80.628 177.534ZM109.703 182.614C107.892 182.614 106.281 182.285 104.869 181.626C103.458 180.968 102.353 180.015 101.553 178.768C100.777 177.522 100.389 176.04 100.389 174.323V173.688H104.093V174.253C104.093 175.805 104.599 177.04 105.61 177.957C106.645 178.851 108.009 179.298 109.703 179.298C111.396 179.298 112.713 178.874 113.654 178.028C114.595 177.181 115.065 176.111 115.065 174.817V174.5C115.065 173.582 114.842 172.841 114.395 172.277C113.948 171.712 113.348 171.301 112.596 171.042C111.843 170.76 110.996 170.619 110.056 170.619H105.575V166.35L114.254 161.234V160.74H100.989V157.424H118.276V162.434L109.985 167.373V167.867H111.502C112.749 167.867 113.925 168.102 115.03 168.572C116.136 169.043 117.029 169.76 117.711 170.725C118.417 171.689 118.77 172.912 118.77 174.394V174.817C118.77 176.393 118.393 177.769 117.641 178.945C116.888 180.097 115.83 181.003 114.466 181.661C113.101 182.296 111.514 182.614 109.703 182.614ZM122.984 174.746V171.43H133.427V174.746H122.984ZM146.669 182.614C144.811 182.614 143.2 182.273 141.836 181.591C140.472 180.909 139.413 179.944 138.661 178.698C137.932 177.451 137.567 176.005 137.567 174.358V173.97H141.342V174.323C141.342 175.828 141.801 177.04 142.718 177.957C143.659 178.851 144.964 179.298 146.634 179.298C148.351 179.298 149.68 178.827 150.621 177.886C151.562 176.946 152.032 175.676 152.032 174.076V173.759C152.032 172.23 151.562 171.007 150.621 170.09C149.703 169.172 148.527 168.714 147.093 168.714C146.293 168.714 145.623 168.843 145.082 169.102C144.564 169.337 144.141 169.631 143.812 169.984C143.506 170.336 143.247 170.678 143.036 171.007H138.343V157.424H154.89V160.776H142.048V168.043H142.612C142.847 167.643 143.177 167.267 143.6 166.914C144.047 166.538 144.623 166.232 145.329 165.997C146.034 165.762 146.881 165.644 147.869 165.644C149.327 165.644 150.644 165.962 151.82 166.597C153.02 167.208 153.972 168.126 154.678 169.349C155.384 170.548 155.736 172.006 155.736 173.723V174.111C155.736 175.828 155.372 177.322 154.643 178.592C153.914 179.862 152.867 180.85 151.503 181.556C150.162 182.261 148.551 182.614 146.669 182.614ZM158.087 182.12L165.672 169.666L158.193 157.424H162.568L168.142 166.95H168.706L174.316 157.424H178.691L171.211 169.666L178.797 182.12H174.387L168.706 172.383H168.142L162.462 182.12H158.087Z" fill="white"/>
<path d="M7.20165 24V8.65048H6.80933L3.98953 14.4372H1.26781L5.06841 6.836H9.77625V24H7.20165ZM12.2177 24L17.4895 15.3444L12.2913 6.836H15.3318L19.2059 13.4564H19.5982L23.4969 6.836H26.5374L21.3392 15.3444L26.611 24H23.546L19.5982 17.2325H19.2059L15.2582 24H12.2177Z" fill="#FA05C3"/>
</svg>
