<svg width="199" height="199" viewBox="0 0 199 199" fill="none" xmlns="http://www.w3.org/2000/svg">
<path d="M197.7 16.62H74.18V193.38H197.7V16.62Z" fill="#0131FF"/>
<path d="M182.47 28.68H67.46V193.38H182.47V28.68Z" fill="#1743FE"/>
<path d="M167.26 40.74H60.75V193.38H167.26V40.74Z" fill="#2D54FD"/>
<path d="M152.04 52.81H54.04V193.38H152.04V52.81Z" fill="#4366FB"/>
<path d="M136.82 64.87H47.33V193.38H136.82V64.87Z" fill="#5977FA"/>
<path d="M121.59 76.93H40.61V193.38H121.59V76.93Z" fill="#6F89F9"/>
<path d="M106.37 88.99H33.9V193.38H106.37V88.99Z" fill="#849AF8"/>
<path d="M91.15 101.05H27.19V193.38H91.15V101.05Z" fill="#9AACF7"/>
<path d="M75.93 113.12H20.48V193.38H75.93V113.12Z" fill="#B0BDF6"/>
<path d="M60.7 125.18H13.76V193.38H60.7V125.18Z" fill="#C6CFF4"/>
<path d="M45.4801 137.24H7.05005V193.38H45.4801V137.24Z" fill="#DCE0F3"/>
<path d="M30.26 149.3H0.340027V193.38H30.26V149.3Z" fill="#F2F2F2"/>
<path d="M116.995 55V20.0817H116.103L109.688 33.2458H103.497L112.143 15.954H122.852V55H116.995ZM144.862 55.7809C140.325 55.7809 136.699 54.498 133.984 51.9321C131.307 49.329 129.968 45.4244 129.968 40.2183V30.7357C129.968 25.6411 131.307 21.7737 133.984 19.1335C136.699 16.4932 140.325 15.1731 144.862 15.1731C149.435 15.1731 153.061 16.4932 155.739 19.1335C158.453 21.7737 159.811 25.6411 159.811 30.7357V40.2183C159.811 45.4244 158.453 49.329 155.739 51.9321C153.061 54.498 149.435 55.7809 144.862 55.7809ZM144.862 50.5376C147.948 50.5376 150.235 49.6637 151.722 47.9159C153.21 46.131 153.954 43.6395 153.954 40.4414V30.401C153.954 27.203 153.154 24.7486 151.555 23.0381C149.956 21.2903 147.725 20.4164 144.862 20.4164C141.961 20.4164 139.73 21.3089 138.168 23.0938C136.606 24.8416 135.825 27.2773 135.825 30.401V40.4414C135.825 43.7138 136.569 46.2239 138.056 47.9717C139.581 49.6823 141.849 50.5376 144.862 50.5376ZM164.358 55L176.351 35.3097L164.526 15.954H171.442L180.256 31.0146H181.148L190.017 15.954H196.934L185.109 35.3097L197.101 55H190.129L181.148 39.6047H180.256L171.275 55H164.358Z" fill="white"/>
<path d="M10.8501 192.94V179.519H10.5071L8.04147 184.578H5.66163L8.98483 177.932H13.1013V192.94H10.8501ZM15.2361 192.94L19.8457 185.372L15.3004 177.932H17.959L21.3465 183.721H21.6895L25.0985 177.932H27.7571L23.2118 185.372L27.8214 192.94H25.1414L21.6895 187.023H21.3465L17.8947 192.94H15.2361Z" fill="#0131FF"/>
</svg>
