<svg width="473" height="590" viewBox="0 0 473 590" fill="none" xmlns="http://www.w3.org/2000/svg">
<mask id="mask0_7_521" style="mask-type:alpha" maskUnits="userSpaceOnUse" x="0" y="0" width="473" height="590">
<rect width="473" height="590" fill="#D9D9D9"/>
</mask>
<g mask="url(#mask0_7_521)">
<path d="M93.691 465.06L58 449.56L93.691 434.06L129.5 449.56L93.691 465.06Z" fill="#E5EFFF"/>
<path d="M93.691 465.06V557.06L58 541.56V449.56L93.691 465.06Z" fill="#112FFF"/>
<path d="M93.691 557.06V465.06L129.5 449.56V542.06L93.691 557.06Z" fill="#000D36"/>
<path d="M272.69 123.739L237 108.239L272.69 92.7393L308.5 108.239L272.69 123.739Z" fill="#E5EFFF"/>
<path d="M272.69 123.739V215.739L237 200.239V108.239L272.69 123.739Z" fill="#112FFF"/>
<path d="M272.69 215.739V123.739L308.5 108.239V200.739L272.69 215.739Z" fill="#000D36"/>
<path d="M343.19 337.739L307.5 322.239L343.19 306.739L379 322.239L343.19 337.739Z" fill="#E5EFFF"/>
<path d="M343.19 337.739V502.739L307.5 487.239V322.239L343.19 337.739Z" fill="#112FFF"/>
<path d="M343.19 502.739V337.739L379 322.239V487.739L343.19 502.739Z" fill="#000D36"/>
<path d="M378.19 352.935L342.5 337.435L378.19 321.935L414 337.435L378.19 352.935Z" fill="#E5EFFF"/>
<path d="M378.19 352.935V427.935L342.5 412.435V337.435L378.19 352.935Z" fill="#112FFF"/>
<path d="M378.19 427.935V352.935L414 337.435V412.935L378.19 427.935Z" fill="#000D36"/>
<path d="M272.19 490.739L236.5 475.239L272.19 459.739L308 475.239L272.19 490.739Z" fill="#E5EFFF"/>
<path d="M272.19 490.739V735.739L236.5 720.239V475.239L272.19 490.739Z" fill="#112FFF"/>
<path d="M272.19 735.739V490.739L308 475.239V720.739L272.19 735.739Z" fill="#000D36"/>
<path d="M343.19 565.739L307.5 550.239L343.19 534.739L379 550.239L343.19 565.739Z" fill="#E5EFFF"/>
<path d="M343.19 565.739V810.739L307.5 795.239V550.239L343.19 565.739Z" fill="#112FFF"/>
<path d="M343.19 810.739V565.739L379 550.239V795.739L343.19 810.739Z" fill="#000D36"/>
<path d="M414.69 462.975L379 447.475L414.69 431.975L450.5 447.475L414.69 462.975Z" fill="#FFD7F6"/>
<path d="M414.69 462.975V707.975L379 692.475V447.475L414.69 462.975Z" fill="#FA05C3"/>
<path d="M414.69 707.975V462.975L450.5 447.475V692.975L414.69 707.975Z" fill="#000D36"/>
<path d="M272.19 267.739L236.5 252.239L272.19 236.739L308 252.239L272.19 267.739Z" fill="#E5EFFF"/>
<path d="M272.19 267.739V472.739L236.5 457.239V252.239L272.19 267.739Z" fill="#112FFF"/>
<path d="M272.19 472.739V267.739L308 252.239V457.739L272.19 472.739Z" fill="#000D36"/>
<path d="M164.94 243.747L129 227.839L164.94 211.931L201 227.839L164.94 243.747Z" fill="#FFD4B7"/>
<path d="M164.94 243.747V289.931L129 274.023V227.839L164.94 243.747Z" fill="#FF7F00"/>
<path d="M164.94 289.931V243.747L201 227.839V274.537L164.94 289.931Z" fill="#000D36"/>
<path d="M164.94 115.816L129 99.9079L164.94 84L201 99.9079L164.94 115.816Z" fill="#E5EFFF"/>
<path d="M164.94 115.816V162L129 146.092V99.9079L164.94 115.816Z" fill="#112FFF"/>
<path d="M164.94 162V115.816L201 99.9079V146.605L164.94 162Z" fill="#000D36"/>
<path d="M343.19 218.751L307.25 202.843L343.19 186.935L379.25 202.843L343.19 218.751Z" fill="#FFD7F6"/>
<path d="M343.19 218.751V264.935L307.25 249.027V202.843L343.19 218.751Z" fill="#FA05C3"/>
<path d="M343.19 264.935V218.751L379.25 202.843V249.54L343.19 264.935Z" fill="#000D36"/>
<path d="M57.941 525.876L22 509.968L57.941 494.06L94 509.968L57.941 525.876Z" fill="#E5EFFF"/>
<path d="M57.941 525.876V572.06L22 556.152V509.968L57.941 525.876Z" fill="#112FFF"/>
<path d="M57.941 572.06V525.876L94 509.968V556.666L57.941 572.06Z" fill="#000D36"/>
<path d="M236.44 392.555L200.5 376.647L236.44 360.739L272.5 376.647L236.44 392.555Z" fill="#FFD4B7"/>
<path d="M236.44 392.555V438.739L200.5 422.831V376.647L236.44 392.555Z" fill="#FF7F00"/>
<path d="M236.44 438.739V392.555L272.5 376.647V423.344L236.44 438.739Z" fill="#000D36"/>
<path d="M164.69 527.06L129 511.56L164.69 496.06L200.5 511.56L164.69 527.06Z" fill="#FFD7F6"/>
<path d="M164.69 527.06V603.06L129 587.56V511.56L164.69 527.06Z" fill="#FA05C3"/>
<path d="M164.69 603.06V527.06L200.5 511.56V588.06L164.69 603.06Z" fill="#000D36"/>
<path d="M164.94 352.06L129.25 336.56L164.94 321.06L200.75 336.56L164.94 352.06Z" fill="#E5EFFF"/>
<path d="M164.94 352.06V517.06L129.25 501.56V336.56L164.94 352.06Z" fill="#112FFF"/>
<path d="M164.94 517.06V352.06L200.75 336.56V502.06L164.94 517.06Z" fill="#000D36"/>
</g>
</svg>
