<svg width="79" height="18" viewBox="0 0 79 18" fill="none" xmlns="http://www.w3.org/2000/svg">
<path d="M30.6423 16.8801C30.6423 17.021 30.6189 17.1151 30.5029 17.1619C29.8759 17.397 29.2951 17.4906 28.5282 17.4906C26.6237 17.4906 25.485 16.5508 25.485 14.2249V8.04603H24.0214C23.9055 8.02235 23.8586 7.97557 23.8586 7.83464V5.86106C23.8586 5.72013 23.9049 5.67336 24.0442 5.67336H25.5079C25.5313 4.85088 25.6244 3.37114 25.7403 2.78375C25.7637 2.66651 25.81 2.59604 25.9259 2.57236L28.2724 2.24313C28.3883 2.21945 28.4351 2.24313 28.4351 2.36037C28.3654 3.13547 28.3186 4.52166 28.3186 5.67276H30.572C30.6879 5.67276 30.7348 5.71954 30.7348 5.83738V7.88142C30.7348 7.99925 30.6885 8.04603 30.572 8.04603H28.2958V13.6139C28.2958 14.6477 28.6207 15.141 29.6201 15.141C29.9222 15.141 30.1774 15.1173 30.5029 15.0468C30.5726 15.0231 30.6423 15.0468 30.6423 15.1877V16.8795V16.8801Z" fill="#0C2C93"/>
<path d="M32.5233 2.47844C32.5233 1.51504 33.1972 0.857178 34.1263 0.857178C35.1251 0.857178 35.7058 1.53872 35.7058 2.47844C35.7058 3.41815 35.0788 4.0997 34.1029 4.0997C33.1269 4.0997 32.5233 3.44184 32.5233 2.47844ZM32.6861 5.8382C32.6861 5.72096 32.7557 5.67359 32.8717 5.67359H35.3341C35.4734 5.67359 35.5197 5.69727 35.5197 5.8382V17.068C35.5197 17.2089 35.4734 17.2557 35.3106 17.2557H32.9179C32.7552 17.2557 32.6855 17.1852 32.6855 17.0443V5.83761L32.6861 5.8382Z" fill="#0C2C93"/>
<path d="M46.4137 16.9268C46.4137 17.044 46.3903 17.0914 46.2972 17.1145C45.5537 17.42 44.6246 17.4905 43.7189 17.4905C39.9556 17.4905 37.7256 14.8828 37.7256 11.4993C37.7256 8.11586 40.2805 5.43823 44.1135 5.43823C45.275 5.43823 45.902 5.55548 46.2972 5.69641C46.3903 5.74318 46.4137 5.81365 46.4137 5.95457L46.3903 8.0454C46.3903 8.21001 46.2972 8.21001 46.2047 8.18632C45.717 7.99862 45.1128 7.88078 44.2071 7.88078C42.0936 7.88078 40.6066 9.14972 40.6066 11.4052C40.6066 13.9661 42.4414 14.9526 44.23 14.9526C45.0666 14.9526 45.7861 14.8822 46.2509 14.7175C46.3669 14.6708 46.4137 14.7412 46.4137 14.8348V16.9256V16.9268Z" fill="#0C2C93"/>
<path d="M58.1673 14.6715C58.1673 15.8931 58.2598 16.5977 58.3066 17.0916C58.3301 17.2088 58.2604 17.2562 58.121 17.2562H55.9842C55.8214 17.2562 55.7751 17.2094 55.7517 17.1153C55.6821 16.8802 55.6124 16.5279 55.589 16.2928C54.5902 17.2325 53.4052 17.4913 52.3602 17.4913C50.1536 17.4913 48.4576 16.2928 48.4576 13.0041V5.83868C48.4576 5.69776 48.5038 5.67407 48.6432 5.67407H51.0822C51.2215 5.67407 51.2449 5.72085 51.2449 5.83868V12.6755C51.2449 14.1321 51.8719 15.025 53.2659 15.025C54.1488 15.025 54.7992 14.7195 55.38 14.1789V5.83868C55.38 5.72144 55.4262 5.67407 55.5656 5.67407H58.0045C58.1439 5.67407 58.1673 5.72085 58.1673 5.83868V14.6721V14.6715Z" fill="#0C2C93"/>
<path d="M61.1174 0.716271C61.1174 0.599029 61.187 0.528564 61.3264 0.528564H63.7191C63.8585 0.528564 63.9281 0.599029 63.9281 0.716271V14.2015C63.9281 14.9298 64.184 15.1649 64.7413 15.1649C64.9269 15.1649 64.9737 15.1649 65.1828 15.1412C65.2524 15.1175 65.2758 15.1649 65.2758 15.2822V17.0443C65.2758 17.2089 65.2524 17.232 65.1365 17.3031C64.8812 17.4203 64.4632 17.4908 63.8128 17.4908C62.3263 17.4908 61.118 16.9271 61.118 14.4603V0.716271H61.1174Z" fill="#0C2C93"/>
<path d="M13.896 17.044L8.53032 1.96124C8.5069 1.84341 8.48407 1.82031 8.36756 1.82031H5.1388C5.04571 1.82031 4.99946 1.89078 4.99946 1.98493C4.95321 2.78371 4.88354 3.01879 4.79045 3.25327L0.00555587 17.021C-0.0172767 17.1856 0.0289739 17.256 0.168311 17.256H2.49138C2.62077 17.256 2.68927 17.2122 2.73552 17.0932L2.74079 17.0962C3.93335 15.0018 4.44445 14.3493 6.02927 13.4084C7.21364 12.7049 8.34356 12.3295 9.26682 12.1264L9.57593 13.1922L10.9231 17.1157C10.9693 17.2098 11.039 17.2566 11.1555 17.2566H13.7572C13.8966 17.2566 13.92 17.1862 13.8966 17.0452L13.896 17.044ZM4.85251 11.3821C4.7243 11.4579 4.60194 11.5331 4.48368 11.6077L4.76704 10.6307C5.46372 8.49247 6.39283 5.74379 6.7646 4.1699H6.78801C7.18671 5.58036 8.04498 8.17982 8.58945 9.87036C7.50344 10.1262 6.20373 10.5797 4.85251 11.3821Z" fill="#0C2C93"/>
<path d="M21.994 5.54383C21.9858 5.54383 21.9782 5.54442 21.97 5.54442C20.5789 5.50889 19.3957 5.6516 17.8648 6.51197C15.4135 7.88867 15.5827 10.8594 15.5827 10.8594V17.0685C15.5827 17.1858 15.6289 17.2562 15.7917 17.2562H18.2073C18.3466 17.2562 18.4163 17.2094 18.4163 17.0685V11.4006C18.4163 8.43936 20.6949 8.21494 21.9706 8.25876C22.1333 8.26409 22.1796 8.21198 22.1796 8.09415V5.70903C22.1796 5.56811 22.1333 5.54442 21.994 5.54442V5.54383Z" fill="#0C2C93"/>
<path d="M13.896 17.044L8.53032 1.96124C8.5069 1.84341 8.48407 1.82031 8.36756 1.82031H5.1388C5.04571 1.82031 4.99946 1.89078 4.99946 1.98493C4.95321 2.78371 4.88354 3.01879 4.79045 3.25327L0.00555587 17.021C-0.0172767 17.1856 0.0289739 17.256 0.168311 17.256H2.49138C2.62077 17.256 2.68927 17.2122 2.73552 17.0932L2.74079 17.0962C3.93335 15.0018 4.44445 14.3493 6.02927 13.4084C7.21364 12.7049 8.34356 12.3295 9.26682 12.1264L9.57593 13.1922L10.9231 17.1157C10.9693 17.2098 11.039 17.2566 11.1555 17.2566H13.7572C13.8966 17.2566 13.92 17.1862 13.8966 17.0452L13.896 17.044ZM4.85251 11.3821C4.7243 11.4579 4.60194 11.5331 4.48368 11.6077L4.76704 10.6307C5.46372 8.49247 6.39283 5.74379 6.7646 4.1699H6.78801C7.18671 5.58036 8.04498 8.17982 8.58945 9.87036C7.50344 10.1262 6.20373 10.5797 4.85251 11.3821Z" fill="#0C2C93"/>
<mask id="mask0_0_535" style="mask-type:luminance" maskUnits="userSpaceOnUse" x="0" y="1" width="14" height="17">
<path d="M13.896 17.044L8.53032 1.96124C8.5069 1.84341 8.48407 1.82031 8.36756 1.82031H5.1388C5.04571 1.82031 4.99946 1.89078 4.99946 1.98493C4.95321 2.78371 4.88354 3.01879 4.79045 3.25327L0.00555587 17.021C-0.0172767 17.1856 0.0289739 17.256 0.168311 17.256H2.49138C2.62077 17.256 2.68927 17.2122 2.73552 17.0932L2.74079 17.0962C3.93335 15.0018 4.44445 14.3493 6.02927 13.4084C7.21364 12.7049 8.34356 12.3295 9.26682 12.1264L9.57593 13.1922L10.9231 17.1157C10.9693 17.2098 11.039 17.2566 11.1555 17.2566H13.7572C13.8966 17.2566 13.92 17.1862 13.8966 17.0452L13.896 17.044ZM4.85251 11.3821C4.7243 11.4579 4.60194 11.5331 4.48368 11.6077L4.76704 10.6307C5.46372 8.49247 6.39283 5.74379 6.7646 4.1699H6.78801C7.18671 5.58036 8.04498 8.17982 8.58945 9.87036C7.50344 10.1262 6.20373 10.5797 4.85251 11.3821Z" fill="white"/>
</mask>
<g mask="url(#mask0_0_535)">
<path d="M13.896 17.044L8.53032 1.96124C8.5069 1.84341 8.48407 1.82031 8.36756 1.82031H5.1388C5.04571 1.82031 4.99946 1.89078 4.99946 1.98493C4.95321 2.78371 4.88354 3.01879 4.79045 3.25327L0.00555587 17.021C-0.0172767 17.1856 0.0289739 17.256 0.168311 17.256H2.49138C2.62077 17.256 2.68927 17.2122 2.73552 17.0932L2.74079 17.0962C3.93335 15.0018 4.44445 14.3493 6.02927 13.4084C7.21364 12.7049 8.34356 12.3295 9.26682 12.1264L9.57593 13.1922L10.9231 17.1157C10.9693 17.2098 11.039 17.2566 11.1555 17.2566H13.7572C13.8966 17.2566 13.92 17.1862 13.8966 17.0452L13.896 17.044ZM4.85251 11.3821C4.7243 11.4579 4.60194 11.5331 4.48368 11.6077L4.76704 10.6307C5.46372 8.49247 6.39283 5.74379 6.7646 4.1699H6.78801C7.18671 5.58036 8.04498 8.17982 8.58945 9.87036C7.50344 10.1262 6.20373 10.5797 4.85251 11.3821Z" fill="#0C2C93"/>
</g>
<path d="M73.1777 6.37846C73.2426 6.28431 73.3047 6.19016 73.3638 6.09541C73.3837 6.06403 73.4036 6.03265 73.4224 6.00126C73.4961 5.8781 73.567 5.75434 73.6308 5.63118C73.6372 5.61934 73.6419 5.60809 73.6484 5.59684C73.7063 5.48433 73.7596 5.37183 73.8099 5.25992C73.8164 5.24511 73.8222 5.23149 73.8287 5.21669C73.824 5.21491 73.8193 5.21314 73.8146 5.21195C73.8082 5.20958 73.8017 5.20662 73.7947 5.20366C73.6249 5.16399 73.4546 5.12313 73.2836 5.08405C72.3926 4.88036 71.4974 4.69265 70.6263 4.40784C70.0145 4.20829 69.4255 3.959 68.905 3.56819C68.8436 3.52201 68.7879 3.46812 68.7183 3.40831C68.7645 3.3639 69.3148 2.9577 69.8254 2.80197C70.7779 2.51183 71.7456 2.40939 72.7333 2.54143C73.1215 2.59295 73.5061 2.66756 73.8521 2.86592C74.2672 3.10396 74.3269 3.18567 74.2859 3.67359C74.2795 3.74997 74.2695 3.82518 74.2572 3.89919C74.54 2.58229 74.3919 1.40927 74.2244 0.673845C74.1437 0.653713 74.0617 0.635356 73.9791 0.619368C73.1121 0.45061 72.2456 0.474889 71.3791 0.625883C70.5929 0.762073 69.8213 0.955109 69.0918 1.28552C68.552 1.53007 68.0274 1.81015 67.634 2.27675C67.4022 2.5515 67.199 2.84579 67.1616 3.22298C67.1059 3.78017 67.3196 4.23316 67.7084 4.60442C68.1153 4.99346 68.5971 5.2765 69.0918 5.53467C69.8962 5.95508 70.7562 6.22391 71.6204 6.48208C72.0179 6.6011 72.4148 6.72367 72.827 6.8492C72.9259 6.72781 73.0172 6.60524 73.1051 6.48326C73.1302 6.44832 73.1542 6.41339 73.1782 6.37846H73.1765H73.1777Z" fill="url(#paint0_linear_0_535)"/>
<path d="M76.099 6.64966C76.0721 6.71716 76.0428 6.78763 76.0112 6.86105C76.0423 6.78763 76.0715 6.71775 76.099 6.64966Z" fill="url(#paint1_linear_0_535)"/>
<path d="M76.099 6.64966C76.0721 6.71716 76.0428 6.78763 76.0112 6.86105C76.0423 6.78763 76.0715 6.71775 76.099 6.64966Z" fill="url(#paint2_linear_0_535)"/>
<path d="M76.315 6.06934C76.2994 6.1173 76.2815 6.16941 76.2624 6.2227C76.2815 6.16882 76.2994 6.1173 76.315 6.06934Z" fill="url(#paint3_linear_0_535)"/>
<path d="M76.315 6.06934C76.2994 6.1173 76.2815 6.16941 76.2624 6.2227C76.2815 6.16882 76.2994 6.1173 76.315 6.06934Z" fill="url(#paint4_linear_0_535)"/>
<path d="M76.1751 6.45532C76.1571 6.5021 76.1381 6.55125 76.1184 6.60158C76.1381 6.55125 76.1571 6.50269 76.1751 6.45532Z" fill="url(#paint5_linear_0_535)"/>
<path d="M76.1751 6.45532C76.1571 6.5021 76.1381 6.55125 76.1184 6.60158C76.1381 6.55125 76.1571 6.50269 76.1751 6.45532Z" fill="url(#paint6_linear_0_535)"/>
<path d="M78.9818 9.63739C78.945 9.2602 78.8109 8.9138 78.6803 8.56385C78.2606 7.43939 77.445 6.68857 76.4281 6.12722C76.3912 6.10709 76.3526 6.08814 76.3151 6.0686C76.2993 6.11657 76.2812 6.16868 76.2618 6.22197C76.256 6.23736 76.2501 6.25394 76.2443 6.26993C76.2296 6.3096 76.2144 6.35164 76.198 6.39428C76.1904 6.41441 76.1834 6.43395 76.1752 6.45408C76.157 6.50086 76.1377 6.55001 76.1178 6.60034C76.1114 6.61633 76.1055 6.63172 76.0985 6.6483C76.071 6.71581 76.0423 6.78627 76.0107 6.85969C76.0048 6.87331 75.9984 6.88812 75.9925 6.90174C75.9668 6.96213 75.9398 7.02431 75.9112 7.08826C75.8994 7.11431 75.8877 7.14037 75.876 7.16642C75.8503 7.22327 75.8239 7.28188 75.7964 7.34169C75.7835 7.36952 75.7706 7.39676 75.7578 7.42518C75.7226 7.49979 75.6863 7.57677 75.6477 7.6567C75.6413 7.67032 75.6348 7.68335 75.6284 7.69697C75.5827 7.79053 75.5347 7.88823 75.4838 7.9883C75.4803 7.996 75.4767 8.00251 75.4732 8.01021C75.4767 8.01258 75.4808 8.01495 75.4838 8.01791C75.4867 8.02087 75.4902 8.02323 75.4926 8.02619C75.9451 8.38266 76.2952 8.7859 76.4638 9.35731C76.6307 9.92458 76.448 10.3746 76.136 10.8098C75.766 11.3256 75.2876 11.727 74.7765 12.0906C73.9757 12.6596 73.1033 13.0937 72.2029 13.4744C72.1783 13.4851 72.1525 13.4922 72.1069 13.5082C72.1057 13.5082 72.1045 13.5093 72.1034 13.5099H72.1016C72.1016 13.5099 72.0969 13.5099 72.0946 13.5099C72.0923 13.5117 72.0893 13.5135 72.0858 13.5147C72.0835 13.5147 72.0823 13.5147 72.0805 13.5147C71.8944 13.7811 71.6982 14.0571 71.4963 14.3389C71.4693 14.3768 71.4424 14.4141 71.4149 14.4526C71.2193 14.7238 71.0162 15.0027 70.8054 15.2881C70.7685 15.3379 70.7322 15.387 70.6954 15.4373C70.4823 15.7251 70.2627 16.0194 70.0338 16.322C70.001 16.3658 69.9665 16.4108 69.9331 16.4546C69.6907 16.7738 69.4425 17.0989 69.1826 17.434C69.9671 17.5844 70.7159 17.4186 71.4606 17.2037C73.2954 16.6731 74.9399 15.779 76.3988 14.5355C77.1453 13.899 77.8145 13.1908 78.3191 12.3405C78.8127 11.5091 79.0761 10.6168 78.9807 9.63561V9.63798L78.9818 9.63739Z" fill="url(#paint7_linear_0_535)"/>
<path d="M72.0817 13.5172C73.7918 11.0699 74.8409 9.26866 75.4843 7.99024C75.5347 7.89017 75.5833 7.79247 75.629 7.69892C75.6354 7.6853 75.6418 7.67227 75.6483 7.65865C75.6863 7.57931 75.7238 7.50233 75.7583 7.42713C75.7712 7.3987 75.7841 7.37147 75.797 7.34364C75.8245 7.28383 75.8514 7.22521 75.8766 7.16836C75.8883 7.14231 75.9006 7.11566 75.9117 7.0902C75.9398 7.02625 75.9673 6.96349 75.9931 6.90368C75.999 6.89006 76.0054 6.87526 76.0113 6.86164C76.0423 6.78821 76.0716 6.71775 76.0991 6.65025C76.1055 6.63367 76.1119 6.61827 76.1184 6.60228C76.1383 6.55195 76.1576 6.5034 76.1758 6.45603C76.1834 6.4359 76.191 6.41576 76.1986 6.39622C76.215 6.35359 76.2302 6.31155 76.2449 6.27187C76.2507 6.25589 76.2566 6.23931 76.2624 6.22391C76.2817 6.17003 76.2999 6.11851 76.3157 6.07055C76.3133 6.06937 76.311 6.06818 76.3081 6.067C76.3924 5.7585 76.479 5.45828 76.5563 5.1563C76.7472 4.41495 76.7729 3.66235 76.6125 2.91744C76.4907 2.35314 76.2068 1.86522 75.7683 1.47323C75.3152 1.06939 73.913 0.0337549 70.7843 0.741354C74.8485 0.423378 74.54 2.58289 74.2572 3.89979C74.218 4.08217 74.17 4.2681 74.1132 4.4558C74.0371 4.70687 73.9417 4.96148 73.8293 5.21728C73.8293 5.21728 73.8304 5.21728 73.831 5.21728C73.8246 5.2315 73.817 5.24571 73.8105 5.25992C73.7602 5.37243 73.7069 5.48434 73.649 5.59684C73.6425 5.60869 73.6378 5.61993 73.6314 5.63119C73.567 5.75435 73.4967 5.8781 73.423 6.00127C73.4042 6.03265 73.3837 6.06404 73.3644 6.09542C73.3059 6.18957 73.2432 6.28372 73.1783 6.37846C73.1542 6.4134 73.1302 6.44833 73.1051 6.48327C73.0173 6.60584 72.9259 6.72782 72.827 6.8492L70.9249 9.39715C70.6257 9.77967 70.3248 10.161 70.025 10.5429C69.4156 11.3198 68.836 12.1221 68.2581 12.9239C68.1615 13.0577 68.0708 13.1969 67.9835 13.3372C67.8577 13.5397 65.9737 16.7959 69.1662 17.4318C69.1726 17.433 70.2481 17.8155 72.7485 16.7591C69.4811 16.8936 71.8961 13.7831 72.0823 13.5166L72.0817 13.5172Z" fill="url(#paint8_linear_0_535)"/>
<path d="M73.6483 5.59668C73.6419 5.60862 73.6372 5.61996 73.6308 5.6313C73.6372 5.61936 73.6419 5.60802 73.6483 5.59668Z" fill="url(#paint9_linear_0_535)"/>
<path d="M73.6483 5.59668C73.6419 5.60862 73.6372 5.61996 73.6308 5.6313C73.6372 5.61936 73.6419 5.60802 73.6483 5.59668Z" fill="url(#paint10_linear_0_535)"/>
<path d="M73.4217 6.00122C73.4032 6.0326 73.383 6.06399 73.3639 6.09537C73.3835 6.06399 73.4032 6.0326 73.4217 6.00122Z" fill="url(#paint11_linear_0_535)"/>
<path d="M73.4217 6.00122C73.4032 6.0326 73.383 6.06399 73.3639 6.09537C73.3835 6.06399 73.4032 6.0326 73.4217 6.00122Z" fill="url(#paint12_linear_0_535)"/>
<path d="M73.8302 5.21729C73.8302 5.21729 73.829 5.21729 73.8284 5.21729C73.8221 5.23209 73.8163 5.24571 73.8099 5.26051C73.8163 5.2463 73.8238 5.23209 73.8302 5.21788V5.21729Z" fill="url(#paint13_linear_0_535)"/>
<path d="M73.8302 5.21729C73.8302 5.21729 73.829 5.21729 73.8284 5.21729C73.8221 5.23209 73.8163 5.24571 73.8099 5.26051C73.8163 5.2463 73.8238 5.23209 73.8302 5.21788V5.21729Z" fill="url(#paint14_linear_0_535)"/>
<path d="M69.1837 17.4364C69.4442 17.1013 69.6925 16.7756 69.9343 16.457C69.6925 16.7762 69.4437 17.1013 69.1837 17.4364Z" fill="url(#paint15_linear_0_535)"/>
<path d="M69.1837 17.4364C69.4442 17.1013 69.6925 16.7756 69.9343 16.457C69.6925 16.7762 69.4437 17.1013 69.1837 17.4364Z" fill="url(#paint16_linear_0_535)"/>
<path d="M75.9931 6.90308C75.9674 6.96347 75.9404 7.02565 75.9117 7.0896C75.9398 7.02505 75.9674 6.96288 75.9931 6.90308Z" fill="url(#paint17_linear_0_535)"/>
<path d="M75.9931 6.90308C75.9674 6.96347 75.9404 7.02565 75.9117 7.0896C75.9398 7.02505 75.9674 6.96288 75.9931 6.90308Z" fill="url(#paint18_linear_0_535)"/>
<path d="M75.8772 7.16821C75.8515 7.22506 75.8251 7.28368 75.7976 7.34349C75.8251 7.28368 75.8521 7.22506 75.8772 7.16821Z" fill="url(#paint19_linear_0_535)"/>
<path d="M75.8772 7.16821C75.8515 7.22506 75.8251 7.28368 75.7976 7.34349C75.8251 7.28368 75.8521 7.22506 75.8772 7.16821Z" fill="url(#paint20_linear_0_535)"/>
<path d="M70.6965 15.4392C70.4834 15.727 70.2639 16.0213 70.035 16.3239C70.2639 16.0213 70.484 15.7276 70.6965 15.4392Z" fill="url(#paint21_linear_0_535)"/>
<path d="M70.6965 15.4392C70.4834 15.727 70.2639 16.0213 70.035 16.3239C70.2639 16.0213 70.484 15.7276 70.6965 15.4392Z" fill="url(#paint22_linear_0_535)"/>
<path d="M71.416 14.4543C71.2205 14.7255 71.0173 15.0044 70.8066 15.2898C71.0173 15.0038 71.2205 14.7255 71.416 14.4543Z" fill="url(#paint23_linear_0_535)"/>
<path d="M71.416 14.4543C71.2205 14.7255 71.0173 15.0044 70.8066 15.2898C71.0173 15.0038 71.2205 14.7255 71.416 14.4543Z" fill="url(#paint24_linear_0_535)"/>
<path d="M75.6284 7.69873C75.5827 7.79229 75.5347 7.88999 75.4838 7.99006C75.5341 7.88999 75.5827 7.79229 75.6284 7.69873Z" fill="url(#paint25_linear_0_535)"/>
<path d="M75.6284 7.69873C75.5827 7.79229 75.5347 7.88999 75.4838 7.99006C75.5341 7.88999 75.5827 7.79229 75.6284 7.69873Z" fill="url(#paint26_linear_0_535)"/>
<path d="M75.7583 7.427C75.7232 7.50161 75.6869 7.57859 75.6483 7.65853C75.6863 7.57918 75.7238 7.5022 75.7583 7.427Z" fill="url(#paint27_linear_0_535)"/>
<path d="M75.7583 7.427C75.7232 7.50161 75.6869 7.57859 75.6483 7.65853C75.6863 7.57918 75.7238 7.5022 75.7583 7.427Z" fill="url(#paint28_linear_0_535)"/>
<defs>
<linearGradient id="paint0_linear_0_535" x1="67.1534" y1="3.67537" x2="74.4165" y2="3.67537" gradientUnits="userSpaceOnUse">
<stop stop-color="#FF6200"/>
<stop offset="1" stop-color="#FF7F00"/>
</linearGradient>
<linearGradient id="paint1_linear_0_535" x1="77.0269" y1="8.38423" x2="78.5652" y2="10.9036" gradientUnits="userSpaceOnUse">
<stop stop-color="#CD4E27"/>
<stop offset="1" stop-color="#F37845"/>
</linearGradient>
<linearGradient id="paint2_linear_0_535" x1="74.6495" y1="2.70024" x2="76.6515" y2="8.34692" gradientUnits="userSpaceOnUse">
<stop stop-color="#CD4E27"/>
<stop offset="1" stop-color="#F37845"/>
</linearGradient>
<linearGradient id="paint3_linear_0_535" x1="77.4492" y1="8.1172" x2="78.9959" y2="10.6191" gradientUnits="userSpaceOnUse">
<stop stop-color="#CD4E27"/>
<stop offset="1" stop-color="#F37845"/>
</linearGradient>
<linearGradient id="paint4_linear_0_535" x1="75.0612" y1="2.5594" x2="77.0828" y2="8.1905" gradientUnits="userSpaceOnUse">
<stop stop-color="#CD4E27"/>
<stop offset="1" stop-color="#F37845"/>
</linearGradient>
<linearGradient id="paint5_linear_0_535" x1="77.18" y1="8.2826" x2="78.7265" y2="10.7846" gradientUnits="userSpaceOnUse">
<stop stop-color="#CD4E27"/>
<stop offset="1" stop-color="#F37845"/>
</linearGradient>
<linearGradient id="paint6_linear_0_535" x1="74.818" y1="2.64614" x2="76.84" y2="8.27708" gradientUnits="userSpaceOnUse">
<stop stop-color="#CD4E27"/>
<stop offset="1" stop-color="#F37845"/>
</linearGradient>
<linearGradient id="paint7_linear_0_535" x1="69.1837" y1="11.7803" x2="79.0012" y2="11.7803" gradientUnits="userSpaceOnUse">
<stop stop-color="#CD4E27"/>
<stop offset="1" stop-color="#FF7F00"/>
</linearGradient>
<linearGradient id="paint8_linear_0_535" x1="69.9277" y1="3.47759" x2="72.1652" y2="9.79036" gradientUnits="userSpaceOnUse">
<stop stop-color="#CD4E27"/>
<stop offset="1" stop-color="#FF7F00"/>
</linearGradient>
<linearGradient id="paint9_linear_0_535" x1="72.8144" y1="5.16922" x2="67.6694" y2="2.52382" gradientUnits="userSpaceOnUse">
<stop stop-color="#CD4E27"/>
<stop offset="1" stop-color="#F37845"/>
</linearGradient>
<linearGradient id="paint10_linear_0_535" x1="72.8538" y1="3.31913" x2="74.8919" y2="8.99598" gradientUnits="userSpaceOnUse">
<stop stop-color="#CD4E27"/>
<stop offset="1" stop-color="#F37845"/>
</linearGradient>
<linearGradient id="paint11_linear_0_535" x1="72.5901" y1="5.61541" x2="65.5265" y2="1.98465" gradientUnits="userSpaceOnUse">
<stop stop-color="#CD4E27"/>
<stop offset="1" stop-color="#F37845"/>
</linearGradient>
<linearGradient id="paint12_linear_0_535" x1="72.5078" y1="3.46282" x2="74.5299" y2="9.09391" gradientUnits="userSpaceOnUse">
<stop stop-color="#CD4E27"/>
<stop offset="1" stop-color="#F37845"/>
</linearGradient>
<linearGradient id="paint13_linear_0_535" x1="73.013" y1="4.80371" x2="65.9501" y2="1.17329" gradientUnits="userSpaceOnUse">
<stop stop-color="#CD4E27"/>
<stop offset="1" stop-color="#F37845"/>
</linearGradient>
<linearGradient id="paint14_linear_0_535" x1="73.1358" y1="3.23987" x2="75.1574" y2="8.87064" gradientUnits="userSpaceOnUse">
<stop stop-color="#CD4E27"/>
<stop offset="1" stop-color="#F37845"/>
</linearGradient>
<linearGradient id="paint15_linear_0_535" x1="67.8075" y1="14.0123" x2="69.3458" y2="16.5317" gradientUnits="userSpaceOnUse">
<stop stop-color="#CD4E27"/>
<stop offset="1" stop-color="#F37845"/>
</linearGradient>
<linearGradient id="paint16_linear_0_535" x1="65.7188" y1="5.86567" x2="67.7208" y2="11.5123" gradientUnits="userSpaceOnUse">
<stop stop-color="#CD4E27"/>
<stop offset="1" stop-color="#F37845"/>
</linearGradient>
<linearGradient id="paint17_linear_0_535" x1="76.8455" y1="8.4945" x2="78.384" y2="11.0144" gradientUnits="userSpaceOnUse">
<stop stop-color="#CD4E27"/>
<stop offset="1" stop-color="#F37845"/>
</linearGradient>
<linearGradient id="paint18_linear_0_535" x1="74.4838" y1="2.75868" x2="76.4855" y2="8.40593" gradientUnits="userSpaceOnUse">
<stop stop-color="#CD4E27"/>
<stop offset="1" stop-color="#F37845"/>
</linearGradient>
<linearGradient id="paint19_linear_0_535" x1="76.6483" y1="8.61511" x2="78.1866" y2="11.1345" gradientUnits="userSpaceOnUse">
<stop stop-color="#CD4E27"/>
<stop offset="1" stop-color="#F37845"/>
</linearGradient>
<linearGradient id="paint20_linear_0_535" x1="74.3009" y1="2.82326" x2="76.3025" y2="8.47068" gradientUnits="userSpaceOnUse">
<stop stop-color="#CD4E27"/>
<stop offset="1" stop-color="#F37845"/>
</linearGradient>
<linearGradient id="paint21_linear_0_535" x1="68.8651" y1="13.3666" x2="70.4034" y2="15.886" gradientUnits="userSpaceOnUse">
<stop stop-color="#CD4E27"/>
<stop offset="1" stop-color="#F37845"/>
</linearGradient>
<linearGradient id="paint22_linear_0_535" x1="66.7663" y1="5.49457" x2="68.7683" y2="11.1412" gradientUnits="userSpaceOnUse">
<stop stop-color="#CD4E27"/>
<stop offset="1" stop-color="#F37845"/>
</linearGradient>
<linearGradient id="paint23_linear_0_535" x1="69.8521" y1="12.764" x2="71.391" y2="15.2832" gradientUnits="userSpaceOnUse">
<stop stop-color="#CD4E27"/>
<stop offset="1" stop-color="#F37845"/>
</linearGradient>
<linearGradient id="paint24_linear_0_535" x1="67.7417" y1="5.14861" x2="69.7431" y2="10.7955" gradientUnits="userSpaceOnUse">
<stop stop-color="#CD4E27"/>
<stop offset="1" stop-color="#F37845"/>
</linearGradient>
<linearGradient id="paint25_linear_0_535" x1="76.1851" y1="8.89808" x2="77.7228" y2="11.4176" gradientUnits="userSpaceOnUse">
<stop stop-color="#CD4E27"/>
<stop offset="1" stop-color="#F37845"/>
</linearGradient>
<linearGradient id="paint26_linear_0_535" x1="73.8692" y1="2.9766" x2="75.8713" y2="8.62381" gradientUnits="userSpaceOnUse">
<stop stop-color="#CD4E27"/>
<stop offset="1" stop-color="#F37845"/>
</linearGradient>
<linearGradient id="paint27_linear_0_535" x1="76.4242" y1="8.75217" x2="77.962" y2="11.2717" gradientUnits="userSpaceOnUse">
<stop stop-color="#CD4E27"/>
<stop offset="1" stop-color="#F37845"/>
</linearGradient>
<linearGradient id="paint28_linear_0_535" x1="74.0931" y1="2.89717" x2="76.0948" y2="8.54453" gradientUnits="userSpaceOnUse">
<stop stop-color="#CD4E27"/>
<stop offset="1" stop-color="#F37845"/>
</linearGradient>
</defs>
</svg>
