<?xml version="1.0" encoding="UTF-8"?>
<svg id="Layer_1" xmlns="http://www.w3.org/2000/svg" xmlns:xlink="http://www.w3.org/1999/xlink" viewBox="0 0 100 30">
  <defs>
    <style>
      .cls-1 {
        fill: none;
      }

      .cls-2 {
        fill: #00c;
      }

      .cls-3 {
        fill: url(#linear-gradient-8);
      }

      .cls-4 {
        fill: url(#linear-gradient-7);
      }

      .cls-5 {
        fill: url(#linear-gradient-5);
      }

      .cls-6 {
        fill: url(#linear-gradient-6);
      }

      .cls-7 {
        fill: url(#linear-gradient-9);
      }

      .cls-8 {
        fill: url(#linear-gradient-4);
      }

      .cls-9 {
        fill: url(#linear-gradient-3);
      }

      .cls-10 {
        fill: url(#linear-gradient-2);
      }

      .cls-11 {
        fill: url(#linear-gradient);
      }

      .cls-12 {
        clip-path: url(#clippath-17);
      }

      .cls-13 {
        clip-path: url(#clippath-19);
      }

      .cls-14 {
        clip-path: url(#clippath-11);
      }

      .cls-15 {
        clip-path: url(#clippath-16);
      }

      .cls-16 {
        clip-path: url(#clippath-18);
      }

      .cls-17 {
        clip-path: url(#clippath-10);
      }

      .cls-18 {
        clip-path: url(#clippath-15);
      }

      .cls-19 {
        clip-path: url(#clippath-13);
      }

      .cls-20 {
        clip-path: url(#clippath-14);
      }

      .cls-21 {
        clip-path: url(#clippath-12);
      }

      .cls-22 {
        clip-path: url(#clippath-31);
      }

      .cls-23 {
        clip-path: url(#clippath-32);
      }

      .cls-24 {
        clip-path: url(#clippath-33);
      }

      .cls-25 {
        clip-path: url(#clippath-34);
      }

      .cls-26 {
        clip-path: url(#clippath-35);
      }

      .cls-27 {
        clip-path: url(#clippath-30);
      }

      .cls-28 {
        clip-path: url(#clippath-36);
      }

      .cls-29 {
        clip-path: url(#clippath-37);
      }

      .cls-30 {
        clip-path: url(#clippath-27);
      }

      .cls-31 {
        clip-path: url(#clippath-29);
      }

      .cls-32 {
        clip-path: url(#clippath-26);
      }

      .cls-33 {
        clip-path: url(#clippath-28);
      }

      .cls-34 {
        clip-path: url(#clippath-20);
      }

      .cls-35 {
        clip-path: url(#clippath-21);
      }

      .cls-36 {
        clip-path: url(#clippath-22);
      }

      .cls-37 {
        clip-path: url(#clippath-23);
      }

      .cls-38 {
        clip-path: url(#clippath-24);
      }

      .cls-39 {
        clip-path: url(#clippath-25);
      }

      .cls-40 {
        clip-path: url(#clippath-1);
      }

      .cls-41 {
        clip-path: url(#clippath-3);
      }

      .cls-42 {
        clip-path: url(#clippath-4);
      }

      .cls-43 {
        clip-path: url(#clippath-2);
      }

      .cls-44 {
        clip-path: url(#clippath-7);
      }

      .cls-45 {
        clip-path: url(#clippath-6);
      }

      .cls-46 {
        clip-path: url(#clippath-9);
      }

      .cls-47 {
        clip-path: url(#clippath-8);
      }

      .cls-48 {
        clip-path: url(#clippath-5);
      }

      .cls-49 {
        fill: url(#linear-gradient-10);
      }

      .cls-50 {
        fill: url(#linear-gradient-11);
      }

      .cls-51 {
        fill: url(#linear-gradient-12);
      }

      .cls-52 {
        fill: url(#linear-gradient-13);
      }

      .cls-53 {
        fill: url(#linear-gradient-19);
      }

      .cls-54 {
        fill: url(#linear-gradient-14);
      }

      .cls-55 {
        fill: url(#linear-gradient-21);
      }

      .cls-56 {
        fill: url(#linear-gradient-20);
      }

      .cls-57 {
        fill: url(#linear-gradient-22);
      }

      .cls-58 {
        fill: url(#linear-gradient-23);
      }

      .cls-59 {
        fill: url(#linear-gradient-28);
      }

      .cls-60 {
        fill: url(#linear-gradient-25);
      }

      .cls-61 {
        fill: url(#linear-gradient-32);
      }

      .cls-62 {
        fill: url(#linear-gradient-31);
      }

      .cls-63 {
        fill: url(#linear-gradient-33);
      }

      .cls-64 {
        fill: url(#linear-gradient-30);
      }

      .cls-65 {
        fill: url(#linear-gradient-15);
      }

      .cls-66 {
        fill: url(#linear-gradient-16);
      }

      .cls-67 {
        fill: url(#linear-gradient-17);
      }

      .cls-68 {
        fill: url(#linear-gradient-18);
      }

      .cls-69 {
        fill: url(#linear-gradient-35);
      }

      .cls-70 {
        fill: url(#linear-gradient-34);
      }

      .cls-71 {
        fill: url(#linear-gradient-27);
      }

      .cls-72 {
        fill: url(#linear-gradient-24);
      }

      .cls-73 {
        fill: url(#linear-gradient-26);
      }

      .cls-74 {
        fill: url(#linear-gradient-29);
      }

      .cls-75 {
        clip-path: url(#clippath);
      }
    </style>
    <clipPath id="clippath">
      <rect class="cls-1" y="-13.12" width="100" height="56.25"/>
    </clipPath>
    <clipPath id="clippath-1">
      <rect class="cls-1" y="-13.12" width="100" height="56.25"/>
    </clipPath>
    <clipPath id="clippath-2">
      <path class="cls-1" d="M10.97,16.81c.78-2.38,1.83-5.43,2.24-7.18h.03c.45,1.57,1.41,4.45,2.02,6.33-1.22.28-2.68.79-4.2,1.68-.14.08-.28.17-.41.25l.32-1.09ZM11.39,7.02c-.1,0-.16.08-.16.18-.05.89-.13,1.15-.24,1.41l-5.38,15.3c-.03.18.03.26.18.26h2.61c.15,0,.22-.05.27-.18h0c1.34-2.32,1.91-3.05,3.7-4.09,1.33-.78,2.6-1.2,3.64-1.42l.35,1.18,1.51,4.36c.05.1.13.16.26.16h2.92c.16,0,.18-.08.16-.24L15.2,7.18c-.03-.13-.05-.16-.18-.16h-3.63Z"/>
    </clipPath>
    <clipPath id="clippath-3">
      <path class="cls-1" d="M85.82,5.7c-.88.15-1.75.37-2.57.73-.61.27-1.2.58-1.64,1.1-.26.31-.49.63-.53,1.05-.06.62.18,1.12.61,1.53.46.43,1,.75,1.55,1.03.9.47,1.87.77,2.84,1.05.45.13.89.27,1.36.41.11-.13.21-.27.31-.41.03-.04.05-.08.08-.12h0c.07-.1.14-.21.21-.31.02-.04.04-.07.07-.1.08-.14.16-.27.23-.41,0-.01.01-.03.02-.04.07-.13.13-.25.18-.37,0-.02.01-.03.02-.05,0,0-.01,0-.02,0,0,0-.01,0-.02,0-.19-.04-.38-.09-.57-.13-1-.23-2.01-.43-2.99-.75-.69-.22-1.35-.5-1.93-.93-.07-.05-.13-.11-.21-.18.05-.05.67-.5,1.24-.67,1.07-.32,2.16-.44,3.27-.29.44.06.87.14,1.26.36.47.26.53.36.49.9,0,.08-.02.17-.03.25.32-1.46.15-2.77-.04-3.58-.09-.02-.18-.04-.28-.06-.46-.09-.93-.13-1.39-.13-.51,0-1.02.05-1.53.14"/>
    </clipPath>
    <linearGradient id="linear-gradient" x1="-9.42" y1="-4.23" x2="-9.36" y2="-4.23" gradientTransform="translate(1556.58 -653.58) scale(156.7 -156.7)" gradientUnits="userSpaceOnUse">
      <stop offset="0" stop-color="#ff6200"/>
      <stop offset="1" stop-color="#ff7f00"/>
    </linearGradient>
    <clipPath id="clippath-4">
      <path class="cls-1" d="M91.03,12.62c.04-.08.07-.16.1-.23-.03.08-.06.15-.1.23"/>
    </clipPath>
    <linearGradient id="linear-gradient-2" x1="-6.03" y1="27.38" x2="-5.98" y2="27.38" gradientTransform="translate(1820.39 395.75) rotate(90) scale(63.16)" gradientUnits="userSpaceOnUse">
      <stop offset="0" stop-color="#cd4e27"/>
      <stop offset="1" stop-color="#f37845"/>
    </linearGradient>
    <clipPath id="clippath-5">
      <path class="cls-1" d="M91.03,12.62c.04-.08.07-.16.1-.23-.03.08-.06.15-.1.23"/>
    </clipPath>
    <linearGradient id="linear-gradient-3" x1=".82" y1="13.78" x2=".87" y2="13.78" gradientTransform="translate(1853.92 -97.55) rotate(90) scale(127.96)" xlink:href="#linear-gradient-2"/>
    <clipPath id="clippath-6">
      <path class="cls-1" d="M91.31,11.91c.02-.06.04-.12.06-.17-.02.05-.04.11-.06.17"/>
    </clipPath>
    <linearGradient id="linear-gradient-4" x1="-6.03" y1="27.55" x2="-5.98" y2="27.55" gradientTransform="translate(1831.15 395.3) rotate(90) scale(63.16)" xlink:href="#linear-gradient-2"/>
    <clipPath id="clippath-7">
      <path class="cls-1" d="M91.31,11.91c.02-.06.04-.12.06-.17-.02.05-.04.11-.06.17"/>
    </clipPath>
    <linearGradient id="linear-gradient-5" x1=".82" y1="13.84" x2=".87" y2="13.84" gradientTransform="translate(1862.76 -97.64) rotate(90) scale(127.96)" xlink:href="#linear-gradient-2"/>
    <clipPath id="clippath-8">
      <path class="cls-1" d="M91.24,12.11s.04-.09.05-.14c-.02.04-.03.09-.05.14"/>
    </clipPath>
    <linearGradient id="linear-gradient-6" x1="-6.03" y1="27.5" x2="-5.98" y2="27.5" gradientTransform="translate(1827.93 395.4) rotate(90) scale(63.15)" xlink:href="#linear-gradient-2"/>
    <clipPath id="clippath-9">
      <path class="cls-1" d="M91.24,12.11s.04-.09.05-.14c-.02.04-.03.09-.05.14"/>
    </clipPath>
    <linearGradient id="linear-gradient-7" x1=".82" y1="13.82" x2=".87" y2="13.82" gradientTransform="translate(1860.13 -97.59) rotate(90) scale(127.96)" xlink:href="#linear-gradient-2"/>
    <clipPath id="clippath-10">
      <path class="cls-1" d="M91.15,12.33c.02-.06.04-.11.06-.16-.02.05-.04.11-.06.16"/>
    </clipPath>
    <linearGradient id="linear-gradient-8" x1="-6.03" y1="27.45" x2="-5.98" y2="27.45" gradientTransform="translate(1824.5 395.53) rotate(90) scale(63.15)" xlink:href="#linear-gradient-2"/>
    <clipPath id="clippath-11">
      <path class="cls-1" d="M91.15,12.33c.02-.06.04-.11.06-.16-.02.05-.04.11-.06.16"/>
    </clipPath>
    <linearGradient id="linear-gradient-9" x1=".82" y1="13.8" x2=".87" y2="13.8" gradientTransform="translate(1857.31 -97.54) rotate(90) scale(127.96)" xlink:href="#linear-gradient-2"/>
    <clipPath id="clippath-12">
      <path class="cls-1" d="M91.31,11.91s-.01.04-.02.05c-.02.04-.03.09-.05.14,0,.02-.02.04-.03.07-.02.05-.04.11-.06.16,0,.02-.01.04-.02.05-.03.07-.06.15-.1.23,0,.02-.01.03-.02.05-.03.07-.06.14-.09.21-.01.03-.03.06-.04.09-.03.06-.06.13-.09.2-.01.03-.03.06-.04.09-.04.08-.08.17-.12.26,0,.02-.01.03-.02.04-.05.1-.11.21-.16.32,0,0,0,.02-.01.02,0,0,0,0,.01,0,0,0,0,0,.01,0,.51.4.9.84,1.09,1.48.19.63-.02,1.13-.37,1.61-.42.57-.95,1.02-1.53,1.42-.9.63-1.88,1.11-2.89,1.54-.03.01-.06.02-.11.04,0,0,0,0,0,0h0s0,0,0,0c0,0,0,0-.01,0,0,0,0,0,0,0-.21.3-.43.6-.66.92-.03.04-.06.08-.09.13-.22.3-.45.61-.68.93-.04.05-.08.11-.12.17-.24.32-.49.65-.74.98-.04.05-.08.1-.11.15-.27.35-.55.72-.84,1.09.88.17,1.72-.02,2.56-.26,2.06-.59,3.91-1.58,5.55-2.96.84-.71,1.59-1.49,2.16-2.44.55-.92.85-1.91.74-3.01h0c-.04-.42-.19-.8-.34-1.19-.47-1.25-1.39-2.08-2.53-2.71-.04-.02-.08-.04-.13-.07-.02.05-.04.11-.06.17"/>
    </clipPath>
    <linearGradient id="linear-gradient-10" x1="-7.16" y1="-2.36" x2="-7.11" y2="-2.36" gradientTransform="translate(1600.39 -480.7) scale(211.79 -211.79)" gradientUnits="userSpaceOnUse">
      <stop offset="0" stop-color="#cd4e27"/>
      <stop offset="1" stop-color="#ff7f00"/>
    </linearGradient>
    <clipPath id="clippath-13">
      <path class="cls-1" d="M85.15,5.82c4.57-.35,4.22,2.05,3.9,3.51-.04.2-.1.41-.16.62-.09.28-.19.56-.32.85,0,0,0,0,0,0,0,.02-.02.03-.02.05-.06.12-.12.25-.18.37,0,.01-.01.03-.02.04-.07.14-.15.27-.23.41-.02.04-.04.07-.07.1-.07.1-.14.21-.21.31-.03.04-.05.08-.08.12-.1.14-.2.27-.31.41l-2.14,2.83c-.34.42-.67.85-1.01,1.27-.68.86-1.34,1.75-1.99,2.64-.11.15-.21.3-.31.46-.14.23-2.26,3.84,1.33,4.55,0,0,1.22.43,4.03-.75-3.67.15-.96-3.31-.75-3.6,1.92-2.72,3.1-4.72,3.82-6.14.06-.11.11-.22.16-.32,0-.02.01-.03.02-.04.04-.09.08-.17.12-.26.01-.03.03-.06.04-.09.03-.07.06-.13.09-.2.01-.03.03-.06.04-.09.03-.07.06-.14.09-.21,0-.02.01-.03.02-.05.04-.08.07-.16.1-.23,0-.02.01-.04.02-.05.02-.06.04-.11.06-.16,0-.02.02-.04.03-.07.02-.05.04-.09.05-.14,0-.02.01-.04.02-.05.02-.06.04-.12.06-.17,0,0,0,0,0,0,.09-.34.19-.68.28-1.01.21-.82.24-1.66.06-2.49-.14-.63-.46-1.17-.95-1.6-.38-.34-1.38-1.08-3.37-1.08-.64,0-1.38.08-2.23.27"/>
    </clipPath>
    <linearGradient id="linear-gradient-11" x1=".86" y1="11.66" x2=".91" y2="11.66" gradientTransform="translate(1752.86 -113.67) rotate(90) scale(143.03)" xlink:href="#linear-gradient-10"/>
    <clipPath id="clippath-14">
      <path class="cls-1" d="M88.35,11.26s.01-.03.02-.04c0,.01-.01.03-.02.04"/>
    </clipPath>
    <linearGradient id="linear-gradient-12" x1="8.93" y1="-10.43" x2="8.98" y2="-10.43" gradientTransform="translate(1389.35 1123.42) rotate(-90) scale(124.71)" xlink:href="#linear-gradient-2"/>
    <clipPath id="clippath-15">
      <path class="cls-1" d="M88.35,11.26s.01-.03.02-.04c0,.01-.01.03-.02.04"/>
    </clipPath>
    <linearGradient id="linear-gradient-13" x1=".82" y1="13.47" x2=".87" y2="13.47" gradientTransform="translate(1812.22 -96.66) rotate(90) scale(127.96)" xlink:href="#linear-gradient-2"/>
    <clipPath id="clippath-16">
      <path class="cls-1" d="M88.05,11.77s.04-.07.07-.1c-.02.04-.04.07-.07.1"/>
    </clipPath>
    <linearGradient id="linear-gradient-14" x1="6.45" y1="-7.48" x2="6.5" y2="-7.48" gradientTransform="translate(1378.93 1123.95) rotate(-90) scale(172.65)" xlink:href="#linear-gradient-2"/>
    <clipPath id="clippath-17">
      <path class="cls-1" d="M88.05,11.77s.04-.07.07-.1c-.02.04-.04.07-.07.1"/>
    </clipPath>
    <linearGradient id="linear-gradient-15" x1=".82" y1="13.41" x2=".87" y2="13.41" gradientTransform="translate(1804.28 -96.58) rotate(90) scale(127.96)" xlink:href="#linear-gradient-2"/>
    <clipPath id="clippath-18">
      <path class="cls-1" d="M88.55,10.84s0,0,0,0c0,0,0,0,0,0M88.55,10.84s.01-.03.02-.04h0s0,0,0,0c0,.01-.01.03-.02.04"/>
    </clipPath>
    <linearGradient id="linear-gradient-16" x1="6.45" y1="-7.58" x2="6.5" y2="-7.58" gradientTransform="translate(1397.89 1123.13) rotate(-90) scale(172.65)" xlink:href="#linear-gradient-2"/>
    <clipPath id="clippath-19">
      <path class="cls-1" d="M88.55,10.84s0,0,0,0c0,0,0,0,0,0M88.55,10.84s.01-.03.02-.04h0s0,0,0,0c0,.01-.01.03-.02.04"/>
    </clipPath>
    <linearGradient id="linear-gradient-17" x1=".82" y1="13.52" x2=".88" y2="13.52" gradientTransform="translate(1818.41 -96.86) rotate(90) scale(127.96)" xlink:href="#linear-gradient-2"/>
    <clipPath id="clippath-20">
      <path class="cls-1" d="M87.76,12.2s.05-.08.08-.12c-.03.04-.05.08-.08.12"/>
    </clipPath>
    <linearGradient id="linear-gradient-18" x1="6.45" y1="-7.42" x2="6.5" y2="-7.42" gradientTransform="translate(1369.39 1124.44) rotate(-90) scale(172.65)" xlink:href="#linear-gradient-2"/>
    <clipPath id="clippath-21">
      <path class="cls-1" d="M87.76,12.2s.05-.08.08-.12c-.03.04-.05.08-.08.12"/>
    </clipPath>
    <linearGradient id="linear-gradient-19" x1=".82" y1="13.35" x2=".87" y2="13.35" gradientTransform="translate(1796.57 -96.44) rotate(90) scale(127.97)" xlink:href="#linear-gradient-2"/>
    <clipPath id="clippath-22">
      <path class="cls-1" d="M83.35,24.37c.17-.22.34-.44.5-.65-.16.21-.33.43-.5.65M83.86,23.72c.11-.15.23-.29.34-.44-.11.15-.22.29-.34.44"/>
    </clipPath>
    <linearGradient id="linear-gradient-20" x1="-6.03" y1="23.89" x2="-5.98" y2="23.89" gradientTransform="translate(1592.93 400.92) rotate(90) scale(63.16)" xlink:href="#linear-gradient-2"/>
    <clipPath id="clippath-23">
      <path class="cls-1" d="M83.35,24.37c.17-.22.34-.44.5-.65-.16.21-.33.43-.5.65M83.86,23.72c.11-.15.23-.29.34-.44-.11.15-.22.29-.34.44"/>
    </clipPath>
    <linearGradient id="linear-gradient-21" x1=".82" y1="12.26" x2=".87" y2="12.26" gradientTransform="translate(1653.09 -94.47) rotate(90) scale(127.96)" xlink:href="#linear-gradient-2"/>
    <clipPath id="clippath-24">
      <path class="cls-1" d="M90.91,12.88c.03-.07.06-.14.09-.21-.03.07-.06.14-.09.21"/>
    </clipPath>
    <linearGradient id="linear-gradient-22" x1="-6.03" y1="27.31" x2="-5.98" y2="27.31" gradientTransform="translate(1816 395.6) rotate(90) scale(63.16)" xlink:href="#linear-gradient-2"/>
    <clipPath id="clippath-25">
      <path class="cls-1" d="M90.91,12.88c.03-.07.06-.14.09-.21-.03.07-.06.14-.09.21"/>
    </clipPath>
    <linearGradient id="linear-gradient-23" x1=".82" y1="13.75" x2=".87" y2="13.75" gradientTransform="translate(1850.2 -97.47) rotate(90) scale(127.96)" xlink:href="#linear-gradient-2"/>
    <clipPath id="clippath-26">
      <path class="cls-1" d="M90.78,13.16c.03-.07.06-.13.09-.2-.03.06-.06.13-.09.2"/>
    </clipPath>
    <linearGradient id="linear-gradient-24" x1="-6.04" y1="27.24" x2="-5.98" y2="27.24" gradientTransform="translate(1811.08 396.03) rotate(90) scale(63.15)" xlink:href="#linear-gradient-2"/>
    <clipPath id="clippath-27">
      <path class="cls-1" d="M90.78,13.16c.03-.07.06-.13.09-.2-.03.06-.06.13-.09.2"/>
    </clipPath>
    <linearGradient id="linear-gradient-25" x1=".82" y1="13.72" x2=".87" y2="13.72" gradientTransform="translate(1846.12 -97.43) rotate(90) scale(127.96)" xlink:href="#linear-gradient-2"/>
    <clipPath id="clippath-28">
      <path class="cls-1" d="M84.31,23.14c.26-.34.5-.66.74-.98-.24.32-.49.65-.74.98"/>
    </clipPath>
    <linearGradient id="linear-gradient-26" x1="-6.03" y1="24.29" x2="-5.98" y2="24.29" gradientTransform="translate(1619.09 400.28) rotate(90) scale(63.16)" xlink:href="#linear-gradient-2"/>
    <clipPath id="clippath-29">
      <path class="cls-1" d="M84.31,23.14c.26-.34.5-.66.74-.98-.24.32-.49.65-.74.98"/>
    </clipPath>
    <linearGradient id="linear-gradient-27" x1=".82" y1="12.44" x2=".87" y2="12.44" gradientTransform="translate(1676.7 -94.84) rotate(90) scale(127.96)" xlink:href="#linear-gradient-2"/>
    <clipPath id="clippath-30">
      <path class="cls-1" d="M85.18,21.99c.24-.32.46-.63.68-.93-.22.3-.45.61-.68.93"/>
    </clipPath>
    <linearGradient id="linear-gradient-28" x1="-6.03" y1="24.67" x2="-5.98" y2="24.67" gradientTransform="translate(1643.46 399.9) rotate(90) scale(63.16)" xlink:href="#linear-gradient-2"/>
    <clipPath id="clippath-31">
      <path class="cls-1" d="M85.18,21.99c.24-.32.46-.63.68-.93-.22.3-.45.61-.68.93"/>
    </clipPath>
    <linearGradient id="linear-gradient-29" x1=".82" y1="12.61" x2=".87" y2="12.61" gradientTransform="translate(1698.66 -95.18) rotate(90) scale(127.96)" xlink:href="#linear-gradient-2"/>
    <clipPath id="clippath-32">
      <path class="cls-1" d="M85.95,20.93c.23-.31.45-.62.66-.92-.21.3-.43.6-.66.92"/>
    </clipPath>
    <linearGradient id="linear-gradient-30" x1="-6.03" y1="25.01" x2="-5.98" y2="25.01" gradientTransform="translate(1666.02 399.15) rotate(90) scale(63.16)" xlink:href="#linear-gradient-2"/>
    <clipPath id="clippath-33">
      <path class="cls-1" d="M85.95,20.93c.23-.31.45-.62.66-.92-.21.3-.43.6-.66.92"/>
    </clipPath>
    <linearGradient id="linear-gradient-31" x1=".82" y1="12.76" x2=".87" y2="12.76" gradientTransform="translate(1718.83 -95.48) rotate(90) scale(127.96)" xlink:href="#linear-gradient-2"/>
    <clipPath id="clippath-34">
      <path class="cls-1" d="M90.43,13.88c.06-.11.11-.22.16-.32-.05.1-.11.21-.16.32"/>
    </clipPath>
    <linearGradient id="linear-gradient-32" x1="-6.03" y1="27.07" x2="-5.98" y2="27.07" gradientTransform="translate(1799.75 396.05) rotate(90) scale(63.15)" xlink:href="#linear-gradient-2"/>
    <clipPath id="clippath-35">
      <path class="cls-1" d="M90.43,13.88c.06-.11.11-.22.16-.32-.05.1-.11.21-.16.32"/>
    </clipPath>
    <linearGradient id="linear-gradient-33" x1=".82" y1="13.64" x2=".87" y2="13.64" gradientTransform="translate(1836.45 -97.25) rotate(90) scale(127.96)" xlink:href="#linear-gradient-2"/>
    <clipPath id="clippath-36">
      <path class="cls-1" d="M90.62,13.51c.04-.09.08-.17.12-.26-.04.08-.08.17-.12.26"/>
    </clipPath>
    <linearGradient id="linear-gradient-34" x1="-6.03" y1="27.15" x2="-5.98" y2="27.15" gradientTransform="translate(1805.65 395.84) rotate(90) scale(63.16)" xlink:href="#linear-gradient-2"/>
    <clipPath id="clippath-37">
      <path class="cls-1" d="M90.62,13.51c.04-.09.08-.17.12-.26-.04.08-.08.17-.12.26"/>
    </clipPath>
    <linearGradient id="linear-gradient-35" x1=".82" y1="13.68" x2=".87" y2="13.68" gradientTransform="translate(1841.46 -97.36) rotate(90) scale(127.97)" xlink:href="#linear-gradient-2"/>
  </defs>
  <g class="cls-75">
    <g class="cls-40">
      <path class="cls-2" d="M40.05,23.75c0,.16-.03.26-.16.31-.7.26-1.36.37-2.22.37-2.14,0-3.42-1.04-3.42-3.63v-6.86h-1.64c-.13-.03-.18-.08-.18-.23v-2.19c0-.16.05-.21.21-.21h1.64c.03-.91.13-2.56.26-3.21.03-.13.08-.21.21-.23l2.64-.37c.13-.03.18,0,.18.13-.08.86-.13,2.4-.13,3.68h2.53c.13,0,.18.05.18.18v2.27c0,.13-.05.18-.18.18h-2.56v6.19c0,1.15.37,1.7,1.49,1.7.34,0,.63-.03.99-.1.08-.03.16,0,.16.16v1.88Z"/>
      <path class="cls-2" d="M42.16,7.75c0-1.07.76-1.8,1.8-1.8,1.12,0,1.77.76,1.77,1.8s-.7,1.8-1.8,1.8-1.77-.73-1.77-1.8M42.34,11.49c0-.13.08-.18.21-.18h2.77c.16,0,.21.03.21.18v12.48c0,.16-.05.21-.23.21h-2.69c-.18,0-.26-.08-.26-.23v-12.45Z"/>
      <path class="cls-2" d="M57.77,23.81c0,.13-.03.18-.13.21-.84.34-1.88.42-2.9.42-4.23,0-6.73-2.9-6.73-6.66s2.87-6.73,7.18-6.73c1.31,0,2.01.13,2.45.29.1.05.13.13.13.29l-.03,2.32c0,.18-.1.18-.21.16-.55-.21-1.23-.34-2.24-.34-2.38,0-4.05,1.41-4.05,3.92,0,2.84,2.06,3.94,4.07,3.94.94,0,1.75-.08,2.27-.26.13-.05.18.03.18.13v2.32Z"/>
      <path class="cls-2" d="M70.98,21.3c0,1.36.1,2.14.16,2.69.03.13-.05.18-.21.18h-2.4c-.18,0-.23-.05-.26-.16-.08-.26-.16-.65-.18-.91-1.12,1.04-2.45,1.33-3.63,1.33-2.48,0-4.38-1.33-4.38-4.99v-7.96c0-.16.05-.18.21-.18h2.74c.16,0,.18.05.18.18v7.6c0,1.62.7,2.61,2.27,2.61.99,0,1.72-.34,2.38-.94v-9.27c0-.13.05-.18.21-.18h2.74c.16,0,.18.05.18.18v9.81Z"/>
      <path class="cls-2" d="M74.29,5.8c0-.13.08-.21.23-.21h2.69c.16,0,.23.08.23.21v14.98c0,.81.29,1.07.91,1.07.21,0,.26,0,.5-.03.08-.03.1.03.1.16v1.96c0,.18-.03.21-.16.29-.29.13-.76.21-1.49.21-1.67,0-3.03-.63-3.03-3.37V5.8Z"/>
      <path class="cls-2" d="M21.23,23.94L15.2,7.18c-.03-.13-.05-.16-.18-.16h-3.63c-.1,0-.16.08-.16.18-.05.89-.13,1.15-.24,1.41l-5.38,15.3c-.03.18.03.26.18.26h2.61c.15,0,.22-.05.27-.18h0c1.34-2.32,1.91-3.05,3.7-4.09,1.33-.78,2.6-1.2,3.64-1.42l.35,1.18,1.51,4.36c.05.1.13.16.26.16h2.92c.16,0,.18-.08.16-.23M11.07,17.65c-.14.08-.28.17-.41.25l.32-1.09c.78-2.38,1.83-5.43,2.24-7.18h.03c.45,1.57,1.41,4.45,2.02,6.33-1.22.28-2.68.79-4.2,1.68"/>
      <path class="cls-2" d="M30.33,11.16s-.02,0-.03,0c-1.56-.04-2.89.12-4.61,1.07-2.75,1.53-2.56,4.83-2.56,4.83v6.9c0,.13.05.21.23.21h2.71c.16,0,.23-.05.23-.21v-6.3c0-3.29,2.56-3.54,3.99-3.49.18,0,.24-.05.24-.18v-2.65c0-.16-.05-.18-.21-.18"/>
      <path class="cls-2" d="M21.23,23.94L15.2,7.18c-.03-.13-.05-.16-.18-.16h-3.63c-.1,0-.16.08-.16.18-.05.89-.13,1.15-.24,1.41l-5.38,15.3c-.03.18.03.26.18.26h2.61c.15,0,.22-.05.27-.18h0c1.34-2.32,1.91-3.05,3.7-4.09,1.33-.78,2.6-1.2,3.64-1.42l.35,1.18,1.51,4.36c.05.1.13.16.26.16h2.92c.16,0,.18-.08.16-.23M11.07,17.65c-.14.08-.28.17-.41.25l.32-1.09c.78-2.38,1.83-5.43,2.24-7.18h.03c.45,1.57,1.41,4.45,2.02,6.33-1.22.28-2.68.79-4.2,1.68"/>
    </g>
    <g class="cls-43">
      <path class="cls-2" d="M21.23,23.94L15.2,7.18c-.03-.13-.05-.16-.18-.16h-3.63c-.1,0-.16.08-.16.18-.05.89-.13,1.15-.24,1.41l-5.38,15.3c-.03.18.03.26.18.26h2.61c.15,0,.22-.05.27-.18h0c1.34-2.32,1.91-3.05,3.7-4.09,1.33-.78,2.6-1.2,3.64-1.42l.35,1.18,1.51,4.36c.05.1.13.16.26.16h2.92c.16,0,.18-.08.16-.23M11.07,17.65c-.14.08-.28.17-.41.25l.32-1.09c.78-2.38,1.83-5.43,2.24-7.18h.03c.45,1.57,1.41,4.45,2.02,6.33-1.22.28-2.68.79-4.2,1.68"/>
    </g>
    <g class="cls-41">
      <rect class="cls-11" x="81.02" y="5.56" width="8.35" height="7.05"/>
    </g>
    <g class="cls-42">
      <rect class="cls-10" x="90.97" y="12.38" width=".21" height=".25" transform="translate(6.64 48.87) rotate(-31.12)"/>
    </g>
    <g class="cls-48">
      <rect class="cls-9" x="90.99" y="12.38" width=".17" height=".25" transform="translate(.99 30.83) rotate(-19.31)"/>
    </g>
    <g class="cls-45">
      <rect class="cls-8" x="91.27" y="11.74" width=".14" height=".18" transform="translate(7.03 48.9) rotate(-31.11)"/>
    </g>
    <g class="cls-44">
      <rect class="cls-5" x="91.28" y="11.74" width=".11" height=".18" transform="translate(1.23 30.88) rotate(-19.31)"/>
    </g>
    <g class="cls-47">
      <rect class="cls-6" x="91.2" y="11.96" width=".12" height=".15" transform="translate(6.91 48.89) rotate(-31.11)"/>
    </g>
    <g class="cls-46">
      <rect class="cls-4" x="91.21" y="11.96" width=".09" height=".15" transform="translate(1.16 30.86) rotate(-19.31)"/>
    </g>
    <g class="cls-17">
      <rect class="cls-3" x="91.11" y="12.17" width=".14" height=".17" transform="translate(6.79 48.88) rotate(-31.11)"/>
    </g>
    <g class="cls-14">
      <rect class="cls-7" x="91.12" y="12.17" width=".11" height=".17" transform="translate(1.08 30.85) rotate(-19.32)"/>
    </g>
    <g class="cls-21">
      <rect class="cls-49" x="83.35" y="11.74" width="11.12" height="12.79"/>
    </g>
    <g class="cls-19">
      <rect class="cls-50" x="76.89" y="4.01" width="17.84" height="22.25" transform="translate(-.18 29.23) rotate(-19.31)"/>
    </g>
    <g class="cls-20">
      <rect class="cls-51" x="88.34" y="11.22" width=".04" height=".04" transform="translate(37.24 84.18) rotate(-62.23)"/>
    </g>
    <g class="cls-18">
      <rect class="cls-52" x="88.34" y="11.22" width=".03" height=".04" transform="translate(1.26 29.86) rotate(-19.32)"/>
    </g>
    <g class="cls-15">
      <rect class="cls-54" x="88.02" y="11.67" width=".12" height=".11" transform="translate(36.67 84.2) rotate(-62.23)"/>
    </g>
    <g class="cls-12">
      <rect class="cls-65" x="88.03" y="11.66" width=".1" height=".12" transform="translate(1.08 29.79) rotate(-19.31)"/>
    </g>
    <g class="cls-16">
      <rect class="cls-66" x="88.54" y="10.8" width=".05" height=".04" transform="translate(37.73 84.14) rotate(-62.23)"/>
    </g>
    <g class="cls-13">
      <rect class="cls-67" x="88.54" y="10.79" width=".04" height=".05" transform="translate(1.4 29.9) rotate(-19.31)"/>
    </g>
    <g class="cls-34">
      <rect class="cls-68" x="87.73" y="12.08" width=".14" height=".13" transform="translate(36.14 84.17) rotate(-62.23)"/>
    </g>
    <g class="cls-35">
      <rect class="cls-53" x="87.74" y="12.08" width=".12" height=".14" transform="translate(.92 29.72) rotate(-19.32)"/>
    </g>
    <g class="cls-36">
      <rect class="cls-56" x="83.13" y="23.14" width="1.28" height="1.37" transform="translate(-.26 46.71) rotate(-31.11)"/>
    </g>
    <g class="cls-37">
      <rect class="cls-55" x="83.2" y="23.18" width="1.16" height="1.31" transform="translate(-3.17 29.05) rotate(-19.31)"/>
    </g>
    <g class="cls-38">
      <rect class="cls-57" x="90.87" y="12.66" width=".19" height=".23" transform="translate(6.48 48.84) rotate(-31.11)"/>
    </g>
    <g class="cls-39">
      <rect class="cls-58" x="90.88" y="12.66" width=".16" height=".23" transform="translate(.89 30.8) rotate(-19.31)"/>
    </g>
    <g class="cls-32">
      <rect class="cls-72" x="90.74" y="12.96" width=".18" height=".21" transform="translate(6.32 48.83) rotate(-31.12)"/>
    </g>
    <g class="cls-30">
      <rect class="cls-60" x="90.75" y="12.96" width=".15" height=".21" transform="translate(.79 30.78) rotate(-19.31)"/>
    </g>
    <g class="cls-33">
      <rect class="cls-73" x="84.11" y="22.03" width="1.14" height="1.23" transform="translate(.48 47.01) rotate(-31.11)"/>
    </g>
    <g class="cls-31">
      <rect class="cls-71" x="84.17" y="22.06" width="1.03" height="1.17" transform="translate(-2.72 29.28) rotate(-19.31)"/>
    </g>
    <g class="cls-27">
      <rect class="cls-59" x="84.99" y="20.95" width="1.07" height="1.15" transform="translate(1.18 47.3) rotate(-31.12)"/>
    </g>
    <g class="cls-22">
      <rect class="cls-74" x="85.04" y="20.97" width=".95" height="1.1" transform="translate(-2.31 29.5) rotate(-19.31)"/>
    </g>
    <g class="cls-23">
      <rect class="cls-64" x="85.76" y="19.91" width="1.03" height="1.12" transform="translate(1.83 47.53) rotate(-31.11)"/>
    </g>
    <g class="cls-24">
      <rect class="cls-62" x="85.82" y="19.93" width=".92" height="1.08" transform="translate(-1.92 29.69) rotate(-19.31)"/>
    </g>
    <g class="cls-25">
      <rect class="cls-61" x="90.36" y="13.54" width=".31" height=".36" transform="translate(5.93 48.74) rotate(-31.11)"/>
    </g>
    <g class="cls-26">
      <rect class="cls-63" x="90.38" y="13.54" width=".26" height=".36" transform="translate(.56 30.71) rotate(-19.31)"/>
    </g>
    <g class="cls-28">
      <rect class="cls-70" x="90.56" y="13.24" width=".24" height=".28" transform="translate(6.13 48.78) rotate(-31.11)"/>
    </g>
    <g class="cls-29">
      <rect class="cls-69" x="90.58" y="13.24" width=".2" height=".28" transform="translate(.68 30.74) rotate(-19.31)"/>
    </g>
  </g>
</svg>