<svg width="473" height="628" viewBox="0 0 473 628" fill="none" xmlns="http://www.w3.org/2000/svg">
<mask id="mask0_1_53" style="mask-type:alpha" maskUnits="userSpaceOnUse" x="0" y="0" width="473" height="628">
<rect width="473" height="628" fill="#D9D9D9"/>
</mask>
<g mask="url(#mask0_1_53)">
<path d="M83.3679 406.945L46.3442 390.866L83.3679 374.787L120.514 390.866L83.3679 406.945Z" fill="#E5EFFF"/>
<path d="M83.3679 406.945V502.38L46.3442 486.301V390.866L83.3679 406.945Z" fill="#112FFF"/>
<path d="M83.3679 502.38V406.945L120.514 390.866V486.82L83.3679 502.38Z" fill="#000D36"/>
<path d="M269.051 52.8792L232.028 36.8005L269.051 20.7217L306.198 36.8005L269.051 52.8792Z" fill="#E5EFFF"/>
<path d="M269.051 52.8791V148.314L232.028 132.235V36.8004L269.051 52.8791Z" fill="#112FFF"/>
<path d="M269.051 148.314V52.8791L306.198 36.8004V132.754L269.051 148.314Z" fill="#000D36"/>
<path d="M342.183 274.87L305.16 258.791L342.183 242.712L379.33 258.791L342.183 274.87Z" fill="#E5EFFF"/>
<path d="M342.183 274.87V446.031L305.16 429.952V258.791L342.183 274.87Z" fill="#112FFF"/>
<path d="M342.183 446.031V274.87L379.33 258.791V430.471L342.183 446.031Z" fill="#000D36"/>
<path d="M378.49 290.633L341.467 274.554L378.49 258.475L415.637 274.554L378.49 290.633Z" fill="#E5EFFF"/>
<path d="M378.49 290.633V368.433L341.467 352.355V274.554L378.49 290.633Z" fill="#112FFF"/>
<path d="M378.49 368.433V290.633L415.637 274.554V352.873L378.49 368.433Z" fill="#000D36"/>
<path d="M268.532 433.583L231.509 417.504L268.532 401.425L305.679 417.504L268.532 433.583Z" fill="#E5EFFF"/>
<path d="M268.532 433.583V687.731L231.509 671.652V417.504L268.532 433.583Z" fill="#112FFF"/>
<path d="M268.532 687.731V433.583L305.679 417.504V672.171L268.532 687.731Z" fill="#000D36"/>
<path d="M342.183 511.383L305.16 495.304L342.183 479.226L379.33 495.304L342.183 511.383Z" fill="#E5EFFF"/>
<path d="M342.183 511.383V765.531L305.16 749.453V495.304L342.183 511.383Z" fill="#112FFF"/>
<path d="M342.183 765.531V511.383L379.33 495.304V749.971L342.183 765.531Z" fill="#000D36"/>
<path d="M416.353 404.782L379.33 388.703L416.353 372.624L453.5 388.703L416.353 404.782Z" fill="#FFD7F6"/>
<path d="M416.353 404.782V658.93L379.33 642.851V388.703L416.353 404.782Z" fill="#FA05C3"/>
<path d="M416.353 658.93V404.782L453.5 388.703V643.37L416.353 658.93Z" fill="#000D36"/>
<path d="M268.532 202.256L231.509 186.177L268.532 170.099L305.679 186.177L268.532 202.256Z" fill="#E5EFFF"/>
<path d="M268.532 202.256V414.911L231.509 398.832V186.177L268.532 202.256Z" fill="#112FFF"/>
<path d="M268.532 414.911V202.256L305.679 186.177V399.351L268.532 414.911Z" fill="#000D36"/>
<path d="M157.277 177.368L119.995 160.866L157.277 144.364L194.684 160.866L157.277 177.368Z" fill="#FFD4B7"/>
<path d="M157.277 177.368V225.277L119.995 208.775V160.866L157.277 177.368Z" fill="#FF7F00"/>
<path d="M157.277 225.277V177.368L194.684 160.866V209.308L157.277 225.277Z" fill="#000D36"/>
<path d="M157.277 44.6598L119.995 28.1579L157.277 11.656L194.684 28.1579L157.277 44.6598Z" fill="#E5EFFF"/>
<path d="M157.277 44.6597V92.5684L119.995 76.0665V28.1578L157.277 44.6597Z" fill="#FA05C3"/>
<path d="M157.277 92.5684V44.6597L194.684 28.1578V76.5989L157.277 92.5684Z" fill="#000D36"/>
<path d="M342.183 151.439L304.901 134.937L342.183 118.435L379.59 134.937L342.183 151.439Z" fill="#FFD7F6"/>
<path d="M342.183 151.439V199.347L304.901 182.845V134.937L342.183 151.439Z" fill="#FA05C3"/>
<path d="M342.183 199.347V151.439L379.59 134.937V183.377L342.183 199.347Z" fill="#000D36"/>
<path d="M46.283 470.032L9 453.53L46.283 437.028L83.6885 453.53L46.283 470.032Z" fill="#E5EFFF"/>
<path d="M46.283 470.032V517.94L9 501.438V453.53L46.283 470.032Z" fill="#FF7F00"/>
<path d="M46.283 517.94V470.032L83.6884 453.53V501.971L46.283 517.94Z" fill="#000D36"/>
<path d="M231.447 331.733L194.165 315.231L231.447 298.729L268.854 315.231L231.447 331.733Z" fill="#FFD4B7"/>
<path d="M231.447 331.732V379.641L194.165 363.139V315.23L231.447 331.732Z" fill="#FF7F00"/>
<path d="M231.447 379.641V331.732L268.854 315.23V363.671L231.447 379.641Z" fill="#000D36"/>
<path d="M157.018 471.26L119.995 455.181L157.018 439.102L194.165 455.181L157.018 471.26Z" fill="#FFD7F6"/>
<path d="M157.018 471.26V550.097L119.995 534.019V455.181L157.018 471.26Z" fill="#FA05C3"/>
<path d="M157.018 550.097V471.26L194.165 455.181V534.537L157.018 550.097Z" fill="#000D36"/>
<path d="M157.277 289.725L120.255 273.647L157.277 257.568L194.424 273.647L157.277 289.725Z" fill="#E5EFFF"/>
<path d="M157.277 289.725V460.886L120.255 444.808V273.647L157.277 289.725Z" fill="#112FFF"/>
<path d="M157.277 460.886V289.725L194.424 273.647V445.326L157.277 460.886Z" fill="#000D36"/>
</g>
</svg>
