<svg width="473" height="628" viewBox="0 0 473 628" fill="none" xmlns="http://www.w3.org/2000/svg">
<g clip-path="url(#clip0_9_419)">
<path d="M83.2843 408.37L46.3022 392.309L83.2843 376.248L120.389 392.309L83.2843 408.37Z" fill="#9CC2FF"/>
<path d="M83.2843 408.37V503.698L46.3022 487.637V392.309L83.2843 408.37Z" fill="#4D80FF"/>
<path d="M83.2843 503.698V408.37L120.389 392.309V488.155L83.2843 503.698Z" fill="#112FFF"/>
<path d="M268.759 54.702L231.777 38.6414L268.759 22.5807L305.863 38.6414L268.759 54.702Z" fill="#9CC2FF"/>
<path d="M268.759 54.702V150.03L231.777 133.969V38.6414L268.759 54.702Z" fill="#4D80FF"/>
<path d="M268.759 150.03V54.702L305.863 38.6414V134.487L268.759 150.03Z" fill="#112FFF"/>
<path d="M341.809 276.443L304.827 260.382L341.809 244.322L378.914 260.382L341.809 276.443Z" fill="#9CC2FF"/>
<path d="M341.809 276.443V447.411L304.827 431.351V260.382L341.809 276.443Z" fill="#4D80FF"/>
<path d="M341.809 447.411V276.443L378.914 260.382V431.869L341.809 447.411Z" fill="#112FFF"/>
<path d="M378.075 292.189L341.093 276.128L378.075 260.068L415.18 276.128L378.075 292.189Z" fill="#9CC2FF"/>
<path d="M378.075 292.189V369.902L341.093 353.841V276.128L378.075 292.189Z" fill="#4D80FF"/>
<path d="M378.075 369.902V292.189L415.18 276.128V354.359L378.075 369.902Z" fill="#112FFF"/>
<path d="M268.241 434.977L231.259 418.917L268.241 402.856L305.345 418.917L268.241 434.977Z" fill="#9CC2FF"/>
<path d="M268.241 434.977V688.84L231.259 672.779V418.917L268.241 434.977Z" fill="#4D80FF"/>
<path d="M268.241 688.84V434.977L305.345 418.917V673.297L268.241 688.84Z" fill="#112FFF"/>
<path d="M341.809 512.69L304.827 496.63L341.809 480.569L378.914 496.63L341.809 512.69Z" fill="#9CC2FF"/>
<path d="M341.809 512.69V766.553L304.827 750.492V496.63L341.809 512.69Z" fill="#4D80FF"/>
<path d="M341.809 766.553V512.69L378.914 496.63V751.01L341.809 766.553Z" fill="#112FFF"/>
<path d="M415.896 406.209L378.914 390.149L415.896 374.088L453 390.149L415.896 406.209Z" fill="#FFD7F6"/>
<path d="M415.896 406.209V660.072L378.914 644.011V390.149L415.896 406.209Z" fill="#FF3BD3"/>
<path d="M415.896 660.072V406.209L453 390.149V644.529L415.896 660.072Z" fill="#112FFF"/>
<path d="M268.241 203.911L231.259 187.85L268.241 171.79L305.345 187.85L268.241 203.911Z" fill="#9CC2FF"/>
<path d="M268.241 203.911V416.326L231.259 400.266V187.85L268.241 203.911Z" fill="#4D80FF"/>
<path d="M268.241 416.326V203.911L305.345 187.85V400.784L268.241 416.326Z" fill="#112FFF"/>
<path d="M157.111 179.051L119.87 162.568L157.111 146.084L194.475 162.568L157.111 179.051Z" fill="#FFD4B7"/>
<path d="M157.111 179.051V226.906L119.87 210.422V162.568L157.111 179.051Z" fill="#FF7F00"/>
<path d="M157.111 226.906V179.051L194.475 162.568V210.954L157.111 226.906Z" fill="#112FFF"/>
<path d="M157.111 46.4919L119.87 30.0086L157.111 13.5252L194.475 30.0086L157.111 46.4919Z" fill="#9CC2FF"/>
<path d="M157.111 46.4919V94.3467L119.87 77.8634V30.0086L157.111 46.4919Z" fill="#4D80FF"/>
<path d="M157.111 94.3467V46.4919L194.475 30.0086V78.3951L157.111 94.3467Z" fill="#112FFF"/>
<path d="M341.809 153.151L304.568 136.667L341.809 120.184L379.173 136.667L341.809 153.151Z" fill="#FFD7F6"/>
<path d="M341.809 153.151V201.005L304.568 184.522V136.667L341.809 153.151Z" fill="#FF3BD3"/>
<path d="M341.809 201.005V153.151L379.173 136.667V185.054L341.809 201.005Z" fill="#112FFF"/>
<path d="M46.2408 471.385L9.00006 454.902L46.2408 438.419L83.6045 454.902L46.2408 471.385Z" fill="#9CC2FF"/>
<path d="M46.2408 471.385V519.24L9.00006 502.757V454.902L46.2408 471.385Z" fill="#4D80FF"/>
<path d="M46.2408 519.24V471.385L83.6045 454.902V503.289L46.2408 519.24Z" fill="#112FFF"/>
<path d="M231.198 333.242L193.957 316.758L231.198 300.275L268.561 316.758L231.198 333.242Z" fill="#FFD4B7"/>
<path d="M231.198 333.242V381.096L193.957 364.613V316.758L231.198 333.242Z" fill="#FF7F00"/>
<path d="M231.198 381.096V333.242L268.561 316.758V365.145L231.198 381.096Z" fill="#112FFF"/>
<path d="M156.853 472.612L119.87 456.552L156.853 440.491L193.957 456.552L156.853 472.612Z" fill="#FFD7F6"/>
<path d="M156.853 472.612V551.362L119.87 535.301V456.552L156.853 472.612Z" fill="#FF3BD3"/>
<path d="M156.853 551.362V472.612L193.957 456.552V535.819L156.853 551.362Z" fill="#112FFF"/>
<path d="M157.112 291.282L120.129 275.222L157.112 259.161L194.216 275.222L157.112 291.282Z" fill="#9CC2FF"/>
<path d="M157.112 291.282V462.251L120.129 446.19V275.222L157.112 291.282Z" fill="#4D80FF"/>
<path d="M157.112 462.251V291.282L194.216 275.222V446.708L157.112 462.251Z" fill="#112FFF"/>
</g>
<defs>
<clipPath id="clip0_9_419">
<rect width="473" height="628" fill="white"/>
</clipPath>
</defs>
</svg>
