<svg width="1402" height="665" viewBox="0 0 1402 665" fill="none" xmlns="http://www.w3.org/2000/svg">
<path d="M1213.68 664.429H1401.06L1220.68 489.878L1147.15 423.832L1090.88 386.581L1076.41 377.001L1030.95 332.148L982.869 345.291L986.604 363.597L1056.18 434.276L1056.83 445.754L1039.39 456.612L982.32 467.632L893.156 446.645L843.674 413.892L825.89 402.665L797.54 410.842L797 422.528L870.215 488.727L950.91 523.567L967.038 537.843L1121.82 567.591L1143.37 576.146L1160.28 588.326L1213.68 664.429Z" fill="white"/>
<path d="M1039.39 456.611L1003.46 446.662L979.699 428.275L954.454 359.423L940.117 347.09L926.527 351.147L938.002 419.145L926.248 407.487L889.969 329.405L864.238 330.358L864.364 337.06L883.462 400.479L851.989 347.927L824.656 338.688L816.502 349.555L843.673 413.891L895.936 448.488L982.318 467.631L1039.39 456.611Z" fill="#F3DFF4"/>
<path d="M880.213 438.035L824.656 338.688L816.502 349.555L843.673 413.891L880.213 438.035Z" fill="#000D36"/>
<path d="M948.985 454.137L909.43 419.072L879.433 329.782L864.7 330.169L863.629 336.196L884.032 400.928L901.267 430.065L948.985 454.137Z" fill="#000D36"/>
<path d="M940.234 416.086L929.497 347.333L916.375 351.237L917.878 358.208L927.166 418.254L956.524 447.787L940.234 416.086Z" fill="#000D36"/>
<path d="M1057.92 419.936L978.125 343.735L972.869 345.291L976.604 363.597L1046.18 434.275L1047.35 446.167L1058.16 438.737L1057.92 419.936Z" fill="#000D36"/>
<path d="M1203.68 664.429H1294.38L1178.49 546.829L1124.63 525.15L961.232 515.47L880.969 479.947L805.918 417.751L787.54 410.842L787 422.527L860.215 488.726L940.91 523.566L957.038 537.843L1111.82 567.591L1133.37 576.146L1150.28 588.326L1203.68 664.429Z" fill="#000D36"/>
<path d="M1010.1 243.512L1010.38 284.766L1066.51 284.226V243.017L1010.1 243.512Z" fill="white"/>
<path d="M1037.8 243.512L1037.94 284.766L1066.51 284.226V243.017L1037.8 243.512Z" fill="#000D36"/>
<path d="M1019.26 299.86L1036.85 299.995L1048.07 284.307L1007.53 284.766L1019.26 299.86Z" fill="#000D36"/>
<path d="M1037.8 0L982.025 11.1365L963.26 46.1654L998.81 229.774L1010.65 243.034L1066.78 243.349L1077.45 229.451L1115.53 46.6871L1094.17 10.6058L1037.8 0Z" fill="white"/>
<path d="M1037.8 0L982.025 11.1365L963.26 46.1654L998.81 229.774L1010.65 243.034L1038.3 243.349L1037.8 0Z" fill="#FF7F00"/>
<path d="M1275 643.085H0V664.085H1275V643.085Z" fill="#000D36"/>
<path d="M1072.17 248.334H1003.27V255.072H1072.17V248.334Z" fill="#F505BD"/>
<path d="M1072.3 260.523H1003.39V267.261H1072.3V260.523Z" fill="#F505BD"/>
<path d="M1072.17 272.415H1003.27V279.153H1072.17V272.415Z" fill="#F505BD"/>
</svg>
