<svg width="20" height="21" viewBox="0 0 20 21" fill="none" xmlns="http://www.w3.org/2000/svg">
<path d="M10 0.809204C15.523 0.809204 20 5.2862 20 10.8092C20 16.3322 15.523 20.8092 10 20.8092C4.477 20.8092 0 16.3322 0 10.8092C0 5.2862 4.477 0.809204 10 0.809204ZM10 2.3092C7.74566 2.3092 5.58365 3.20474 3.98959 4.7988C2.39553 6.39286 1.5 8.55486 1.5 10.8092C1.5 13.0635 2.39553 15.2256 3.98959 16.8196C5.58365 18.4137 7.74566 19.3092 10 19.3092C12.2543 19.3092 14.4163 18.4137 16.0104 16.8196C17.6045 15.2256 18.5 13.0635 18.5 10.8092C18.5 8.55486 17.6045 6.39286 16.0104 4.7988C14.4163 3.20474 12.2543 2.3092 10 2.3092ZM10 5.8092C10.1989 5.8092 10.3897 5.88822 10.5303 6.02887C10.671 6.16953 10.75 6.36029 10.75 6.5592V10.0592H14.25C14.4489 10.0592 14.6397 10.1382 14.7803 10.2789C14.921 10.4195 15 10.6103 15 10.8092C15 11.0081 14.921 11.1989 14.7803 11.3395C14.6397 11.4802 14.4489 11.5592 14.25 11.5592H10.75V15.0592C10.75 15.2581 10.671 15.4489 10.5303 15.5895C10.3897 15.7302 10.1989 15.8092 10 15.8092C9.80109 15.8092 9.61032 15.7302 9.46967 15.5895C9.32902 15.4489 9.25 15.2581 9.25 15.0592V11.5592H5.75C5.55109 11.5592 5.36032 11.4802 5.21967 11.3395C5.07902 11.1989 5 11.0081 5 10.8092C5 10.6103 5.07902 10.4195 5.21967 10.2789C5.36032 10.1382 5.55109 10.0592 5.75 10.0592H9.25V6.5592C9.25 6.36029 9.32902 6.16953 9.46967 6.02887C9.61032 5.88822 9.80109 5.8092 10 5.8092Z" fill="#6969DF"/>
</svg>
