<svg width="124" height="88" viewBox="0 0 124 88" fill="none" xmlns="http://www.w3.org/2000/svg">
<g clip-path="url(#clip0_218_1906)">
<path d="M37.4583 54.7059L25.8333 56.6367L38.75 29.6055L60.0625 50.2007L48.4375 52.7751C48.4375 52.7751 50.375 67.5779 67.8125 74.6574C84.6041 81.0934 105.271 71.4395 111.729 54.7059C114.312 48.2699 114.312 41.1903 112.375 34.7543C110.437 28.3183 106.562 22.526 101.396 18.0208C96.2291 13.5156 93.6458 12.872 89.125 11.5848C84.6041 10.2976 81.375 10.2976 77.5 10.2976L65.875 1.9308L68.4583 1.2872C71.0416 1.2872 73.625 0 76.2083 0C83.9583 0 91.7083 0.643599 98.1666 3.86159C104.625 7.07959 110.437 11.5848 114.312 17.3772C118.187 22.526 120.771 27.6747 122.062 34.1107C125.292 46.9827 121.417 61.7855 112.375 71.4395C105.917 78.519 97.5208 84.3114 88.4791 86.2422C79.4375 88.173 87.1875 86.2422 86.5416 86.2422C78.7916 87.5294 69.75 86.2422 62.6458 83.6678C50.375 78.519 40.6875 66.9343 36.8125 54.0623" fill="#112FFF"/>
<path d="M86.5417 32.8237L98.1667 30.8929L85.25 57.924L63.9375 37.3288L75.5625 34.7544C75.5625 34.7544 73.625 19.9517 56.1875 12.8721C56.1875 12.8721 31 2.57451 15.5 26.3877C15.5 26.3877 2.58334 46.3392 18.0833 65.0036C18.0833 65.0036 27.7708 78.5192 46.5 77.232L58.125 85.5987C58.125 85.5987 25.1875 97.8271 5.16668 63.7164C5.16668 63.7164 -9.04165 39.2596 12.2708 14.1593C12.2708 14.1593 32.9375 -9.65386 62.6458 3.86171C62.6458 3.86171 81.375 11.5849 87.1875 32.8237" fill="url(#paint0_linear_218_1906)"/>
</g>
<defs>
<linearGradient id="paint0_linear_218_1906" x1="49.3469" y1="-9.74878" x2="49.3469" y2="119.693" gradientUnits="userSpaceOnUse">
<stop stop-color="white"/>
<stop offset="0.045" stop-color="#FCD7F4"/>
<stop offset="0.48" stop-color="#F774D9"/>
<stop offset="1" stop-color="#F105BB"/>
</linearGradient>
<clipPath id="clip0_218_1906">
<rect width="124" height="87.5294" fill="white"/>
</clipPath>
</defs>
</svg>
