<svg width="114" height="114" viewBox="0 0 114 114" fill="none" xmlns="http://www.w3.org/2000/svg">
<g clip-path="url(#clip0_218_1942)">
<path d="M7.36034 37.0971L5.89717 41.0105L55.0945 59.4046L56.5577 55.4912L7.36034 37.0971Z" fill="#112FFF"/>
<path d="M16.1152 105.047L13.1309 101.466L56.1047 69.8325L58.4921 73.4137L16.1152 105.047Z" fill="#112FFF"/>
<path d="M66.8482 0.596924H62.0733V44.1676H66.8482V0.596924Z" fill="#112FFF"/>
<path d="M71.8852 67.357L68.5863 70.8091L100.518 101.324L103.817 97.8716L71.8852 67.357Z" fill="#112FFF"/>
<path d="M102.842 17.8093L74.6612 51.0393L78.3028 54.1276L106.484 20.8977L102.842 17.8093Z" fill="#112FFF"/>
<path d="M64.4607 81.7697C76.3276 81.7697 85.9476 72.1497 85.9476 60.2828C85.9476 48.4159 76.3276 38.7959 64.4607 38.7959C52.5938 38.7959 42.9738 48.4159 42.9738 60.2828C42.9738 72.1497 52.5938 81.7697 64.4607 81.7697Z" fill="url(#paint0_linear_218_1942)"/>
<path d="M12.534 114C17.8082 114 22.0838 109.724 22.0838 104.45C22.0838 99.176 17.8082 94.9004 12.534 94.9004C7.25986 94.9004 2.9843 99.176 2.9843 104.45C2.9843 109.724 7.25986 114 12.534 114Z" fill="#112FFF"/>
<path d="M9.54974 48.9425C14.8239 48.9425 19.0995 44.6669 19.0995 39.3928C19.0995 34.1186 14.8239 29.843 9.54974 29.843C4.27556 29.843 0 34.1186 0 39.3928C0 44.6669 4.27556 48.9425 9.54974 48.9425Z" fill="#112FFF"/>
<path d="M63.267 19.0995C68.5412 19.0995 72.8168 14.8239 72.8168 9.54974C72.8168 4.27556 68.5412 0 63.267 0C57.9929 0 53.7173 4.27556 53.7173 9.54974C53.7173 14.8239 57.9929 19.0995 63.267 19.0995Z" fill="#112FFF"/>
<path d="M102.66 32.2303C107.934 32.2303 112.209 27.9548 112.209 22.6806C112.209 17.4064 107.934 13.1309 102.66 13.1309C97.3855 13.1309 93.11 17.4064 93.11 22.6806C93.11 27.9548 97.3855 32.2303 102.66 32.2303Z" fill="#112FFF"/>
<path d="M104.45 110.419C109.724 110.419 114 106.143 114 100.869C114 95.5949 109.724 91.3193 104.45 91.3193C99.1761 91.3193 94.9005 95.5949 94.9005 100.869C94.9005 106.143 99.1761 110.419 104.45 110.419Z" fill="#112FFF"/>
</g>
<defs>
<linearGradient id="paint0_linear_218_1942" x1="64.4607" y1="34.1777" x2="64.4607" y2="97.3745" gradientUnits="userSpaceOnUse">
<stop stop-color="white"/>
<stop offset="0.18" stop-color="#FCD7F4"/>
<stop offset="0.58" stop-color="#F774D9"/>
<stop offset="1" stop-color="#F105BB"/>
</linearGradient>
<clipPath id="clip0_218_1942">
<rect width="114" height="114" fill="white"/>
</clipPath>
</defs>
</svg>
