<svg width="261" height="39" viewBox="0 0 261 39" fill="none" xmlns="http://www.w3.org/2000/svg">
<rect width="39" height="9" rx="2.123" transform="matrix(0 -1 -1 0 261 39)" fill="#FA05C3"/>
<rect width="39" height="10" rx="2.123" transform="matrix(0 -1 -1 0 187 39)" fill="#FF7F00"/>
<rect width="39" height="9" rx="2.123" transform="matrix(0 -1 -1 0 177 39)" fill="#1231FF"/>
<rect width="39" height="9" rx="2.123" transform="matrix(0 -1 -1 0 168 39)" fill="#3AE8B6"/>
<rect width="39" height="10" rx="2.123" transform="matrix(0 -1 -1 0 159 39)" fill="#3AE8B6"/>
<rect width="39" height="10" rx="2.123" transform="matrix(0 -1 -1 0 131 39)" fill="#3AE8B6"/>
<rect width="39" height="9" rx="2.123" transform="matrix(0 -1 -1 0 65 39)" fill="#FA05C3"/>
</svg>
