<svg width="32" height="32" viewBox="0 0 32 32" fill="none" xmlns="http://www.w3.org/2000/svg">
<rect width="32" height="32" rx="16" fill="#F3F5FF"/>
<g clip-path="url(#clip0_0_604)">
<path d="M22.9971 23.5H23V17.998C23 15.3057 22.4199 13.2344 19.2734 13.2344C17.7617 13.2344 16.7451 14.0635 16.332 14.8516H16.2881V13.4863H13.3057V23.5H16.4111V18.54C16.4111 17.2334 16.6572 15.9707 18.2744 15.9707C19.8682 15.9707 19.8916 17.4619 19.8916 18.6221V23.5H22.9971Z" fill="#747474"/>
<path d="M8.24609 13.4863H11.3574V23.5H8.24609V13.4863Z" fill="#747474"/>
<path d="M9.80176 8.5C8.80566 8.5 8 9.30566 8 10.3018C8 11.2979 8.80566 12.1211 9.80176 12.1211C10.7979 12.1211 11.6035 11.2949 11.6035 10.3018C11.6006 9.30566 10.7949 8.5 9.80176 8.5Z" fill="#747474"/>
</g>
<defs>
<clipPath id="clip0_0_604">
<rect width="15" height="15" fill="white" transform="translate(8 8.5)"/>
</clipPath>
</defs>
</svg>
