<svg width="38" height="38" viewBox="0 0 38 38" fill="none" xmlns="http://www.w3.org/2000/svg">
<mask id="mask0_2563_75" style="mask-type:luminance" maskUnits="userSpaceOnUse" x="1" y="3" width="36" height="32">
<path d="M37 3.7168H1V34.6214H37V3.7168Z" fill="white"/>
</mask>
<g mask="url(#mask0_2563_75)">
<path d="M36.3537 34.3276H1.16602V4.41992H16.6367H36.3537V34.3276Z" fill="#112FFF"/>
<path d="M10.2122 4.3457C10.2122 4.3457 15.7508 6.81955 16.5077 11.4349C17.2646 16.0503 11.9845 20.5549 10.5815 24.7088C9.1784 28.8626 10.6738 34.438 10.6738 34.438" stroke="#00F4C5" stroke-width="1.8" stroke-miterlimit="10"/>
<path d="M19.1475 4.38281C19.1475 4.38281 24.9628 6.1182 26.3106 10.6043C27.6582 15.0905 22.9875 20.2413 22.1383 24.5244C21.289 28.8075 23.4859 34.1613 23.4859 34.1613" stroke="#00F4C5" stroke-width="1.8" stroke-miterlimit="10"/>
<path d="M36.3904 10.6238C36.3904 10.6238 33.5104 15.5161 28.1012 16.1807C22.692 16.8454 17.4489 12.1746 12.5935 10.9561C7.73811 9.73764 1.22119 11.0484 1.22119 11.0484" stroke="#00F4C5" stroke-width="1.8" stroke-miterlimit="10"/>
<path d="M36.3539 18.5234C36.3539 18.5234 34.3046 23.6558 29.0062 24.8557C23.7078 26.0557 17.6339 21.9204 12.5754 21.1819C7.51697 20.4434 1.20312 22.3449 1.20312 22.3449" stroke="#00F4C5" stroke-width="1.8" stroke-miterlimit="10"/>
</g>
</svg>
