<svg width="38" height="38" viewBox="0 0 38 38" fill="none" xmlns="http://www.w3.org/2000/svg">
<mask id="mask0_2563_117" style="mask-type:luminance" maskUnits="userSpaceOnUse" x="1" y="2" width="36" height="34">
<path d="M37 2.14844H1V35.4513H37V2.14844Z" fill="white"/>
</mask>
<g mask="url(#mask0_2563_117)">
<path d="M32.6732 3.85352H1V12.2635H32.6732V3.85352Z" fill="#112FFF"/>
<path d="M32.6732 20.1113H1V28.5213H32.6732V20.1113Z" fill="#112FFF"/>
<path d="M32.6732 12H1V20.41H32.6732V12Z" fill="#00F4C5"/>
<path d="M32.6732 2.14844H1V3.83418H32.6732V2.14844Z" fill="#00F4C5"/>
<path d="M24.9004 17.077H25.8368V14.5859H24.9004V17.077Z" fill="#112FFF"/>
<path d="M19.1499 17.077H20.0864V14.5859H19.1499V17.077Z" fill="#112FFF"/>
<path d="M13.3999 17.077H14.3365V14.5859H13.3999V17.077Z" fill="#112FFF"/>
<path d="M7.3877 17.077H8.32422V14.5859H7.3877V17.077Z" fill="#112FFF"/>
<path d="M24.395 23.5199H25.3315V26.0111H24.395V23.5199ZM19.1692 26.0111H20.1057V23.5199H19.1692V26.0111ZM13.4189 26.0111H14.3554V23.5199H13.4189V26.0111ZM7.3877 26.0111H8.32422V23.5199H7.3877V26.0111ZM24.9007 9.52826H25.8373V7.03711H24.9007V9.52826ZM19.1692 9.52826H20.1057V7.03711H19.1692V9.52826ZM13.4189 9.52826H14.3554V7.03711H13.4189V9.52826ZM7.3877 9.52826H8.32422V7.03711H7.3877V9.52826Z" fill="#00F4C5"/>
<path d="M35.0897 22.1719V26.7609H34.1719V23.1458H25.3123V26.7609H24.3945V22.1719H35.0897Z" fill="#00F4C5"/>
<path d="M35.7824 35.4686V34.5508H23.6826V35.4686H35.7824Z" fill="#112FFF"/>
<path d="M22.4839 26.2344V34.5319H37V26.2344H22.4839Z" fill="#00F4C5"/>
<path d="M28.7397 32.1752H30.7814V28.5977H28.7397V32.1752Z" fill="#112FFF"/>
</g>
</svg>
