<svg width="36" height="30" viewBox="0 0 36 30" fill="none" xmlns="http://www.w3.org/2000/svg">
<path d="M35.1925 1.89386H0V11.2383H35.1925V1.89386Z" fill="#112FFF"/>
<path d="M35.1925 19.9584H0V29.3028H35.1925V19.9584Z" fill="#112FFF"/>
<path d="M35.1925 10.9469H0V20.2914H35.1925V10.9469Z" fill="#00F4C5"/>
<path d="M35.1925 0H0V1.87305H35.1925V0Z" fill="#00F4C5"/>
<path d="M26.5557 16.5869H27.5963V13.8189H26.5557V16.5869Z" fill="#112FFF"/>
<path d="M20.1665 16.5869H21.2071V13.8189H20.1665V16.5869Z" fill="#112FFF"/>
<path d="M13.7773 16.5869H14.8179V13.8189H13.7773V16.5869Z" fill="#112FFF"/>
<path d="M7.09677 16.5869H8.13736V13.8189H7.09677V16.5869Z" fill="#112FFF"/>
<path d="M25.9938 23.7461H27.0343V26.5141H25.9938V23.7461ZM20.1873 26.5141H21.2279V23.7461H20.1873V26.5141ZM13.7981 26.5141H14.8387V23.7461H13.7981V26.5141ZM7.09678 26.5141H8.13736V23.7461H7.09678V26.5141ZM26.5557 8.1998H27.5963V5.43185H26.5557V8.1998ZM20.1873 8.1998H21.2279V5.43185H20.1873V8.1998ZM13.7981 8.1998H14.8387V5.43185H13.7981V8.1998ZM7.09678 8.1998H8.13736V5.43185H7.09678V8.1998Z" fill="#00F4C5"/>
</svg>
