<svg width="40" height="35" viewBox="0 0 40 35" fill="none" xmlns="http://www.w3.org/2000/svg">
<g clip-path="url(#clip0_64_7122)">
<path d="M39.282 34.0103H0.184601V0.779541H17.3743H39.282V34.0103Z" fill="#112FFF"/>
<path d="M10.2359 0.697388C10.2359 0.697388 16.3898 3.44611 17.2308 8.57431C18.0718 13.7025 12.2051 18.7076 10.6462 23.323C9.08719 27.9384 10.7487 34.1333 10.7487 34.1333" stroke="#00F4C5" stroke-width="2" stroke-miterlimit="10"/>
<path d="M20.1641 0.738403C20.1641 0.738403 26.6256 2.66661 28.1231 7.65122C29.6205 12.6358 24.4308 18.3589 23.4872 23.1179C22.5436 27.8769 24.9846 33.8256 24.9846 33.8256" stroke="#00F4C5" stroke-width="2" stroke-miterlimit="10"/>
<path d="M39.3231 7.67184C39.3231 7.67184 36.1231 13.1077 30.1128 13.8462C24.1026 14.5847 18.2769 9.39491 12.8821 8.04107C7.48718 6.68722 0.246155 8.14363 0.246155 8.14363" stroke="#00F4C5" stroke-width="2" stroke-miterlimit="10"/>
<path d="M39.2821 16.4513C39.2821 16.4513 37.0051 22.1539 31.118 23.4872C25.2308 24.8205 18.4821 20.2257 12.8615 19.4051C7.24103 18.5846 0.225647 20.6974 0.225647 20.6974" stroke="#00F4C5" stroke-width="2" stroke-miterlimit="10"/>
</g>
<defs>
<clipPath id="clip0_64_7122">
<rect width="40" height="34.3385" fill="white"/>
</clipPath>
</defs>
</svg>
