<svg width="753" height="88" viewBox="0 0 753 88" fill="none" xmlns="http://www.w3.org/2000/svg">
<rect x="378.955" y="87.897" width="87.8971" height="21.23" rx="2.123" transform="rotate(-90 378.955 87.897)" fill="#3AE8B6"/>
<rect x="415.046" y="87.897" width="87.8971" height="21.23" rx="2.123" transform="rotate(-90 415.046 87.897)" fill="#FA05C3"/>
<rect x="523.319" y="87.897" width="87.8971" height="21.23" rx="2.123" transform="rotate(-90 523.319 87.897)" fill="#1231FF"/>
<rect x="541.364" y="87.897" width="87.8971" height="21.23" rx="2.123" transform="rotate(-90 541.364 87.897)" fill="#3AE8B6"/>
<rect x="577.455" y="87.897" width="87.8971" height="21.23" rx="2.123" transform="rotate(-90 577.455 87.897)" fill="#1231FF"/>
<rect x="595.501" y="87.897" width="87.8971" height="21.23" rx="2.123" transform="rotate(-90 595.501 87.897)" fill="#1231FF"/>
<rect x="613.546" y="87.897" width="87.8971" height="21.23" rx="2.123" transform="rotate(-90 613.546 87.897)" fill="#1231FF"/>
<rect x="631.592" y="87.897" width="87.8971" height="21.23" rx="2.123" transform="rotate(-90 631.592 87.897)" fill="#1231FF"/>
</svg>
