<svg width="30" height="23" viewBox="0 0 30 23" fill="none" xmlns="http://www.w3.org/2000/svg">
<g clip-path="url(#clip0_2_206)">
<path d="M19.2956 22.2971L18.6443 20.5072L16.6993 15.1545L11.843 1.78794C11.8128 1.62988 11.7783 1.5957 11.6187 1.5957H7.13772C7.00834 1.5957 6.94365 1.68968 6.94365 1.81784C6.87896 2.90289 6.78407 3.22328 6.65038 3.54366L0.00862751 22.2672C-0.0258751 22.4893 0.0431301 22.5875 0.232894 22.5875H3.45889C3.64003 22.5875 3.73059 22.5277 3.7996 22.3654H3.80391C5.46004 19.5204 6.17165 18.6361 8.37119 17.3545C10.0144 16.3976 11.5842 15.885 12.8652 15.6116L13.2921 17.0598L14.4652 20.4004L14.7714 21.2804C15.1294 21.8742 15.8108 22.3569 16.9968 22.5875C16.9968 22.5875 16.9968 22.5875 17.0012 22.5875H18.8514C18.9937 22.5662 19.1403 22.5363 19.2826 22.5064C19.3042 22.4594 19.3042 22.391 19.2913 22.3013L19.2956 22.2971ZM6.74095 14.5992C6.56412 14.7017 6.39161 14.8042 6.22772 14.9068L6.62019 13.5782C7.58626 10.6734 8.87579 6.93551 9.39333 4.79104H9.42783C9.97988 6.7091 11.1745 10.2419 11.9293 12.5444C10.4198 12.8905 8.61702 13.5099 6.74095 14.5992Z" fill="#0000CC"/>
<path d="M22.3016 8.32823C22.3879 8.20862 22.4698 8.08474 22.5474 7.96085C22.5733 7.91813 22.5992 7.87969 22.6251 7.83697C22.7243 7.67891 22.8148 7.51658 22.9011 7.35852C22.9097 7.34143 22.914 7.32862 22.9227 7.3158C23.0003 7.17056 23.0693 7.02532 23.1383 6.88007C23.1469 6.86299 23.1555 6.84163 23.1642 6.82454C23.1599 6.82454 23.1512 6.82027 23.1469 6.816C23.1383 6.816 23.1297 6.80745 23.121 6.80318C22.8968 6.75192 22.6725 6.70066 22.4439 6.6494C21.2665 6.38454 20.0848 6.14105 18.9333 5.77367C18.1225 5.51736 17.3462 5.1927 16.6604 4.68862C16.5785 4.62881 16.5052 4.56046 16.4146 4.48357C16.475 4.42804 17.2039 3.89833 17.8767 3.69755C19.136 3.32163 20.4126 3.1892 21.7194 3.36007C22.2326 3.42842 22.7415 3.5224 23.1987 3.77872C23.7464 4.08629 23.824 4.19308 23.7723 4.82532C23.7637 4.92357 23.7507 5.02182 23.7335 5.1158C24.1087 3.41134 23.9103 1.89483 23.6903 0.942211C23.5825 0.91658 23.4747 0.890949 23.3669 0.86959C22.2197 0.651726 21.0768 0.681628 19.9296 0.878133C18.8902 1.05328 17.8723 1.30532 16.9063 1.7325C16.1947 2.04862 15.5003 2.41173 14.9784 3.01406C14.6722 3.36862 14.4048 3.74881 14.3531 4.24008C14.2798 4.96202 14.5644 5.54726 15.0776 6.02998C15.6167 6.53406 16.2507 6.90143 16.9063 7.23464C17.9672 7.77716 19.1058 8.12745 20.2487 8.46066C20.7749 8.61444 21.2967 8.7725 21.8445 8.93483C21.9738 8.77677 22.0946 8.61872 22.211 8.46066C22.2455 8.41367 22.2757 8.37095 22.3059 8.32396L22.3016 8.32823Z" fill="url(#paint0_linear_2_206)"/>
<path d="M26.1616 8.67841C26.1271 8.76384 26.0883 8.85782 26.0451 8.9518C26.0883 8.85782 26.1228 8.76811 26.1616 8.67841Z" fill="url(#paint1_linear_2_206)"/>
<path d="M26.1616 8.67841C26.1271 8.76384 26.0883 8.85782 26.0451 8.9518C26.0883 8.85782 26.1228 8.76811 26.1616 8.67841Z" fill="url(#paint2_linear_2_206)"/>
<path d="M26.4506 7.92657C26.429 7.99065 26.4074 8.05473 26.3815 8.12735C26.4074 8.059 26.429 7.99065 26.4506 7.92657Z" fill="url(#paint3_linear_2_206)"/>
<path d="M26.4506 7.92657C26.429 7.99065 26.4074 8.05473 26.3815 8.12735C26.4074 8.059 26.429 7.99065 26.4506 7.92657Z" fill="url(#paint4_linear_2_206)"/>
<path d="M26.2651 8.42639C26.2392 8.4862 26.2177 8.55027 26.1875 8.61435C26.2133 8.55027 26.2392 8.4862 26.2651 8.42639Z" fill="url(#paint5_linear_2_206)"/>
<path d="M26.2651 8.42639C26.2392 8.4862 26.2177 8.55027 26.1875 8.61435C26.2133 8.55027 26.2392 8.4862 26.2651 8.42639Z" fill="url(#paint6_linear_2_206)"/>
<path d="M29.9741 12.5444C29.9267 12.0574 29.7499 11.6089 29.5773 11.1561C29.021 9.69939 27.9471 8.72968 26.6015 8.00347C26.5541 7.97784 26.5023 7.95221 26.4505 7.92657C26.429 7.99065 26.4074 8.05473 26.3815 8.12735C26.3729 8.14871 26.3643 8.17007 26.36 8.19143C26.3427 8.24269 26.3212 8.29823 26.2996 8.35376C26.291 8.37939 26.278 8.40502 26.2694 8.43065C26.2435 8.49046 26.222 8.55454 26.1918 8.61861C26.1832 8.63997 26.1745 8.66133 26.1659 8.68269C26.1314 8.76813 26.0926 8.86211 26.0495 8.95609C26.0408 8.97318 26.0322 8.99454 26.0236 9.01162C25.9891 9.08852 25.9546 9.16968 25.9158 9.25512C25.8985 9.28929 25.8856 9.32347 25.8683 9.35764C25.8338 9.43026 25.7993 9.50716 25.7648 9.58405C25.7476 9.61822 25.7303 9.65667 25.7131 9.69085C25.6656 9.7891 25.6182 9.88735 25.5664 9.98988C25.5578 10.007 25.5492 10.024 25.5405 10.0411C25.4802 10.1607 25.4155 10.2889 25.3508 10.4171C25.3465 10.4256 25.3422 10.4341 25.3378 10.447C25.3422 10.447 25.3465 10.4555 25.3508 10.4555C25.3551 10.4555 25.3594 10.4641 25.3637 10.4683C25.9632 10.9297 26.4247 11.4508 26.6489 12.1899C26.8689 12.9246 26.6274 13.5056 26.2177 14.0695C25.7303 14.7359 25.0963 15.2571 24.4235 15.727C23.3669 16.4617 22.211 17.0256 21.0207 17.5169C20.9862 17.5297 20.9517 17.5382 20.8956 17.5596C20.8956 17.5596 20.8956 17.5596 20.8913 17.5596H20.8827C20.8827 17.5596 20.8741 17.5639 20.8698 17.5639C20.8698 17.5639 20.8654 17.5639 20.8611 17.5639C20.6153 17.9099 20.3565 18.2644 20.0891 18.6318C20.0546 18.6788 20.0158 18.7301 19.9813 18.7771C19.7225 19.1274 19.4551 19.4905 19.1748 19.8578C19.1274 19.9219 19.0799 19.986 19.0282 20.0501C18.7478 20.4217 18.4546 20.8019 18.1527 21.1949C18.1095 21.2505 18.0621 21.3103 18.019 21.3658C17.6998 21.7802 17.3721 22.1988 17.027 22.6345C18.0621 22.831 19.0541 22.6132 20.0374 22.3355C22.4612 21.6477 24.6348 20.4943 26.5627 18.8839C27.5503 18.0594 28.4344 17.1452 29.0986 16.0431C29.7499 14.9666 30.0992 13.8132 29.9741 12.5444Z" fill="url(#paint7_linear_2_206)"/>
<path d="M20.8568 17.5639C23.1167 14.3984 24.5012 12.066 25.3551 10.4128C25.4241 10.2846 25.4845 10.1565 25.5449 10.0369C25.5535 10.0198 25.5621 10.0027 25.5707 9.98562C25.6225 9.88309 25.6699 9.78484 25.7174 9.68659C25.7346 9.64814 25.7519 9.61397 25.7691 9.57979C25.8036 9.5029 25.8424 9.426 25.8726 9.35338C25.8899 9.31921 25.9028 9.28503 25.9201 9.25086C25.9589 9.16969 25.9934 9.08853 26.0279 9.00736C26.0365 8.99028 26.0451 8.96892 26.0538 8.95183C26.0969 8.85785 26.1314 8.76387 26.1702 8.67843C26.1788 8.65707 26.1875 8.63571 26.1961 8.61435C26.222 8.55028 26.2478 8.4862 26.2737 8.42639C26.2823 8.40076 26.2953 8.37513 26.3039 8.3495C26.3255 8.29397 26.347 8.23843 26.3643 8.18717C26.3729 8.16581 26.3815 8.14445 26.3859 8.12309C26.4117 8.05474 26.4333 7.98639 26.4549 7.92232C26.4549 7.92232 26.4462 7.92232 26.4462 7.91804C26.5584 7.51649 26.6705 7.13202 26.774 6.73902C27.0242 5.77785 27.0587 4.80387 26.8473 3.8427C26.6878 3.11222 26.3125 2.47999 25.7303 1.97591C25.1308 1.45474 23.2806 0.113384 19.1446 1.02756C24.5141 0.617461 24.1087 3.41125 23.7335 5.11571C23.6817 5.35067 23.617 5.59416 23.5437 5.83338C23.4445 6.15804 23.3151 6.48698 23.1685 6.82018C23.1599 6.83727 23.1512 6.85863 23.1426 6.87571C23.0779 7.02096 23.0046 7.1662 22.927 7.31144C22.9183 7.32853 22.914 7.34134 22.9054 7.35416C22.8192 7.51222 22.7286 7.67455 22.6294 7.83261C22.6035 7.87533 22.5776 7.91377 22.5518 7.95649C22.4741 8.08037 22.3922 8.19999 22.3059 8.32387C22.2757 8.37086 22.2412 8.41358 22.211 8.46057C22.0946 8.61863 21.9738 8.77668 21.8445 8.93474L19.3301 12.2326C18.9333 12.7281 18.5365 13.2194 18.1397 13.7149C17.3332 14.7188 16.5699 15.7569 15.8065 16.7949C15.6771 16.9701 15.5607 17.1495 15.4442 17.3289C15.276 17.5895 12.7875 21.8058 17.0055 22.626C17.0141 22.626 18.433 23.1215 21.7409 21.7545C17.4238 21.9297 20.6153 17.9013 20.8611 17.5596L20.8568 17.5639Z" fill="url(#paint8_linear_2_206)"/>
<path d="M22.927 7.31573C22.927 7.31573 22.914 7.34564 22.9054 7.35845C22.914 7.34137 22.9183 7.32855 22.927 7.31573Z" fill="url(#paint9_linear_2_206)"/>
<path d="M22.927 7.31573C22.927 7.31573 22.914 7.34564 22.9054 7.35845C22.914 7.34137 22.9183 7.32855 22.927 7.31573Z" fill="url(#paint10_linear_2_206)"/>
<path d="M22.3016 8.32812C22.2714 8.37512 22.2369 8.41783 22.2067 8.46482C22.2412 8.41783 22.2714 8.37512 22.3016 8.32812Z" fill="url(#paint11_linear_2_206)"/>
<path d="M22.3016 8.32812C22.2714 8.37512 22.2369 8.41783 22.2067 8.46482C22.2412 8.41783 22.2714 8.37512 22.3016 8.32812Z" fill="url(#paint12_linear_2_206)"/>
<path d="M26.0236 9.00739C25.9891 9.08428 25.9546 9.16544 25.9158 9.25088C25.9546 9.16544 25.9891 9.08855 26.0236 9.00739Z" fill="url(#paint13_linear_2_206)"/>
<path d="M26.0236 9.00739C25.9891 9.08428 25.9546 9.16544 25.9158 9.25088C25.9546 9.16544 25.9891 9.08855 26.0236 9.00739Z" fill="url(#paint14_linear_2_206)"/>
<path d="M25.8683 9.34912C25.8338 9.42174 25.7993 9.49864 25.7648 9.57553C25.7993 9.49864 25.8381 9.42174 25.8683 9.34912Z" fill="url(#paint15_linear_2_206)"/>
<path d="M25.8683 9.34912C25.8338 9.42174 25.7993 9.49864 25.7648 9.57553C25.7993 9.49864 25.8381 9.42174 25.8683 9.34912Z" fill="url(#paint16_linear_2_206)"/>
<path d="M19.0239 20.0544C18.7435 20.426 18.4503 20.8062 18.1484 21.1992C18.4503 20.8062 18.7392 20.426 19.0239 20.0544Z" fill="url(#paint17_linear_2_206)"/>
<path d="M19.0239 20.0544C18.7435 20.426 18.4503 20.8062 18.1484 21.1992C18.4503 20.8062 18.7392 20.426 19.0239 20.0544Z" fill="url(#paint18_linear_2_206)"/>
<path d="M19.977 18.7771C19.7182 19.1274 19.4508 19.4905 19.1705 19.8579C19.4508 19.4862 19.7182 19.1274 19.977 18.7771Z" fill="url(#paint19_linear_2_206)"/>
<path d="M19.977 18.7771C19.7182 19.1274 19.4508 19.4905 19.1705 19.8579C19.4508 19.4862 19.7182 19.1274 19.977 18.7771Z" fill="url(#paint20_linear_2_206)"/>
<path d="M20.8568 17.5638C20.611 17.9099 20.3522 18.2644 20.0848 18.6318C20.3522 18.2687 20.611 17.9099 20.8568 17.5638Z" fill="url(#paint21_linear_2_206)"/>
<path d="M20.8568 17.5638C20.611 17.9099 20.3522 18.2644 20.0848 18.6318C20.3522 18.2687 20.611 17.9099 20.8568 17.5638Z" fill="url(#paint22_linear_2_206)"/>
<path d="M25.5405 10.0369C25.4802 10.1565 25.4155 10.2846 25.3508 10.4128C25.4198 10.2846 25.4802 10.1565 25.5405 10.0369Z" fill="url(#paint23_linear_2_206)"/>
<path d="M25.5405 10.0369C25.4802 10.1565 25.4155 10.2846 25.3508 10.4128C25.4198 10.2846 25.4802 10.1565 25.5405 10.0369Z" fill="url(#paint24_linear_2_206)"/>
</g>
<defs>
<linearGradient id="paint0_linear_2_206" x1="14.3445" y1="4.82959" x2="23.9405" y2="4.82959" gradientUnits="userSpaceOnUse">
<stop stop-color="#FF6200"/>
<stop offset="1" stop-color="#FF7F00"/>
</linearGradient>
<linearGradient id="paint1_linear_2_206" x1="27.3899" y1="10.9226" x2="29.3603" y2="14.2162" gradientUnits="userSpaceOnUse">
<stop stop-color="#CD4E27"/>
<stop offset="1" stop-color="#F37845"/>
</linearGradient>
<linearGradient id="paint2_linear_2_206" x1="24.2456" y1="3.5669" x2="26.7933" y2="10.9057" gradientUnits="userSpaceOnUse">
<stop stop-color="#CD4E27"/>
<stop offset="1" stop-color="#F37845"/>
</linearGradient>
<linearGradient id="paint3_linear_2_206" x1="27.9669" y1="10.5772" x2="29.9373" y2="13.8708" gradientUnits="userSpaceOnUse">
<stop stop-color="#CD4E27"/>
<stop offset="1" stop-color="#F37845"/>
</linearGradient>
<linearGradient id="paint4_linear_2_206" x1="24.7683" y1="3.38595" x2="27.316" y2="10.7248" gradientUnits="userSpaceOnUse">
<stop stop-color="#CD4E27"/>
<stop offset="1" stop-color="#F37845"/>
</linearGradient>
<linearGradient id="paint5_linear_2_206" x1="27.6088" y1="10.7902" x2="29.5803" y2="14.0879" gradientUnits="userSpaceOnUse">
<stop stop-color="#CD4E27"/>
<stop offset="1" stop-color="#F37845"/>
</linearGradient>
<linearGradient id="paint6_linear_2_206" x1="24.4456" y1="3.49696" x2="26.9932" y2="10.8357" gradientUnits="userSpaceOnUse">
<stop stop-color="#CD4E27"/>
<stop offset="1" stop-color="#F37845"/>
</linearGradient>
<linearGradient id="paint7_linear_2_206" x1="17.027" y1="15.3169" x2="30" y2="15.3169" gradientUnits="userSpaceOnUse">
<stop stop-color="#CD4E27"/>
<stop offset="1" stop-color="#FF7F00"/>
</linearGradient>
<linearGradient id="paint8_linear_2_206" x1="18.0056" y1="4.57255" x2="20.8547" y2="12.7784" gradientUnits="userSpaceOnUse">
<stop stop-color="#CD4E27"/>
<stop offset="1" stop-color="#FF7F00"/>
</linearGradient>
<linearGradient id="paint9_linear_2_206" x1="21.8157" y1="6.76556" x2="15.0868" y2="3.18776" gradientUnits="userSpaceOnUse">
<stop stop-color="#CD4E27"/>
<stop offset="1" stop-color="#F37845"/>
</linearGradient>
<linearGradient id="paint10_linear_2_206" x1="21.8695" y1="4.39202" x2="24.4173" y2="11.7308" gradientUnits="userSpaceOnUse">
<stop stop-color="#CD4E27"/>
<stop offset="1" stop-color="#F37845"/>
</linearGradient>
<linearGradient id="paint11_linear_2_206" x1="21.2342" y1="7.86326" x2="11.915" y2="2.90887" gradientUnits="userSpaceOnUse">
<stop stop-color="#CD4E27"/>
<stop offset="1" stop-color="#F37845"/>
</linearGradient>
<linearGradient id="paint12_linear_2_206" x1="20.9512" y1="4.71187" x2="23.4989" y2="12.0506" gradientUnits="userSpaceOnUse">
<stop stop-color="#CD4E27"/>
<stop offset="1" stop-color="#F37845"/>
</linearGradient>
<linearGradient id="paint13_linear_2_206" x1="27.147" y1="11.0657" x2="29.1185" y2="14.3634" gradientUnits="userSpaceOnUse">
<stop stop-color="#CD4E27"/>
<stop offset="1" stop-color="#F37845"/>
</linearGradient>
<linearGradient id="paint14_linear_2_206" x1="24.0291" y1="3.64131" x2="26.5778" y2="10.9842" gradientUnits="userSpaceOnUse">
<stop stop-color="#CD4E27"/>
<stop offset="1" stop-color="#F37845"/>
</linearGradient>
<linearGradient id="paint15_linear_2_206" x1="26.8896" y1="11.2214" x2="28.86" y2="14.515" gradientUnits="userSpaceOnUse">
<stop stop-color="#CD4E27"/>
<stop offset="1" stop-color="#F37845"/>
</linearGradient>
<linearGradient id="paint16_linear_2_206" x1="23.7844" y1="3.72744" x2="26.3321" y2="11.0662" gradientUnits="userSpaceOnUse">
<stop stop-color="#CD4E27"/>
<stop offset="1" stop-color="#F37845"/>
</linearGradient>
<linearGradient id="paint17_linear_2_206" x1="16.6013" y1="17.3691" x2="18.5728" y2="20.6668" gradientUnits="userSpaceOnUse">
<stop stop-color="#CD4E27"/>
<stop offset="1" stop-color="#F37845"/>
</linearGradient>
<linearGradient id="paint18_linear_2_206" x1="13.8301" y1="7.18083" x2="16.3789" y2="14.5237" gradientUnits="userSpaceOnUse">
<stop stop-color="#CD4E27"/>
<stop offset="1" stop-color="#F37845"/>
</linearGradient>
<linearGradient id="paint19_linear_2_206" x1="17.9099" y1="16.5892" x2="19.8814" y2="19.8869" gradientUnits="userSpaceOnUse">
<stop stop-color="#CD4E27"/>
<stop offset="1" stop-color="#F37845"/>
</linearGradient>
<linearGradient id="paint20_linear_2_206" x1="15.1202" y1="6.73275" x2="17.669" y2="14.0757" gradientUnits="userSpaceOnUse">
<stop stop-color="#CD4E27"/>
<stop offset="1" stop-color="#F37845"/>
</linearGradient>
<linearGradient id="paint21_linear_2_206" x1="19.1095" y1="15.8687" x2="21.081" y2="19.1664" gradientUnits="userSpaceOnUse">
<stop stop-color="#CD4E27"/>
<stop offset="1" stop-color="#F37845"/>
</linearGradient>
<linearGradient id="paint22_linear_2_206" x1="16.2999" y1="6.32234" x2="18.8487" y2="13.6653" gradientUnits="userSpaceOnUse">
<stop stop-color="#CD4E27"/>
<stop offset="1" stop-color="#F37845"/>
</linearGradient>
<linearGradient id="paint23_linear_2_206" x1="26.2732" y1="11.586" x2="28.2447" y2="14.8837" gradientUnits="userSpaceOnUse">
<stop stop-color="#CD4E27"/>
<stop offset="1" stop-color="#F37845"/>
</linearGradient>
<linearGradient id="paint24_linear_2_206" x1="23.2169" y1="3.9245" x2="25.7646" y2="11.2633" gradientUnits="userSpaceOnUse">
<stop stop-color="#CD4E27"/>
<stop offset="1" stop-color="#F37845"/>
</linearGradient>
<clipPath id="clip0_2_206">
<rect width="30" height="22" fill="white" transform="translate(0 0.719971)"/>
</clipPath>
</defs>
</svg>
