<svg width="40" height="40" viewBox="0 0 40 40" fill="none" xmlns="http://www.w3.org/2000/svg">
<path opacity="0.07" d="M36.6667 3.3667H3.33337V36.7H36.6667V3.3667Z" stroke="#192A4C" stroke-width="0.1" stroke-miterlimit="10"/>
<path d="M24.1333 35.7667H35.5V34.2667H24.1333V35.7667Z" fill="#F105BB"/>
<path d="M14.0513 22.1239L30.7542 24.0771L30.9284 22.5873L14.2255 20.634L14.0513 22.1239Z" fill="#F105BB"/>
<path d="M6.22338 33.6556L24.2671 35.7656L24.4413 34.2758L6.39761 32.1657L6.22338 33.6556Z" fill="#F105BB"/>
<path d="M30.897 24.0989L34.0568 35.0176L35.4976 34.6006L32.3379 23.6819L30.897 24.0989Z" fill="#F105BB"/>
<path d="M20.6477 10.4334L30.2118 22.6309L31.3922 21.7053L21.8281 9.50781L20.6477 10.4334Z" fill="#F105BB"/>
<path d="M9.55155 7.182L20.5938 10.6255L21.0403 9.1935L9.99811 5.75001L9.55155 7.182Z" fill="#F105BB"/>
<path d="M8.68631 5.86826L13.2684 21.7019L14.7093 21.2849L10.1272 5.45128L8.68631 5.86826Z" fill="#F105BB"/>
<path d="M30.3629 24.0903L24.5665 33.868L25.8568 34.633L31.6532 24.8553L30.3629 24.0903Z" fill="#F105BB"/>
<path d="M19.9072 10.6797L14.1108 20.4574L15.4012 21.2223L21.1975 11.4446L19.9072 10.6797Z" fill="#F105BB"/>
<path d="M33.4166 36.4167H35.8666V33.6001H33.4166V36.4167Z" fill="#00F4C5"/>
<path d="M30.1666 24.5167H32.6166V21.7001H30.1666V24.5167Z" fill="#00F4C5"/>
<path d="M19.7333 11.5834H22.1833V8.76671H19.7333V11.5834Z" fill="#00F4C5"/>
<path d="M8.3166 7.58337H10.7666V4.76671H8.3166V7.58337Z" fill="#00F4C5"/>
<path d="M13.7202 21.966L23.675 34.6619L24.8555 33.7363L14.9006 21.0404L13.7202 21.966Z" fill="#F105BB"/>
<path d="M12.9136 21.0991L5.34949 33.8589L6.6398 34.6238L14.2039 21.864L12.9136 21.0991Z" fill="#F105BB"/>
<path d="M23.7833 36.4167H26.2333V33.6001H23.7833V36.4167Z" fill="#00F4C5"/>
<path d="M4.13325 36.4167H6.58325V33.6001H4.13325V36.4167Z" fill="#00F4C5"/>
<path d="M12.8833 22.65H15.3333V19.8334H12.8833V22.65Z" fill="#00F4C5"/>
</svg>
