<svg width="40" height="40" viewBox="0 0 40 40" fill="none" xmlns="http://www.w3.org/2000/svg">
<path opacity="0.07" d="M36.7166 3.58337H3.3833V36.9167H36.7166V3.58337Z" stroke="#192A4C" stroke-width="0.1" stroke-miterlimit="10"/>
<path d="M20 29.1166C26.8392 29.1166 32.3834 23.5724 32.3834 16.7333C32.3834 9.89418 26.8392 4.34998 20 4.34998C13.1609 4.34998 7.6167 9.89418 7.6167 16.7333C7.6167 23.5724 13.1609 29.1166 20 29.1166Z" fill="#00F4C5"/>
<path d="M20.0666 4.68335C20.0666 4.68335 9.59998 16.0334 20.0666 28.7834C20.0666 28.7834 30.25 16.95 20.0666 4.68335Z" fill="#00F4C5"/>
<path d="M20 29.1166C26.8392 29.1166 32.3834 23.5724 32.3834 16.7333C32.3834 9.89418 26.8392 4.34998 20 4.34998C13.1609 4.34998 7.6167 9.89418 7.6167 16.7333C7.6167 23.5724 13.1609 29.1166 20 29.1166Z" stroke="#112FFF" stroke-width="0.75" stroke-miterlimit="10"/>
<path d="M20.0666 4.68335C20.0666 4.68335 9.59998 16.0334 20.0666 28.7834C20.0666 28.7834 30.25 16.95 20.0666 4.68335Z" stroke="#112FFF" stroke-width="0.75" stroke-miterlimit="10"/>
<path d="M8.30005 12.75H31.7" stroke="#112FFF" stroke-width="0.75" stroke-miterlimit="10"/>
<path d="M8.33337 20.7333H31.6667" stroke="#112FFF" stroke-width="0.75" stroke-miterlimit="10"/>
<path d="M13.0334 32.4333H9.83337V35.6333H13.0334V32.4333Z" fill="#112FFF"/>
<path d="M21.6 32.4333H18.4V35.6333H21.6V32.4333Z" fill="#112FFF"/>
<path d="M30.1501 32.4333H26.9501V35.6333H30.1501V32.4333Z" fill="#112FFF"/>
</svg>
