<svg width="40" height="40" viewBox="0 0 40 40" fill="none" xmlns="http://www.w3.org/2000/svg">
<path opacity="0.07" d="M36.6666 3.33337H3.33325V36.6667H36.6666V3.33337Z" stroke="#192A4C" stroke-width="0.1" stroke-miterlimit="10"/>
<path d="M5.2168 4.69995V14.9H15.0668V24.9166H24.4835V34.7666H35.3668V6.08328L5.2168 4.69995Z" fill="#00F4C5"/>
<path d="M3.3667 3.3833V17.1666H13.2V26.85H22.8334V36.65H36.6667V3.3833H3.3667ZM13.4 13.2333H7.25003V7.04997H13.4V13.2333ZM23.0667 23.1H16.9167V16.95H23.0667V23.1ZM23.0667 13.2333H16.9167V7.04997H23.0667V13.2333ZM32.9167 32.9333H26.7667V26.75H32.9167V32.9333ZM32.9167 23.1H26.7667V16.95H32.9167V23.1ZM32.9167 13.2333H26.7667V7.04997H32.9167V13.2333Z" fill="#F105BB"/>
<path d="M6.54992 23.5667H3.33325V26.7833H6.54992V23.5667Z" fill="#F105BB"/>
<path d="M6.54992 33.3667H3.33325V36.5834H6.54992V33.3667Z" fill="#F105BB"/>
<path d="M16.4833 33.3667H13.2666V36.5834H16.4833V33.3667Z" fill="#F105BB"/>
</svg>
