<svg width="40" height="40" viewBox="0 0 40 40" fill="none" xmlns="http://www.w3.org/2000/svg">
<path d="M19.9999 36.6667C29.2047 36.6667 36.6666 29.2048 36.6666 20C36.6666 10.7953 29.2047 3.33337 19.9999 3.33337C10.7952 3.33337 3.33325 10.7953 3.33325 20C3.33325 29.2048 10.7952 36.6667 19.9999 36.6667Z" fill="#00F4C5"/>
<path opacity="0.07" d="M36.6666 3.33337H3.33325V36.6667H36.6666V3.33337Z" stroke="#192A4C" stroke-width="0.1" stroke-miterlimit="10"/>
<mask id="mask0_209_261" style="mask-type:luminance" maskUnits="userSpaceOnUse" x="3" y="3" width="34" height="34">
<path d="M19.9999 36.6667C29.2047 36.6667 36.6666 29.2048 36.6666 20C36.6666 10.7953 29.2047 3.33337 19.9999 3.33337C10.7952 3.33337 3.33325 10.7953 3.33325 20C3.33325 29.2048 10.7952 36.6667 19.9999 36.6667Z" fill="white"/>
</mask>
<g mask="url(#mask0_209_261)">
<path d="M1.1499 24.75L12.1999 13.7L17.8166 19.3333L23.4999 13.65H19.2832V10.3167H29.0666V20.1833H25.7332V16.1167L17.8166 24.0333L12.1999 18.4167L1.93324 28.6833" fill="#F105BB"/>
<path d="M17.9 27.15H14.6833V30.3667H17.9V27.15Z" fill="#F105BB"/>
<path d="M25.2999 27.15H22.0833V30.3667H25.2999V27.15Z" fill="#F105BB"/>
</g>
</svg>
