<svg width="40" height="40" viewBox="0 0 40 40" fill="none" xmlns="http://www.w3.org/2000/svg">
<path opacity="0.07" d="M36.6666 3.33337H3.33325V36.6667H36.6666V3.33337Z" stroke="#192A4C" stroke-width="0.1" stroke-miterlimit="10"/>
<path d="M17.2999 33.45H14.0833V36.6666H17.2999V33.45Z" fill="#112FFF"/>
<path d="M25.9 33.45H22.6833V36.6666H25.9V33.45Z" fill="#112FFF"/>
<path d="M34.5001 33.45H31.2834V36.6666H34.5001V33.45Z" fill="#112FFF"/>
<path d="M8.71667 33.45H5.5V36.6666H8.71667V33.45Z" fill="#112FFF"/>
<path d="M28.4166 19.7499C28.5833 19.4666 28.7 19.1333 28.7833 18.8166L29.8333 18.6999L32.8 18.4166L32.15 11.4999L29.2166 11.7833L28.1666 11.8999C28 11.5666 27.8333 11.2499 27.6333 10.9166L28.2 10.0166L29.7833 7.58328L23.9666 3.79994L22.4666 6.11661L21.85 7.04994H21.8166C21.45 6.96661 21.0833 6.88328 20.6833 6.88328L20.3166 5.83328L19.4666 3.23328L12.8833 5.43328L13.7333 7.99994L14.0666 9.04994C13.7333 9.29994 13.45 9.58328 13.2166 9.89994L12.1666 9.49994L9.59995 8.56661L7.19995 15.1166L9.79995 16.0499V16.0833L10.8166 16.4499C10.85 16.8499 10.9 17.2666 10.9833 17.6333L9.99995 18.1999L7.64995 19.6166L11.2333 25.5499L13.6666 24.0499L14.6 23.5166C14.8833 23.7166 15.2166 23.9166 15.5333 24.1333L15.4166 25.1833L15.05 28.0333L21.9666 28.9333L22.3333 25.9999L22.5 24.8999C22.8333 24.8166 23.15 24.7333 23.4833 24.5666L24.2166 25.3833L26.2833 27.4999L31.2833 22.6666L29.2166 20.5166L28.45 19.7499H28.4166Z" fill="#112FFF"/>
<path d="M24.9666 16.1666C24.9333 17.3833 24.4833 18.4833 23.75 19.3C23.5833 19.55 23.35 19.75 23.1 19.9166C22.25 20.65 21.1833 21.05 20.0167 21.05C19.65 21.05 19.2833 21.0166 18.9167 20.9333C17.8167 20.6833 16.85 20.0333 16.2 19.1833C15.9167 18.9 15.7167 18.5333 15.55 18.1666C15.2167 17.55 15.0667 16.8333 15.0667 16.1C15.0667 15.7666 15.1 15.4166 15.15 15.1166V15.0833C15.2667 14.6333 15.4333 14.1833 15.6833 13.8166C16.1333 12.8333 16.95 12.0666 17.9167 11.6166C18.2833 11.4166 18.7333 11.2833 19.1833 11.2166C19.4333 11.1833 19.75 11.1333 20.0333 11.1333C20.85 11.1333 21.6667 11.3333 22.3167 11.75C22.6833 11.8666 22.9666 12.1166 23.25 12.3666C24.1 13.05 24.6666 14.0333 24.9166 15.1333C24.95 15.4166 25 15.7833 25 16.1166V16.2L24.9666 16.1666Z" fill="white"/>
<path d="M24.9666 16.1666C24.9333 17.3833 24.4833 18.4833 23.75 19.3C23.5833 19.55 23.35 19.75 23.1 19.9166C22.25 20.65 21.1833 21.05 20.0167 21.05C19.65 21.05 19.2833 21.0166 18.9167 20.9333C17.8167 20.6833 16.85 20.0333 16.2 19.1833C15.9167 18.9 15.7167 18.5333 15.55 18.1666C15.2167 17.55 15.0667 16.8333 15.0667 16.1C15.0667 15.7666 15.1 15.4166 15.15 15.1166V15.0833C15.2667 14.6333 15.4333 14.1833 15.6833 13.8166C16.1333 12.8333 16.95 12.0666 17.9167 11.6166C18.2833 11.4166 18.7333 11.2833 19.1833 11.2166C19.4333 11.1833 19.75 11.1333 20.0333 11.1333C20.85 11.1333 21.6667 11.3333 22.3167 11.75C22.6833 11.8666 22.9666 12.1166 23.25 12.3666C24.1 13.05 24.6666 14.0333 24.9166 15.1333C24.95 15.4166 25 15.7833 25 16.1166V16.2L24.9666 16.1666Z" fill="#00F4C5"/>
</svg>
