<svg width="40" height="36" viewBox="0 0 40 36" fill="none" xmlns="http://www.w3.org/2000/svg">
<g clip-path="url(#clip0_1_1659)">
<path d="M39.2821 34.841H0.184631V1.61026H17.3744H39.2821V34.841Z" fill="#112FFF"/>
<path d="M10.2359 1.52823C10.2359 1.52823 16.3897 4.27695 17.2307 9.40515C18.0718 14.5334 12.2051 19.5385 10.6461 24.1539C9.08716 28.7693 10.7487 34.9641 10.7487 34.9641" stroke="#00F4C5" stroke-width="2" stroke-miterlimit="10"/>
<path d="M20.1641 1.56924C20.1641 1.56924 26.6257 3.49745 28.1231 8.48207C29.6205 13.4667 24.4308 19.1898 23.4872 23.9487C22.5436 28.7077 24.9846 34.6564 24.9846 34.6564" stroke="#00F4C5" stroke-width="2" stroke-miterlimit="10"/>
<path d="M39.3231 8.50259C39.3231 8.50259 36.1231 13.9385 30.1128 14.6769C24.1026 15.4154 18.2769 10.2257 12.8821 8.87182C7.48718 7.51797 0.246155 8.97438 0.246155 8.97438" stroke="#00F4C5" stroke-width="2" stroke-miterlimit="10"/>
<path d="M39.2821 17.2821C39.2821 17.2821 37.0051 22.9846 31.118 24.318C25.2308 25.6513 18.4821 21.0564 12.8615 20.2359C7.24103 19.4154 0.225647 21.5282 0.225647 21.5282" stroke="#00F4C5" stroke-width="2" stroke-miterlimit="10"/>
</g>
<defs>
<clipPath id="clip0_1_1659">
<rect width="40" height="34.3385" fill="white" transform="translate(0 0.83078)"/>
</clipPath>
</defs>
</svg>
