<svg width="40" height="40" viewBox="0 0 40 40" fill="none" xmlns="http://www.w3.org/2000/svg">
<path d="M20.8334 22.149C18.6549 22.149 16.5187 22.0433 14.4882 21.8529C10.5542 21.4511 6.04915 20.605 4.16675 18.7438V23.9468C4.16675 26.7598 11.4426 27.7962 14.5728 28.1135C16.561 28.3038 18.6761 28.4096 20.8334 28.4096C22.9908 28.4096 25.0847 28.3038 27.094 28.1135C29.9493 27.8174 36.2522 26.9291 37.3309 24.6448C37.4366 24.539 37.5001 24.391 37.5001 24.2429V18.7649C35.5965 20.6262 30.9857 21.4722 27.1786 21.8529C25.1481 22.0644 23.0119 22.149 20.8334 22.149Z" fill="#00F4C5"/>
<path d="M20.8334 27.7329C18.6549 27.7329 16.5187 27.6271 14.4882 27.4368C10.5542 27.0349 6.04915 26.1889 4.16675 24.3276V29.5307C4.16675 32.3437 11.4426 33.3801 14.5728 33.6973C16.561 33.8877 18.6761 33.9935 20.8334 33.9935C22.9908 33.9935 25.0847 33.8877 27.094 33.6973C29.9493 33.4012 36.2522 32.5129 37.3309 30.2287C37.4366 30.1229 37.5001 29.9748 37.5001 29.8268V24.3488C35.5965 26.21 30.9857 27.0561 27.1786 27.4368C25.1481 27.6483 23.0119 27.7329 20.8334 27.7329Z" fill="#F105BB"/>
<path d="M37.5001 10.1988V18.5744C37.5001 18.7225 37.4366 18.8705 37.3309 18.9974C36.231 21.2605 29.9282 22.1489 27.0728 22.445C25.0847 22.6353 22.9908 22.7411 20.8334 22.7411C18.6761 22.7411 16.561 22.6353 14.5728 22.445C11.4426 22.1277 4.16675 21.0913 4.16675 18.2783V10.1988L4.44171 10.2411C5.96455 7.89336 13.4307 6.66663 20.8334 6.66663C28.2361 6.66663 35.7234 7.89336 37.204 10.2622L37.5001 10.1988Z" fill="#F105BB"/>
<path d="M37.3943 9.88152C37.3943 9.88152 37.4789 10.0719 37.5001 10.1988C37.5001 11.637 31.0068 13.7309 20.8334 13.7309C11.3579 13.7309 5.09737 11.9331 4.2725 10.516C4.20905 10.4314 4.1879 10.3257 4.16675 10.1988C4.16675 8.76054 10.66 6.66663 20.8334 6.66663C30.3089 6.66663 36.5695 8.46443 37.3943 9.88152Z" fill="#00F4C5"/>
</svg>
