<svg width="40" height="40" viewBox="0 0 40 40" fill="none" xmlns="http://www.w3.org/2000/svg">
<path opacity="0.07" d="M36.6667 3.3667H3.33337V36.7H36.6667V3.3667Z" stroke="#192A4C" stroke-width="0.1" stroke-miterlimit="10"/>
<path d="M20 4.36664C7.90003 4.36664 3.8667 16.4666 3.8667 16.4666C4.98337 19.4333 6.78337 22.1166 9.08337 24.3L10.9167 21.8666C9.3167 20.3166 8.03337 18.4833 7.1167 16.4666C8.25003 13.95 12.0167 7.38331 20 7.38331C27.9834 7.38331 31.7334 13.9333 32.8834 16.4666C31.9667 18.4833 30.6667 20.3166 29.0834 21.85L30.9167 24.2833C33.2334 22.1 35.0167 19.4166 36.15 16.45C36.15 16.45 32.1167 4.34998 20.0167 4.34998L20 4.36664Z" fill="#F105BB"/>
<path d="M13.4501 32.6167H10.4167V35.65H13.4501V32.6167Z" fill="#F105BB"/>
<path d="M21.5167 32.6167H18.4834V35.65H21.5167V32.6167Z" fill="#F105BB"/>
<path d="M29.5834 32.6167H26.55V35.65H29.5834V32.6167Z" fill="#F105BB"/>
<path d="M17.4834 25.5499H14.4501V28.5833H17.4834V25.5499Z" fill="#F105BB"/>
<path d="M25.5501 25.5499H22.5167V28.5833H25.5501V25.5499Z" fill="#F105BB"/>
<path d="M20.0001 11.4333C17.2167 11.4333 14.9501 13.6834 14.9501 16.4834C14.9501 19.2834 17.2001 21.5333 20.0001 21.5333C22.8001 21.5333 25.0501 19.2834 25.0501 16.4834C25.0501 13.6834 22.8001 11.4333 20.0001 11.4333Z" fill="#F105BB"/>
<path d="M20 18.65C20.9941 18.65 21.8 17.8442 21.8 16.85C21.8 15.8559 20.9941 15.05 20 15.05C19.0058 15.05 18.2 15.8559 18.2 16.85C18.2 17.8442 19.0058 18.65 20 18.65Z" fill="#00F4C5"/>
</svg>
