<svg width="40" height="40" viewBox="0 0 40 40" fill="none" xmlns="http://www.w3.org/2000/svg">
<path d="M20 7.08337C12.3833 7.08337 6.19995 13.2667 6.19995 20.8834V25.7834H17.7833V24.45C17.7833 23.2167 18.7833 22.2167 20.0166 22.2167C21.25 22.2167 22.25 23.2167 22.25 24.45V25.7834H33.8333V20.8834C33.8333 13.2667 27.65 7.08337 20.0333 7.08337H20ZM31.1333 23.1167H24.7166C24.25 21.4834 22.9833 20.2 21.3333 19.7334V14.2H18.6666V19.7334C17.0333 20.2 15.75 21.4667 15.2833 23.1167H8.86662V20.8834C8.86662 14.7334 13.85 9.75004 20 9.75004C26.15 9.75004 31.1333 14.7334 31.1333 20.8834V23.1167Z" fill="#112FFF"/>
<path opacity="0.07" d="M36.6666 3.33337H3.33325V36.6667H36.6666V3.33337Z" stroke="#192A4C" stroke-width="0.1" stroke-miterlimit="10"/>
<path d="M21.6169 32.3667H18.3835V35.6H21.6169V32.3667Z" fill="#112FFF"/>
<path d="M30.2167 32.3667H26.9834V35.6H30.2167V32.3667Z" fill="#112FFF"/>
<path d="M13.0168 32.3667H9.78345V35.6H13.0168V32.3667Z" fill="#112FFF"/>
<path d="M31.1334 23.1167H24.7167C24.25 21.4833 22.9834 20.2 21.3334 19.7333V14.2H18.6667V19.7333C17.0334 20.2 15.75 21.4667 15.2834 23.1167H8.8667V20.8833C8.8667 14.7333 13.85 9.75 20 9.75C26.15 9.75 31.1334 14.7333 31.1334 20.8833V23.1167Z" fill="#00F4C5"/>
</svg>
