<svg width="32" height="31" viewBox="0 0 32 31" fill="none" xmlns="http://www.w3.org/2000/svg">
<g clip-path="url(#clip0_827_8298)">
<path d="M28.154 2.21384H0V9.68938H28.154V2.21384Z" fill="#112FFF"/>
<path d="M28.154 16.6655H0V24.141H28.154V16.6655Z" fill="#112FFF"/>
<path d="M28.154 9.45628H0V16.9318H28.154V9.45628Z" fill="#00F4C5"/>
<path d="M28.154 0.698746H0V2.19718H28.154V0.698746Z" fill="#00F4C5"/>
<path d="M21.2447 13.9682H22.0771V11.7539H21.2447V13.9682Z" fill="#112FFF"/>
<path d="M16.1334 13.9682H16.9658V11.7539H16.1334V13.9682Z" fill="#112FFF"/>
<path d="M11.022 13.9682H11.8545V11.7539H11.022V13.9682Z" fill="#112FFF"/>
<path d="M5.67754 13.9682H6.51001V11.7539H5.67754V13.9682Z" fill="#112FFF"/>
<path d="M20.7951 19.6956H21.6275V21.91H20.7951V19.6956ZM16.1499 21.91H16.9824V19.6956H16.1499V21.91ZM11.0386 21.91H11.871V19.6956H11.0386V21.91ZM5.67749 21.91H6.50996V19.6956H5.67749V21.91ZM21.2446 7.25858H22.0771V5.04422H21.2446V7.25858ZM16.1499 7.25858H16.9824V5.04422H16.1499V7.25858ZM11.0386 7.25858H11.871V5.04422H11.0386V7.25858ZM5.67749 7.25858H6.50996V5.04422H5.67749V7.25858Z" fill="#00F4C5"/>
<path d="M30.3017 18.4969V22.576H29.4859V19.3626H21.6107V22.576H20.7949V18.4969H30.3017Z" fill="#00F4C5"/>
<path d="M30.9177 30.3179V29.5021H20.1623V30.3179H30.9177Z" fill="#112FFF"/>
<path d="M19.0967 22.1098V29.4854H31.9999V22.1098H19.0967Z" fill="#00F4C5"/>
<path d="M24.6576 27.3876H26.4724V24.2076H24.6576V27.3876Z" fill="#112FFF"/>
</g>
<defs>
<clipPath id="clip0_827_8298">
<rect width="32" height="29.6025" fill="white" transform="translate(0 0.698746)"/>
</clipPath>
</defs>
</svg>
