<svg width="33" height="32" viewBox="0 0 33 32" fill="none" xmlns="http://www.w3.org/2000/svg">
<g clip-path="url(#clip0_1_1450)">
<path d="M20.35 31.3334H31.7167V29.8334H20.35V31.3334Z" fill="#00F4C5"/>
<path d="M10.2532 17.703L26.956 19.6562L27.1302 18.1664L10.4274 16.2131L10.2532 17.703Z" fill="#00F4C5"/>
<path d="M2.44372 29.2367L20.4874 31.3468L20.6617 29.857L2.61795 27.7469L2.44372 29.2367Z" fill="#00F4C5"/>
<path d="M27.1006 19.6777L30.2604 30.5963L31.7013 30.1793L28.5415 19.2607L27.1006 19.6777Z" fill="#00F4C5"/>
<path d="M16.8535 6.01399L26.4175 18.2115L27.5979 17.2859L18.0339 5.08844L16.8535 6.01399Z" fill="#00F4C5"/>
<path d="M5.75071 2.74218L16.7929 6.18567L17.2395 4.75368L6.19727 1.31019L5.75071 2.74218Z" fill="#00F4C5"/>
<path d="M4.8732 1.44699L9.45532 17.2806L10.8962 16.8637L6.31407 1.03001L4.8732 1.44699Z" fill="#00F4C5"/>
<path d="M26.5633 19.6508L20.7669 29.4285L22.0572 30.1934L27.8536 20.4157L26.5633 19.6508Z" fill="#00F4C5"/>
<path d="M16.1219 6.2652L10.3256 16.0429L11.6159 16.8078L17.4122 7.03012L16.1219 6.2652Z" fill="#00F4C5"/>
<path d="M29.65 32H32.1V29.1833H29.65V32Z" fill="#112FFF"/>
<path d="M26.3667 20.0833H28.8167V17.2666H26.3667V20.0833Z" fill="#112FFF"/>
<path d="M15.9333 7.16663H18.3833V4.34996H15.9333V7.16663Z" fill="#112FFF"/>
<path d="M4.51667 3.14996L6.96667 3.14996V0.333297L4.51667 0.333297V3.14996Z" fill="#112FFF"/>
<path d="M9.93908 17.5364L19.8939 30.2323L21.0743 29.3067L11.1195 16.6109L9.93908 17.5364Z" fill="#00F4C5"/>
<path d="M9.12219 16.6738L1.55804 29.4336L2.84836 30.1985L10.4125 17.4387L9.12219 16.6738Z" fill="#00F4C5"/>
<path d="M19.9833 32H22.4333V29.1833H19.9833V32Z" fill="#112FFF"/>
<path d="M0.333325 32H2.78333L2.78333 29.1833H0.333325L0.333325 32Z" fill="#112FFF"/>
<path d="M9.08333 18.2167H11.5333V15.4H9.08333V18.2167Z" fill="#112FFF"/>
</g>
<defs>
<clipPath id="clip0_1_1450">
<rect width="31.75" height="31.6667" fill="white" transform="translate(0.333313 0.333313)"/>
</clipPath>
</defs>
</svg>
