<svg width="20" height="21" viewBox="0 0 20 21" fill="none" xmlns="http://www.w3.org/2000/svg">
<path d="M10 0.5C15.523 0.5 20 4.977 20 10.5C20 16.023 15.523 20.5 10 20.5C4.477 20.5 0 16.023 0 10.5C0 4.977 4.477 0.5 10 0.5ZM10 2C7.74566 2 5.58365 2.89553 3.98959 4.48959C2.39553 6.08365 1.5 8.24566 1.5 10.5C1.5 12.7543 2.39553 14.9163 3.98959 16.5104C5.58365 18.1045 7.74566 19 10 19C12.2543 19 14.4163 18.1045 16.0104 16.5104C17.6045 14.9163 18.5 12.7543 18.5 10.5C18.5 8.24566 17.6045 6.08365 16.0104 4.48959C14.4163 2.89553 12.2543 2 10 2ZM10 5.5C10.1989 5.5 10.3897 5.57902 10.5303 5.71967C10.671 5.86032 10.75 6.05109 10.75 6.25V9.75H14.25C14.4489 9.75 14.6397 9.82902 14.7803 9.96967C14.921 10.1103 15 10.3011 15 10.5C15 10.6989 14.921 10.8897 14.7803 11.0303C14.6397 11.171 14.4489 11.25 14.25 11.25H10.75V14.75C10.75 14.9489 10.671 15.1397 10.5303 15.2803C10.3897 15.421 10.1989 15.5 10 15.5C9.80109 15.5 9.61032 15.421 9.46967 15.2803C9.32902 15.1397 9.25 14.9489 9.25 14.75V11.25H5.75C5.55109 11.25 5.36032 11.171 5.21967 11.0303C5.07902 10.8897 5 10.6989 5 10.5C5 10.3011 5.07902 10.1103 5.21967 9.96967C5.36032 9.82902 5.55109 9.75 5.75 9.75H9.25V6.25C9.25 6.05109 9.32902 5.86032 9.46967 5.71967C9.61032 5.57902 9.80109 5.5 10 5.5Z" fill="#6969DF"/>
</svg>
