<svg width="40" height="40" viewBox="0 0 40 40" fill="none" xmlns="http://www.w3.org/2000/svg">
<path opacity="0.07" d="M36.6667 3.33337H3.33337V36.6667H36.6667V3.33337Z" stroke="#192A4C" stroke-width="0.1" stroke-miterlimit="10"/>
<path d="M35.8666 33.4667H4.09998V6.46667H18.0666H35.8666V33.4667Z" fill="#F105BB"/>
<path d="M12.2499 6.41663C12.2499 6.41663 17.2499 8.64996 17.9333 12.8166C18.6166 16.9833 13.8499 21.05 12.5833 24.8C11.3166 28.55 12.6666 33.5833 12.6666 33.5833" stroke="#00F4C5" stroke-width="0.75" stroke-miterlimit="10"/>
<path d="M20.3333 6.44995C20.3333 6.44995 25.5833 8.01662 26.7999 12.0666C28.0166 16.1166 23.7999 20.7666 23.0333 24.6333C22.2666 28.5 24.2499 33.3333 24.2499 33.3333" stroke="#00F4C5" stroke-width="0.75" stroke-miterlimit="10"/>
<path d="M35.9 12.0833C35.9 12.0833 33.3 16.5 28.4167 17.1C23.5334 17.7 18.8 13.4833 14.4167 12.3833C10.0334 11.2833 4.15002 12.4667 4.15002 12.4667" stroke="#00F4C5" stroke-width="0.75" stroke-miterlimit="10"/>
<path d="M35.8666 19.2C35.8666 19.2 34.0166 23.8333 29.2333 24.9166C24.45 25.9999 18.9666 22.2666 14.4 21.6C9.8333 20.9333 4.1333 22.6666 4.1333 22.6666" stroke="#00F4C5" stroke-width="0.75" stroke-miterlimit="10"/>
</svg>
