<svg width="40" height="40" viewBox="0 0 40 40" fill="none" xmlns="http://www.w3.org/2000/svg">
<g clip-path="url(#clip0_209_57)">
<path d="M23.3499 34.3334H34.7166V32.8334H23.3499V34.3334Z" fill="#00F4C5"/>
<path d="M13.253 20.7031L29.9558 22.6564L30.13 21.1665L13.4272 19.2133L13.253 20.7031Z" fill="#00F4C5"/>
<path d="M5.4436 32.2369L23.4873 34.3469L23.6615 32.8571L5.61782 30.747L5.4436 32.2369Z" fill="#00F4C5"/>
<path d="M30.1005 22.6778L33.2603 33.5964L34.7011 33.1795L31.5414 22.2608L30.1005 22.6778Z" fill="#00F4C5"/>
<path d="M19.8534 9.01405L29.4175 21.2115L30.5979 20.286L21.0338 8.0885L19.8534 9.01405Z" fill="#00F4C5"/>
<path d="M8.75077 5.74218L19.793 9.18567L20.2395 7.75368L9.19733 4.31019L8.75077 5.74218Z" fill="#00F4C5"/>
<path d="M7.8732 4.44699L12.4553 20.2806L13.8962 19.8637L9.31407 4.03001L7.8732 4.44699Z" fill="#00F4C5"/>
<path d="M29.5632 22.6508L23.7668 32.4285L25.0572 33.1934L30.8535 23.4157L29.5632 22.6508Z" fill="#00F4C5"/>
<path d="M19.1218 9.26527L13.3254 19.043L14.6158 19.8079L20.4121 10.0302L19.1218 9.26527Z" fill="#00F4C5"/>
<path d="M32.6499 35H35.0999V32.1833H32.6499V35Z" fill="#112FFF"/>
<path d="M29.3667 23.0834H31.8167V20.2667H29.3667V23.0834Z" fill="#112FFF"/>
<path d="M18.9333 10.1667H21.3833V7.35008H18.9333V10.1667Z" fill="#112FFF"/>
<path d="M7.51655 6.15002H9.96655V3.33336L7.51655 3.33336V6.15002Z" fill="#112FFF"/>
<path d="M12.939 20.5364L22.8938 33.2323L24.0742 32.3067L14.1194 19.6109L12.939 20.5364Z" fill="#00F4C5"/>
<path d="M12.1223 19.6738L4.55811 32.4336L5.84842 33.1985L13.4126 20.4387L12.1223 19.6738Z" fill="#00F4C5"/>
<path d="M22.9833 35H25.4333V32.1833H22.9833V35Z" fill="#112FFF"/>
<path d="M3.3332 35H5.7832V32.1833H3.3332L3.3332 35Z" fill="#112FFF"/>
<path d="M12.0832 21.2167H14.5332V18.4H12.0832V21.2167Z" fill="#112FFF"/>
</g>
<defs>
<clipPath id="clip0_209_57">
<rect width="31.75" height="31.6667" fill="white" transform="translate(3.33325 3.33337)"/>
</clipPath>
</defs>
</svg>
