<svg width="40" height="40" viewBox="0 0 40 40" fill="none" xmlns="http://www.w3.org/2000/svg">
<path opacity="0.07" d="M36.6666 3.33337H3.33325V36.6667H36.6666V3.33337Z" stroke="#192A4C" stroke-width="0.1" stroke-miterlimit="10"/>
<path d="M35.904 15.4823L9.05469 9.30835L5.64462 24.138L32.4939 30.312L35.904 15.4823Z" fill="#00F4C5"/>
<path d="M21.0666 23.3499C23.1009 23.3499 24.75 21.7009 24.75 19.6666C24.75 17.6324 23.1009 15.9833 21.0666 15.9833C19.0324 15.9833 17.3833 17.6324 17.3833 19.6666C17.3833 21.7009 19.0324 23.3499 21.0666 23.3499Z" fill="#F105BB"/>
<path d="M11.5499 18.2666C11.9826 18.2666 12.3333 17.9159 12.3333 17.4833C12.3333 17.0507 11.9826 16.7 11.5499 16.7C11.1173 16.7 10.7666 17.0507 10.7666 17.4833C10.7666 17.9159 11.1173 18.2666 11.5499 18.2666Z" fill="#F105BB"/>
<path d="M30.6832 22.6666C31.1159 22.6666 31.4666 22.3159 31.4666 21.8833C31.4666 21.4507 31.1159 21.1 30.6832 21.1C30.2506 21.1 29.8999 21.4507 29.8999 21.8833C29.8999 22.3159 30.2506 22.6666 30.6832 22.6666Z" fill="#F105BB"/>
<path d="M31.6332 15.4833H4.08325V30.6999H31.6332V15.4833Z" fill="#F105BB"/>
<path d="M18.0998 26.5832C20.1341 26.5832 21.7832 24.9341 21.7832 22.8999C21.7832 20.8656 20.1341 19.2166 18.0998 19.2166C16.0656 19.2166 14.4165 20.8656 14.4165 22.8999C14.4165 24.9341 16.0656 26.5832 18.0998 26.5832Z" fill="#00F4C5"/>
<path d="M8.33314 23.6832C8.76576 23.6832 9.11647 23.3325 9.11647 22.8999C9.11647 22.4673 8.76576 22.1166 8.33314 22.1166C7.90051 22.1166 7.5498 22.4673 7.5498 22.8999C7.5498 23.3325 7.90051 23.6832 8.33314 23.6832Z" fill="#00F4C5"/>
<path d="M27.9833 23.6832C28.4159 23.6832 28.7666 23.3325 28.7666 22.8999C28.7666 22.4673 28.4159 22.1166 27.9833 22.1166C27.5507 22.1166 27.2 22.4673 27.2 22.8999C27.2 23.3325 27.5507 23.6832 27.9833 23.6832Z" fill="#00F4C5"/>
</svg>
