<svg width="43" height="37" viewBox="0 0 43 37" fill="none" xmlns="http://www.w3.org/2000/svg">
<path d="M42.28 36.5692H26.04C24.4533 31.0963 23.66 25.4243 23.66 19.5533C23.66 13.5828 25.1067 8.85621 28 5.37343C30.9867 1.79114 35.3733 0 41.16 0V8.35868C36.4933 8.35868 34.16 11.3937 34.16 17.4637V20.2996H42.28V36.5692ZM18.62 36.5692H2.38C0.793333 31.0963 0 25.4243 0 19.5533C0 13.5828 1.44667 8.85621 4.34 5.37343C7.32667 1.79114 11.7133 0 17.5 0V8.35868C12.8333 8.35868 10.5 11.3937 10.5 17.4637V20.2996H18.62V36.5692Z" fill="#CBD5E1"/>
</svg>
