<svg width="114" height="115" viewBox="0 0 114 115" fill="none" xmlns="http://www.w3.org/2000/svg">
<g clip-path="url(#clip0_206_66)">
<path d="M15.5765 76.2283L98.4233 76.2283V37.8289L15.5765 37.8289V76.2283Z" fill="url(#paint0_linear_206_66)"/>
<path d="M23.2223 68.6396L90.835 68.6396V45.5315L23.2223 45.5315V68.6396Z" fill="url(#paint1_linear_206_66)"/>
<path d="M102.132 92.2042V96.3124H90.7778V76.2283H94.8289V92.2042H102.132Z" fill="#112FFF"/>
<path d="M55.0029 94.1442H59.054V76.2282H55.0029V94.1442Z" fill="#112FFF"/>
<path d="M23.3363 76.2283V96.3124H11.9819V92.2042H19.2852V76.2283H23.3363Z" fill="#112FFF"/>
<path d="M83.1322 107.21V111.261H72.9189V76.2283H76.97V107.21H83.1322Z" fill="#112FFF"/>
<path d="M41.1952 76.2283V111.261H31.0391V107.21H37.1442V76.2283H41.1952Z" fill="#112FFF"/>
<path d="M109.15 99.1082C111.829 99.1082 114 96.9368 114 94.2583C114 91.5798 111.829 89.4084 109.15 89.4084C106.472 89.4084 104.3 91.5798 104.3 94.2583C104.3 96.9368 106.472 99.1082 109.15 99.1082Z" fill="#112FFF"/>
<path d="M90.0361 114.114C92.7146 114.114 94.886 111.943 94.886 109.264C94.886 106.586 92.7146 104.414 90.0361 104.414C87.3576 104.414 85.1863 106.586 85.1863 109.264C85.1863 111.943 87.3576 114.114 90.0361 114.114Z" fill="#112FFF"/>
<path d="M57.0571 105.784C59.7356 105.784 61.907 103.612 61.907 100.934C61.907 98.2555 59.7356 96.0841 57.0571 96.0841C54.3786 96.0841 52.2073 98.2555 52.2073 100.934C52.2073 103.612 54.3786 105.784 57.0571 105.784Z" fill="#112FFF"/>
<path d="M24.0781 114.114C26.7566 114.114 28.928 111.943 28.928 109.264C28.928 106.586 26.7566 104.414 24.0781 104.414C21.3996 104.414 19.2283 106.586 19.2283 109.264C19.2283 111.943 21.3996 114.114 24.0781 114.114Z" fill="#112FFF"/>
<path d="M4.84985 99.1082C7.52835 99.1082 9.6997 96.9368 9.6997 94.2583C9.6997 91.5798 7.52835 89.4084 4.84985 89.4084C2.17135 89.4084 0 91.5798 0 94.2583C0 96.9368 2.17135 99.1082 4.84985 99.1082Z" fill="#112FFF"/>
<path d="M11.8679 21.9099V17.8018H23.2223V37.8858H19.1712V21.9099H11.8679Z" fill="#112FFF"/>
<path d="M58.94 19.97H54.8889V37.8859H58.94V19.97Z" fill="#112FFF"/>
<path d="M90.6636 37.8858V17.8018H102.018V21.9099H94.7146V37.8858H90.6636Z" fill="#112FFF"/>
<path d="M30.8679 6.90383V2.85278H41.0811V37.8858H37.0301V6.90383H30.8679Z" fill="#112FFF"/>
<path d="M72.8047 37.8858V2.85278H82.9608V6.90383H76.8557V37.8858H72.8047Z" fill="#112FFF"/>
<path d="M4.84985 24.7058C7.52835 24.7058 9.6997 22.5345 9.6997 19.856C9.6997 17.1775 7.52835 15.0061 4.84985 15.0061C2.17135 15.0061 0 17.1775 0 19.856C0 22.5345 2.17135 24.7058 4.84985 24.7058Z" fill="#112FFF"/>
<path d="M23.9639 9.6997C26.6424 9.6997 28.8137 7.52835 28.8137 4.84985C28.8137 2.17135 26.6424 0 23.9639 0C21.2854 0 19.114 2.17135 19.114 4.84985C19.114 7.52835 21.2854 9.6997 23.9639 9.6997Z" fill="#112FFF"/>
<path d="M56.9429 18.03C59.6214 18.03 61.7927 15.8587 61.7927 13.1802C61.7927 10.5017 59.6214 8.33032 56.9429 8.33032C54.2644 8.33032 52.093 10.5017 52.093 13.1802C52.093 15.8587 54.2644 18.03 56.9429 18.03Z" fill="#112FFF"/>
<path d="M89.9219 9.6997C92.6004 9.6997 94.7717 7.52835 94.7717 4.84985C94.7717 2.17135 92.6004 0 89.9219 0C87.2434 0 85.072 2.17135 85.072 4.84985C85.072 7.52835 87.2434 9.6997 89.9219 9.6997Z" fill="#112FFF"/>
<path d="M109.15 24.7058C111.829 24.7058 114 22.5345 114 19.856C114 17.1775 111.829 15.0061 109.15 15.0061C106.472 15.0061 104.3 17.1775 104.3 19.856C104.3 22.5345 106.472 24.7058 109.15 24.7058Z" fill="#112FFF"/>
</g>
<defs>
<linearGradient id="paint0_linear_206_66" x1="15.5765" y1="57.0571" x2="98.4233" y2="57.0571" gradientUnits="userSpaceOnUse">
<stop stop-color="#F105BB"/>
<stop offset="1" stop-color="white"/>
</linearGradient>
<linearGradient id="paint1_linear_206_66" x1="23.1653" y1="57.0571" x2="90.835" y2="57.0571" gradientUnits="userSpaceOnUse">
<stop stop-color="white"/>
<stop offset="1" stop-color="#F105BB"/>
</linearGradient>
<clipPath id="clip0_206_66">
<rect width="114" height="114.114" fill="white"/>
</clipPath>
</defs>
</svg>
