<svg width="114" height="114" viewBox="0 0 114 114" fill="none" xmlns="http://www.w3.org/2000/svg">
<g clip-path="url(#clip0_206_95)">
<path d="M7.36039 37.0971L5.89722 41.0105L55.0946 59.4046L56.5577 55.4912L7.36039 37.0971Z" fill="#112FFF"/>
<path d="M16.1152 105.047L13.1309 101.466L56.1047 69.8324L58.4921 73.4136L16.1152 105.047Z" fill="#112FFF"/>
<path d="M66.8481 0.596924H62.0732V44.1676H66.8481V0.596924Z" fill="#112FFF"/>
<path d="M71.8851 67.357L68.5862 70.8091L100.518 101.324L103.817 97.8716L71.8851 67.357Z" fill="#112FFF"/>
<path d="M102.842 17.8095L74.6611 51.0394L78.3028 54.1278L106.484 20.8978L102.842 17.8095Z" fill="#112FFF"/>
<path d="M64.4608 81.7696C76.3277 81.7696 85.9477 72.1496 85.9477 60.2827C85.9477 48.4158 76.3277 38.7958 64.4608 38.7958C52.5939 38.7958 42.9739 48.4158 42.9739 60.2827C42.9739 72.1496 52.5939 81.7696 64.4608 81.7696Z" fill="url(#paint0_linear_206_95)"/>
<path d="M12.5341 114C17.8083 114 22.0839 109.724 22.0839 104.45C22.0839 99.1761 17.8083 94.9005 12.5341 94.9005C7.25994 94.9005 2.98438 99.1761 2.98438 104.45C2.98438 109.724 7.25994 114 12.5341 114Z" fill="#112FFF"/>
<path d="M9.54974 48.9425C14.8239 48.9425 19.0995 44.6669 19.0995 39.3928C19.0995 34.1186 14.8239 29.843 9.54974 29.843C4.27556 29.843 0 34.1186 0 39.3928C0 44.6669 4.27556 48.9425 9.54974 48.9425Z" fill="#112FFF"/>
<path d="M63.267 19.0995C68.5412 19.0995 72.8168 14.8239 72.8168 9.54974C72.8168 4.27556 68.5412 0 63.267 0C57.9929 0 53.7173 4.27556 53.7173 9.54974C53.7173 14.8239 57.9929 19.0995 63.267 19.0995Z" fill="#112FFF"/>
<path d="M102.66 32.2303C107.934 32.2303 112.209 27.9548 112.209 22.6806C112.209 17.4064 107.934 13.1309 102.66 13.1309C97.3854 13.1309 93.1099 17.4064 93.1099 22.6806C93.1099 27.9548 97.3854 32.2303 102.66 32.2303Z" fill="#112FFF"/>
<path d="M104.45 110.419C109.724 110.419 114 106.143 114 100.869C114 95.5949 109.724 91.3193 104.45 91.3193C99.176 91.3193 94.9004 95.5949 94.9004 100.869C94.9004 106.143 99.176 110.419 104.45 110.419Z" fill="#112FFF"/>
</g>
<defs>
<linearGradient id="paint0_linear_206_95" x1="64.4608" y1="34.1775" x2="64.4608" y2="97.3743" gradientUnits="userSpaceOnUse">
<stop stop-color="white"/>
<stop offset="0.18" stop-color="#FCD7F4"/>
<stop offset="0.58" stop-color="#F774D9"/>
<stop offset="1" stop-color="#F105BB"/>
</linearGradient>
<clipPath id="clip0_206_95">
<rect width="114" height="114" fill="white"/>
</clipPath>
</defs>
</svg>
