<svg width="40" height="40" viewBox="0 0 40 40" fill="none" xmlns="http://www.w3.org/2000/svg">
<path d="M16.8 29.85C18.4568 29.85 19.8 28.5068 19.8 26.85C19.8 25.1931 18.4568 23.85 16.8 23.85C15.1431 23.85 13.8 25.1931 13.8 26.85C13.8 28.5068 15.1431 29.85 16.8 29.85Z" fill="#00F4C5"/>
<path opacity="0.07" d="M36.6666 3.33337H3.33331V36.6667H36.6666V3.33337Z" stroke="#192A4C" stroke-width="0.1" stroke-miterlimit="10"/>
<path d="M27.7833 19.9833C25.5 19.9833 23.6667 18.1333 23.6667 15.8667C23.6667 13.6 25.5166 11.75 27.7833 11.75V9C23.9833 9 20.9167 12.0833 20.9167 15.8833C20.9167 17.2333 21.3166 18.5333 22.05 19.6667L19.2333 22.4833C16.8 21.1333 13.7333 22 12.3833 24.4333C12.2 24.7667 12.05 25.1333 11.9333 25.5H5.31665V28.25H11.9333C12.6833 30.9333 15.45 32.5 18.1333 31.7667C20.8167 31.0167 22.3833 28.25 21.65 25.5667C21.5333 25.1667 21.3833 24.7833 21.1833 24.4167L24 21.6C27.1666 23.6833 31.4333 22.8167 33.5166 19.65C34.25 18.5333 34.65 17.2167 34.65 15.8667H31.9C31.9 18.15 30.05 19.9833 27.7833 19.9833ZM16.8 29.15C15.5333 29.15 14.5167 28.1167 14.5167 26.8667C14.5167 25.6167 15.55 24.5833 16.8 24.5833C18.05 24.5833 19.0833 25.6167 19.0833 26.8667C19.0833 28.1167 18.05 29.15 16.8 29.15Z" fill="#F105BB"/>
<path d="M9.46667 14.4833H6.71667V17.2333H9.46667V14.4833Z" fill="#F105BB"/>
<path d="M15.8833 14.4833H13.1333V17.2333H15.8833V14.4833Z" fill="#F105BB"/>
<path d="M9.46667 8.06665H6.71667V10.8166H9.46667V8.06665Z" fill="#F105BB"/>
<path d="M15.8833 8.06665H13.1333V10.8166H15.8833V8.06665Z" fill="#F105BB"/>
</svg>
