<svg width="604" height="168" viewBox="0 0 604 168" fill="none" xmlns="http://www.w3.org/2000/svg">
<g clip-path="url(#clip0_1_1503)">
<path d="M29.2565 16H27.9372V56H29.2565V16Z" fill="#112FFF"/>
<path d="M36.6492 16H35.3298V56H36.6492V16Z" fill="#112FFF"/>
<path d="M44.0628 16H42.7435V56H44.0628V16Z" fill="#112FFF"/>
<path d="M55.9791 29.2566V27.9372L15.9791 27.9372V29.2566L55.9791 29.2566Z" fill="#112FFF"/>
<path d="M56 36.6493V35.3299H16V36.6493H56Z" fill="#112FFF"/>
<path d="M56 44.0419V42.7225H16V44.0419H56Z" fill="#112FFF"/>
<path d="M48.5236 22.3875H23.4555V49.7382H48.5236V22.3875Z" fill="#112FFF"/>
<path d="M41.3822 30.178H30.6178V41.9267H41.3822V30.178Z" fill="#00F4C5"/>
</g>
<path d="M80.7626 45.336C77.3186 45.336 74.8266 44.132 73.1746 42.368L74.9946 39.848C76.2826 41.22 78.2986 42.424 80.9026 42.424C83.5906 42.424 84.6546 41.108 84.6546 39.876C84.6546 35.956 73.7626 38.392 73.7626 31.504C73.7626 28.424 76.4786 26.044 80.5666 26.044C83.4786 26.044 85.8306 26.968 87.5666 28.648L85.6906 31.084C84.2346 29.628 82.2466 28.956 80.2866 28.956C78.3546 28.956 77.1226 29.88 77.1226 31.28C77.1226 34.752 87.9866 32.596 87.9866 39.568C87.9866 42.676 85.8026 45.336 80.7626 45.336ZM97.0236 45.336C92.7396 45.336 90.0796 42.116 90.0796 38.224C90.0796 34.36 92.7396 31.14 97.0236 31.14C101.364 31.14 103.996 34.36 103.996 38.224C103.996 42.116 101.364 45.336 97.0236 45.336ZM97.0236 42.732C99.5436 42.732 100.944 40.632 100.944 38.224C100.944 35.844 99.5436 33.744 97.0236 33.744C94.5316 33.744 93.1316 35.844 93.1316 38.224C93.1316 40.632 94.5316 42.732 97.0236 42.732ZM113.13 45.336C109.014 45.336 106.13 42.34 106.13 38.224C106.13 34.136 109.014 31.14 113.13 31.14C115.762 31.14 117.358 32.26 118.31 33.548L116.378 35.34C115.622 34.276 114.586 33.744 113.27 33.744C110.806 33.744 109.182 35.592 109.182 38.224C109.182 40.856 110.806 42.732 113.27 42.732C114.586 42.732 115.622 42.172 116.378 41.136L118.31 42.928C117.358 44.216 115.762 45.336 113.13 45.336ZM132.088 45H129.148V43.544C128.14 44.692 126.572 45.336 124.78 45.336C122.568 45.336 120.076 43.852 120.076 40.856C120.076 37.748 122.568 36.46 124.78 36.46C126.6 36.46 128.168 37.048 129.148 38.196V36.18C129.148 34.612 127.86 33.66 125.984 33.66C124.472 33.66 123.156 34.22 121.98 35.368L120.776 33.324C122.344 31.84 124.304 31.14 126.46 31.14C129.456 31.14 132.088 32.4 132.088 36.04V45ZM125.928 43.32C127.216 43.32 128.476 42.844 129.148 41.92V39.876C128.476 38.952 127.216 38.476 125.928 38.476C124.276 38.476 123.044 39.428 123.044 40.912C123.044 42.368 124.276 43.32 125.928 43.32ZM139.96 45.336C137.692 45.336 136.488 44.104 136.488 41.864V34.052H134.248V31.476H136.488V27.78H139.428V31.476H142.172V34.052H139.428V41.136C139.428 42.06 139.876 42.732 140.716 42.732C141.276 42.732 141.808 42.508 142.032 42.256L142.732 44.468C142.2 44.972 141.332 45.336 139.96 45.336ZM146.298 29.824C145.318 29.824 144.478 29.012 144.478 28.004C144.478 26.996 145.318 26.184 146.298 26.184C147.306 26.184 148.118 26.996 148.118 28.004C148.118 29.012 147.306 29.824 146.298 29.824ZM147.782 45H144.842V31.476H147.782V45ZM157.755 45.336C153.639 45.336 150.755 42.34 150.755 38.224C150.755 34.136 153.639 31.14 157.755 31.14C160.387 31.14 161.983 32.26 162.935 33.548L161.003 35.34C160.247 34.276 159.211 33.744 157.895 33.744C155.431 33.744 153.807 35.592 153.807 38.224C153.807 40.856 155.431 42.732 157.895 42.732C159.211 42.732 160.247 42.172 161.003 41.136L162.935 42.928C161.983 44.216 160.387 45.336 157.755 45.336Z" fill="black"/>
<path d="M29.56 98H27.76L24.82 87.24L21.88 98H20.08L16.28 84.66H18.12L21.08 95.78L24.14 84.66H25.52L28.58 95.78L31.52 84.66H33.36L29.56 98ZM43.1963 98H41.6963V91.64C41.6963 89.94 40.8163 89.44 39.5163 89.44C38.3563 89.44 37.2363 90.16 36.6563 90.94V98H35.1563V84.66H36.6563V89.74C37.3363 88.94 38.6562 88.1 40.1163 88.1C42.1363 88.1 43.1963 89.08 43.1963 91.18V98ZM53.7314 98H52.2314V96.9C51.4314 97.78 50.3314 98.24 49.0314 98.24C47.3914 98.24 45.6514 97.14 45.6514 95.04C45.6514 92.88 47.3914 91.86 49.0314 91.86C50.3514 91.86 51.4514 92.28 52.2314 93.18V91.44C52.2314 90.14 51.1914 89.4 49.7914 89.4C48.6314 89.4 47.6914 89.82 46.8314 90.74L46.1314 89.7C47.1714 88.62 48.4114 88.1 49.9914 88.1C52.0314 88.1 53.7314 89.02 53.7314 91.36V98ZM49.5714 97.16C50.6314 97.16 51.6514 96.76 52.2314 95.96V94.14C51.6514 93.34 50.6314 92.94 49.5714 92.94C48.1714 92.94 47.1914 93.82 47.1914 95.06C47.1914 96.28 48.1714 97.16 49.5714 97.16ZM59.1783 98.24C57.7583 98.24 57.0383 97.42 57.0383 95.98V89.66H55.4383V88.34H57.0383V85.7H58.5383V88.34H60.4983V89.66H58.5383V95.66C58.5383 96.38 58.8583 96.9 59.5183 96.9C59.9383 96.9 60.3383 96.72 60.5383 96.5L60.9783 97.62C60.5983 97.98 60.0583 98.24 59.1783 98.24ZM68.5134 86.96C67.9734 86.96 67.5134 86.52 67.5134 85.96C67.5134 85.4 67.9734 84.94 68.5134 84.94C69.0734 84.94 69.5334 85.4 69.5334 85.96C69.5334 86.52 69.0734 86.96 68.5134 86.96ZM69.2734 98H67.7734V88.34H69.2734V98ZM75.3256 98.24C73.7456 98.24 72.4056 97.76 71.4256 96.72L72.2056 95.64C72.8456 96.38 74.0656 97.02 75.3856 97.02C76.8656 97.02 77.6656 96.32 77.6656 95.36C77.6656 93.02 71.6856 94.46 71.6856 90.88C71.6856 89.38 72.9856 88.1 75.2856 88.1C76.9256 88.1 78.0856 88.72 78.8656 89.5L78.1656 90.54C77.5856 89.84 76.5256 89.32 75.2856 89.32C73.9656 89.32 73.1456 89.98 73.1456 90.84C73.1456 92.96 79.1256 91.56 79.1256 95.32C79.1256 96.94 77.8256 98.24 75.3256 98.24ZM87.4588 86.96C86.9188 86.96 86.4588 86.52 86.4588 85.96C86.4588 85.4 86.9188 84.94 87.4588 84.94C88.0188 84.94 88.4788 85.4 88.4788 85.96C88.4788 86.52 88.0188 86.96 87.4588 86.96ZM88.2188 98H86.7188V88.34H88.2188V98ZM93.6509 98.24C92.2309 98.24 91.5109 97.42 91.5109 95.98V89.66H89.9109V88.34H91.5109V85.7H93.0109V88.34H94.9709V89.66H93.0109V95.66C93.0109 96.38 93.3309 96.9 93.9909 96.9C94.4109 96.9 94.8109 96.72 95.0109 96.5L95.4509 97.62C95.0709 97.98 94.5309 98.24 93.6509 98.24ZM97.8898 90.4C97.2898 90.4 96.7898 89.9 96.7898 89.3C96.7898 88.7 97.2898 88.2 97.8898 88.2C98.4898 88.2 98.9898 88.7 98.9898 89.3C98.9898 89.9 98.4898 90.4 97.8898 90.4ZM97.8898 98.2C97.2898 98.2 96.7898 97.7 96.7898 97.1C96.7898 96.5 97.2898 96 97.8898 96C98.4898 96 98.9898 96.5 98.9898 97.1C98.9898 97.7 98.4898 98.2 97.8898 98.2ZM115.595 98H106.435V96.68C111.235 92.9 113.835 90.68 113.835 88.38C113.835 86.68 112.435 85.94 111.055 85.94C109.455 85.94 108.215 86.62 107.435 87.62L106.415 86.56C107.435 85.22 109.175 84.46 111.055 84.46C113.275 84.46 115.535 85.72 115.535 88.38C115.535 91.1 112.775 93.58 109.055 96.52H115.595V98ZM126.83 98.24C125.25 98.24 123.91 97.76 122.93 96.72L123.71 95.64C124.35 96.38 125.57 97.02 126.89 97.02C128.37 97.02 129.17 96.32 129.17 95.36C129.17 93.02 123.19 94.46 123.19 90.88C123.19 89.38 124.49 88.1 126.79 88.1C128.43 88.1 129.59 88.72 130.37 89.5L129.67 90.54C129.09 89.84 128.03 89.32 126.79 89.32C125.47 89.32 124.65 89.98 124.65 90.84C124.65 92.96 130.63 91.56 130.63 95.32C130.63 96.94 129.33 98.24 126.83 98.24ZM137.426 98.24C134.566 98.24 132.506 96.18 132.506 93.16C132.506 90.36 134.506 88.1 137.266 88.1C140.186 88.1 141.906 90.38 141.906 93.28V93.66H134.086C134.206 95.48 135.486 97 137.566 97C138.666 97 139.786 96.56 140.546 95.78L141.266 96.76C140.306 97.72 139.006 98.24 137.426 98.24ZM140.426 92.56C140.406 91.12 139.446 89.34 137.246 89.34C135.186 89.34 134.166 91.08 134.086 92.56H140.426ZM152.356 98H150.856V91.68C150.856 89.98 149.996 89.44 148.696 89.44C147.516 89.44 146.396 90.16 145.836 90.94V98H144.336V88.34H145.836V89.74C146.516 88.94 147.836 88.1 149.276 88.1C151.296 88.1 152.356 89.12 152.356 91.22V98ZM157.792 98.24C156.372 98.24 155.652 97.42 155.652 95.98V89.66H154.052V88.34H155.652V85.7H157.152V88.34H159.112V89.66H157.152V95.66C157.152 96.38 157.472 96.9 158.132 96.9C158.552 96.9 158.952 96.72 159.152 96.5L159.592 97.62C159.212 97.98 158.672 98.24 157.792 98.24ZM165.59 98.24C162.73 98.24 160.67 96.18 160.67 93.16C160.67 90.36 162.67 88.1 165.43 88.1C168.35 88.1 170.07 90.38 170.07 93.28V93.66H162.25C162.37 95.48 163.65 97 165.73 97C166.83 97 167.95 96.56 168.71 95.78L169.43 96.76C168.47 97.72 167.17 98.24 165.59 98.24ZM168.59 92.56C168.57 91.12 167.61 89.34 165.41 89.34C163.35 89.34 162.33 91.08 162.25 92.56H168.59ZM180.52 98H179.02V91.68C179.02 89.98 178.16 89.44 176.86 89.44C175.68 89.44 174.56 90.16 174 90.94V98H172.5V88.34H174V89.74C174.68 88.94 176 88.1 177.44 88.1C179.46 88.1 180.52 89.12 180.52 91.22V98ZM187.776 98.24C184.896 98.24 182.956 96.04 182.956 93.16C182.956 90.3 184.896 88.1 187.776 88.1C189.536 88.1 190.576 88.82 191.316 89.78L190.316 90.7C189.676 89.82 188.856 89.44 187.856 89.44C185.796 89.44 184.516 91.02 184.516 93.16C184.516 95.3 185.796 96.9 187.856 96.9C188.856 96.9 189.676 96.5 190.316 95.64L191.316 96.56C190.576 97.52 189.536 98.24 187.776 98.24ZM197.778 98.24C194.918 98.24 192.858 96.18 192.858 93.16C192.858 90.36 194.858 88.1 197.618 88.1C200.538 88.1 202.258 90.38 202.258 93.28V93.66H194.438C194.558 95.48 195.838 97 197.918 97C199.018 97 200.138 96.56 200.898 95.78L201.618 96.76C200.658 97.72 199.358 98.24 197.778 98.24ZM200.778 92.56C200.758 91.12 199.798 89.34 197.598 89.34C195.538 89.34 194.518 91.08 194.438 92.56H200.778ZM207.748 98.24C206.168 98.24 204.828 97.76 203.847 96.72L204.628 95.64C205.268 96.38 206.488 97.02 207.808 97.02C209.288 97.02 210.088 96.32 210.088 95.36C210.088 93.02 204.108 94.46 204.108 90.88C204.108 89.38 205.408 88.1 207.708 88.1C209.348 88.1 210.508 88.72 211.288 89.5L210.588 90.54C210.008 89.84 208.948 89.32 207.708 89.32C206.388 89.32 205.568 89.98 205.568 90.84C205.568 92.96 211.548 91.56 211.548 95.32C211.548 96.94 210.248 98.24 207.748 98.24ZM29.56 122H27.76L24.82 111.24L21.88 122H20.08L16.28 108.66H18.12L21.08 119.78L24.14 108.66H25.52L28.58 119.78L31.52 108.66H33.36L29.56 122ZM43.1963 122H41.6963V115.64C41.6963 113.94 40.8163 113.44 39.5163 113.44C38.3563 113.44 37.2363 114.16 36.6563 114.94V122H35.1563V108.66H36.6563V113.74C37.3363 112.94 38.6562 112.1 40.1163 112.1C42.1363 112.1 43.1963 113.08 43.1963 115.18V122ZM53.7314 122H52.2314V120.9C51.4314 121.78 50.3314 122.24 49.0314 122.24C47.3914 122.24 45.6514 121.14 45.6514 119.04C45.6514 116.88 47.3914 115.86 49.0314 115.86C50.3514 115.86 51.4514 116.28 52.2314 117.18V115.44C52.2314 114.14 51.1914 113.4 49.7914 113.4C48.6314 113.4 47.6914 113.82 46.8314 114.74L46.1314 113.7C47.1714 112.62 48.4114 112.1 49.9914 112.1C52.0314 112.1 53.7314 113.02 53.7314 115.36V122ZM49.5714 121.16C50.6314 121.16 51.6514 120.76 52.2314 119.96V118.14C51.6514 117.34 50.6314 116.94 49.5714 116.94C48.1714 116.94 47.1914 117.82 47.1914 119.06C47.1914 120.28 48.1714 121.16 49.5714 121.16ZM59.1783 122.24C57.7583 122.24 57.0383 121.42 57.0383 119.98V113.66H55.4383V112.34H57.0383V109.7H58.5383V112.34H60.4983V113.66H58.5383V119.66C58.5383 120.38 58.8583 120.9 59.5183 120.9C59.9383 120.9 60.3383 120.72 60.5383 120.5L60.9783 121.62C60.5983 121.98 60.0583 122.24 59.1783 122.24ZM76.2734 122H74.7734V120.56C74.0534 121.54 72.8734 122.24 71.5134 122.24C68.9934 122.24 67.2134 120.32 67.2134 117.18C67.2134 114.1 68.9734 112.1 71.5134 112.1C72.8134 112.1 73.9934 112.74 74.7734 113.8V108.66H76.2734V122ZM71.8734 120.9C73.0734 120.9 74.2334 120.22 74.7734 119.38V115C74.2334 114.16 73.0734 113.44 71.8734 113.44C69.9334 113.44 68.7734 115.04 68.7734 117.18C68.7734 119.32 69.9334 120.9 71.8734 120.9ZM83.4973 122.24C80.5573 122.24 78.7173 119.96 78.7173 117.16C78.7173 114.36 80.5573 112.1 83.4973 112.1C86.4373 112.1 88.2773 114.36 88.2773 117.16C88.2773 119.96 86.4373 122.24 83.4973 122.24ZM83.4973 120.9C85.5573 120.9 86.6973 119.14 86.6973 117.16C86.6973 115.2 85.5573 113.44 83.4973 113.44C81.4373 113.44 80.2773 115.2 80.2773 117.16C80.2773 119.14 81.4373 120.9 83.4973 120.9ZM95.0827 122.24C92.2227 122.24 90.1627 120.18 90.1627 117.16C90.1627 114.36 92.1627 112.1 94.9227 112.1C97.8427 112.1 99.5627 114.38 99.5627 117.28V117.66H91.7427C91.8627 119.48 93.1427 121 95.2227 121C96.3227 121 97.4427 120.56 98.2027 119.78L98.9227 120.76C97.9627 121.72 96.6627 122.24 95.0827 122.24ZM98.0827 116.56C98.0627 115.12 97.1027 113.34 94.9027 113.34C92.8427 113.34 91.8227 115.08 91.7427 116.56H98.0827ZM105.052 122.24C103.472 122.24 102.132 121.76 101.152 120.72L101.932 119.64C102.572 120.38 103.792 121.02 105.112 121.02C106.592 121.02 107.392 120.32 107.392 119.36C107.392 117.02 101.412 118.46 101.412 114.88C101.412 113.38 102.712 112.1 105.012 112.1C106.652 112.1 107.812 112.72 108.592 113.5L107.892 114.54C107.312 113.84 106.252 113.32 105.012 113.32C103.692 113.32 102.872 113.98 102.872 114.84C102.872 116.96 108.852 115.56 108.852 119.32C108.852 120.94 107.552 122.24 105.052 122.24ZM117.185 110.96C116.645 110.96 116.185 110.52 116.185 109.96C116.185 109.4 116.645 108.94 117.185 108.94C117.745 108.94 118.205 109.4 118.205 109.96C118.205 110.52 117.745 110.96 117.185 110.96ZM117.945 122H116.445V112.34H117.945V122ZM123.378 122.24C121.958 122.24 121.238 121.42 121.238 119.98V113.66H119.638V112.34H121.238V109.7H122.738V112.34H124.698V113.66H122.738V119.66C122.738 120.38 123.058 120.9 123.718 120.9C124.138 120.9 124.538 120.72 124.738 120.5L125.178 121.62C124.798 121.98 124.258 122.24 123.378 122.24ZM140.473 122H138.973V120.56C138.253 121.54 137.073 122.24 135.713 122.24C133.193 122.24 131.413 120.32 131.413 117.18C131.413 114.1 133.173 112.1 135.713 112.1C137.013 112.1 138.193 112.74 138.973 113.8V108.66H140.473V122ZM136.073 120.9C137.273 120.9 138.433 120.22 138.973 119.38V115C138.433 114.16 137.273 113.44 136.073 113.44C134.133 113.44 132.973 115.04 132.973 117.18C132.973 119.32 134.133 120.9 136.073 120.9ZM147.697 122.24C144.757 122.24 142.917 119.96 142.917 117.16C142.917 114.36 144.757 112.1 147.697 112.1C150.637 112.1 152.477 114.36 152.477 117.16C152.477 119.96 150.637 122.24 147.697 122.24ZM147.697 120.9C149.757 120.9 150.897 119.14 150.897 117.16C150.897 115.2 149.757 113.44 147.697 113.44C145.637 113.44 144.477 115.2 144.477 117.16C144.477 119.14 145.637 120.9 147.697 120.9ZM161.998 122H160.498V113.66H158.898V112.34H160.498V111.6C160.498 109.62 161.578 108.46 163.298 108.46C164.058 108.46 164.738 108.64 165.338 109.2L164.718 110.18C164.398 109.9 164.018 109.7 163.518 109.7C162.538 109.7 161.998 110.38 161.998 111.6V112.34H163.958V113.66H161.998V122ZM169.962 122.24C167.022 122.24 165.182 119.96 165.182 117.16C165.182 114.36 167.022 112.1 169.962 112.1C172.902 112.1 174.742 114.36 174.742 117.16C174.742 119.96 172.902 122.24 169.962 122.24ZM169.962 120.9C172.022 120.9 173.162 119.14 173.162 117.16C173.162 115.2 172.022 113.44 169.962 113.44C167.902 113.44 166.742 115.2 166.742 117.16C166.742 119.14 167.902 120.9 169.962 120.9ZM178.688 122H177.188V112.34H178.688V113.9C179.468 112.88 180.588 112.14 181.908 112.14V113.68C181.728 113.64 181.548 113.62 181.308 113.62C180.388 113.62 179.128 114.38 178.688 115.16V122ZM191.385 122.24C189.965 122.24 189.245 121.42 189.245 119.98V113.66H187.645V112.34H189.245V109.7H190.745V112.34H192.705V113.66H190.745V119.66C190.745 120.38 191.065 120.9 191.725 120.9C192.145 120.9 192.545 120.72 192.745 120.5L193.185 121.62C192.805 121.98 192.265 122.24 191.385 122.24ZM202.864 122H201.364V115.64C201.364 113.94 200.484 113.44 199.184 113.44C198.024 113.44 196.904 114.16 196.324 114.94V122H194.824V108.66H196.324V113.74C197.004 112.94 198.324 112.1 199.784 112.1C201.804 112.1 202.864 113.08 202.864 115.18V122ZM210.219 122.24C207.359 122.24 205.299 120.18 205.299 117.16C205.299 114.36 207.299 112.1 210.059 112.1C212.979 112.1 214.699 114.38 214.699 117.28V117.66H206.879C206.999 119.48 208.279 121 210.359 121C211.459 121 212.579 120.56 213.339 119.78L214.059 120.76C213.099 121.72 211.799 122.24 210.219 122.24ZM213.219 116.56C213.199 115.12 212.239 113.34 210.039 113.34C207.979 113.34 206.959 115.08 206.879 116.56H213.219ZM226.645 122.24C223.785 122.24 221.725 120.18 221.725 117.16C221.725 114.36 223.725 112.1 226.485 112.1C229.405 112.1 231.125 114.38 231.125 117.28V117.66H223.305C223.425 119.48 224.705 121 226.785 121C227.885 121 229.005 120.56 229.765 119.78L230.485 120.76C229.525 121.72 228.225 122.24 226.645 122.24ZM229.645 116.56C229.625 115.12 228.665 113.34 226.465 113.34C224.405 113.34 223.385 115.08 223.305 116.56H229.645ZM241.575 122H240.075V115.68C240.075 113.98 239.215 113.44 237.915 113.44C236.735 113.44 235.615 114.16 235.055 114.94V122H233.555V112.34H235.055V113.74C235.735 112.94 237.055 112.1 238.495 112.1C240.515 112.1 241.575 113.12 241.575 115.22V122ZM247.01 122.24C245.59 122.24 244.87 121.42 244.87 119.98V113.66H243.27V112.34H244.87V109.7H246.37V112.34H248.33V113.66H246.37V119.66C246.37 120.38 246.69 120.9 247.35 120.9C247.77 120.9 248.17 120.72 248.37 120.5L248.81 121.62C248.43 121.98 247.89 122.24 247.01 122.24ZM254.809 122.24C251.949 122.24 249.889 120.18 249.889 117.16C249.889 114.36 251.889 112.1 254.649 112.1C257.569 112.1 259.289 114.38 259.289 117.28V117.66H251.469C251.589 119.48 252.869 121 254.949 121C256.049 121 257.169 120.56 257.929 119.78L258.649 120.76C257.689 121.72 256.389 122.24 254.809 122.24ZM257.809 116.56C257.789 115.12 256.829 113.34 254.629 113.34C252.569 113.34 251.549 115.08 251.469 116.56H257.809ZM263.219 122H261.719V112.34H263.219V113.9C263.999 112.88 265.119 112.14 266.439 112.14V113.68C266.259 113.64 266.079 113.62 265.839 113.62C264.919 113.62 263.659 114.38 263.219 115.16V122ZM273.08 122.24C271.76 122.24 270.6 121.62 269.82 120.54V125.68H268.32V112.34H269.82V113.78C270.52 112.8 271.72 112.1 273.08 112.1C275.62 112.1 277.38 114.02 277.38 117.16C277.38 120.28 275.62 122.24 273.08 122.24ZM272.7 120.9C274.64 120.9 275.8 119.3 275.8 117.16C275.8 115.02 274.64 113.44 272.7 113.44C271.52 113.44 270.34 114.14 269.82 114.98V119.34C270.34 120.18 271.52 120.9 272.7 120.9ZM281.266 122H279.766V112.34H281.266V113.9C282.046 112.88 283.166 112.14 284.486 112.14V113.68C284.306 113.64 284.126 113.62 283.886 113.62C282.966 113.62 281.706 114.38 281.266 115.16V122ZM287.107 110.96C286.567 110.96 286.107 110.52 286.107 109.96C286.107 109.4 286.567 108.94 287.107 108.94C287.667 108.94 288.127 109.4 288.127 109.96C288.127 110.52 287.667 110.96 287.107 110.96ZM287.867 122H286.367V112.34H287.867V122ZM293.919 122.24C292.339 122.24 290.999 121.76 290.019 120.72L290.799 119.64C291.439 120.38 292.659 121.02 293.979 121.02C295.459 121.02 296.259 120.32 296.259 119.36C296.259 117.02 290.279 118.46 290.279 114.88C290.279 113.38 291.579 112.1 293.879 112.1C295.519 112.1 296.679 112.72 297.459 113.5L296.759 114.54C296.179 113.84 295.119 113.32 293.879 113.32C292.559 113.32 291.739 113.98 291.739 114.84C291.739 116.96 297.719 115.56 297.719 119.32C297.719 120.94 296.419 122.24 293.919 122.24ZM304.516 122.24C301.656 122.24 299.596 120.18 299.596 117.16C299.596 114.36 301.596 112.1 304.356 112.1C307.276 112.1 308.996 114.38 308.996 117.28V117.66H301.176C301.296 119.48 302.576 121 304.656 121C305.756 121 306.876 120.56 307.636 119.78L308.356 120.76C307.396 121.72 306.096 122.24 304.516 122.24ZM307.516 116.56C307.496 115.12 306.536 113.34 304.336 113.34C302.276 113.34 301.256 115.08 301.176 116.56H307.516ZM311.106 122.4H309.926L314.666 108.26H315.846L311.106 122.4ZM321.604 122.24C318.724 122.24 316.784 120.04 316.784 117.16C316.784 114.3 318.724 112.1 321.604 112.1C323.364 112.1 324.404 112.82 325.144 113.78L324.144 114.7C323.504 113.82 322.684 113.44 321.684 113.44C319.624 113.44 318.344 115.02 318.344 117.16C318.344 119.3 319.624 120.9 321.684 120.9C322.684 120.9 323.504 120.5 324.144 119.64L325.144 120.56C324.404 121.52 323.364 122.24 321.604 122.24ZM335.266 122H333.766V120.64C333.026 121.48 331.766 122.24 330.326 122.24C328.306 122.24 327.246 121.26 327.246 119.16V112.34H328.746V118.7C328.746 120.4 329.606 120.9 330.906 120.9C332.086 120.9 333.206 120.22 333.766 119.44V112.34H335.266V122ZM341.322 122.24C339.742 122.24 338.402 121.76 337.422 120.72L338.202 119.64C338.842 120.38 340.062 121.02 341.382 121.02C342.862 121.02 343.662 120.32 343.662 119.36C343.662 117.02 337.682 118.46 337.682 114.88C337.682 113.38 338.982 112.1 341.282 112.1C342.922 112.1 344.082 112.72 344.862 113.5L344.162 114.54C343.582 113.84 342.522 113.32 341.282 113.32C339.962 113.32 339.142 113.98 339.142 114.84C339.142 116.96 345.122 115.56 345.122 119.32C345.122 120.94 343.822 122.24 341.322 122.24ZM349.999 122.24C348.579 122.24 347.859 121.42 347.859 119.98V113.66H346.259V112.34H347.859V109.7H349.359V112.34H351.319V113.66H349.359V119.66C349.359 120.38 349.679 120.9 350.339 120.9C350.759 120.9 351.159 120.72 351.359 120.5L351.799 121.62C351.419 121.98 350.879 122.24 349.999 122.24ZM357.658 122.24C354.718 122.24 352.878 119.96 352.878 117.16C352.878 114.36 354.718 112.1 357.658 112.1C360.598 112.1 362.438 114.36 362.438 117.16C362.438 119.96 360.598 122.24 357.658 122.24ZM357.658 120.9C359.718 120.9 360.858 119.14 360.858 117.16C360.858 115.2 359.718 113.44 357.658 113.44C355.598 113.44 354.438 115.2 354.438 117.16C354.438 119.14 355.598 120.9 357.658 120.9ZM378.043 122H376.543V115.44C376.543 114.22 376.003 113.44 374.763 113.44C373.763 113.44 372.703 114.16 372.203 114.92V122H370.703V115.44C370.703 114.22 370.183 113.44 368.923 113.44C367.943 113.44 366.903 114.16 366.383 114.94V122H364.883V112.34H366.383V113.74C366.783 113.12 368.083 112.1 369.503 112.1C370.983 112.1 371.823 112.9 372.103 113.9C372.643 113.02 373.943 112.1 375.343 112.1C377.103 112.1 378.043 113.08 378.043 115.02V122ZM385.395 122.24C382.535 122.24 380.475 120.18 380.475 117.16C380.475 114.36 382.475 112.1 385.235 112.1C388.155 112.1 389.875 114.38 389.875 117.28V117.66H382.055C382.175 119.48 383.455 121 385.535 121C386.635 121 387.755 120.56 388.515 119.78L389.235 120.76C388.275 121.72 386.975 122.24 385.395 122.24ZM388.395 116.56C388.375 115.12 387.415 113.34 385.215 113.34C383.155 113.34 382.135 115.08 382.055 116.56H388.395ZM393.805 122H392.305V112.34H393.805V113.9C394.585 112.88 395.705 112.14 397.025 112.14V113.68C396.845 113.64 396.665 113.62 396.425 113.62C395.505 113.62 394.245 114.38 393.805 115.16V122ZM399.706 114.4C399.106 114.4 398.606 113.9 398.606 113.3C398.606 112.7 399.106 112.2 399.706 112.2C400.306 112.2 400.806 112.7 400.806 113.3C400.806 113.9 400.306 114.4 399.706 114.4ZM399.706 122.2C399.106 122.2 398.606 121.7 398.606 121.1C398.606 120.5 399.106 120 399.706 120C400.306 120 400.806 120.5 400.806 121.1C400.806 121.7 400.306 122.2 399.706 122.2ZM417.412 122H408.252V120.68C413.052 116.9 415.652 114.68 415.652 112.38C415.652 110.68 414.252 109.94 412.872 109.94C411.272 109.94 410.032 110.62 409.252 111.62L408.232 110.56C409.252 109.22 410.992 108.46 412.872 108.46C415.092 108.46 417.352 109.72 417.352 112.38C417.352 115.1 414.592 117.58 410.872 120.52H417.412V122ZM428.646 122.24C427.066 122.24 425.726 121.76 424.746 120.72L425.526 119.64C426.166 120.38 427.386 121.02 428.706 121.02C430.186 121.02 430.986 120.32 430.986 119.36C430.986 117.02 425.006 118.46 425.006 114.88C425.006 113.38 426.306 112.1 428.606 112.1C430.246 112.1 431.406 112.72 432.186 113.5L431.486 114.54C430.906 113.84 429.846 113.32 428.606 113.32C427.286 113.32 426.466 113.98 426.466 114.84C426.466 116.96 432.446 115.56 432.446 119.32C432.446 120.94 431.146 122.24 428.646 122.24ZM439.243 122.24C436.383 122.24 434.323 120.18 434.323 117.16C434.323 114.36 436.323 112.1 439.083 112.1C442.003 112.1 443.723 114.38 443.723 117.28V117.66H435.903C436.023 119.48 437.303 121 439.383 121C440.483 121 441.603 120.56 442.363 119.78L443.083 120.76C442.123 121.72 440.823 122.24 439.243 122.24ZM442.243 116.56C442.223 115.12 441.263 113.34 439.063 113.34C437.003 113.34 435.983 115.08 435.903 116.56H442.243ZM454.172 122H452.672V115.68C452.672 113.98 451.812 113.44 450.512 113.44C449.332 113.44 448.212 114.16 447.652 114.94V122H446.152V112.34H447.652V113.74C448.332 112.94 449.652 112.1 451.092 112.1C453.112 112.1 454.172 113.12 454.172 115.22V122ZM459.608 122.24C458.188 122.24 457.468 121.42 457.468 119.98V113.66H455.868V112.34H457.468V109.7H458.968V112.34H460.928V113.66H458.968V119.66C458.968 120.38 459.288 120.9 459.948 120.9C460.368 120.9 460.768 120.72 460.968 120.5L461.408 121.62C461.028 121.98 460.488 122.24 459.608 122.24ZM467.407 122.24C464.547 122.24 462.487 120.18 462.487 117.16C462.487 114.36 464.487 112.1 467.247 112.1C470.167 112.1 471.887 114.38 471.887 117.28V117.66H464.067C464.187 119.48 465.467 121 467.547 121C468.647 121 469.767 120.56 470.527 119.78L471.247 120.76C470.287 121.72 468.987 122.24 467.407 122.24ZM470.407 116.56C470.387 115.12 469.427 113.34 467.227 113.34C465.167 113.34 464.147 115.08 464.067 116.56H470.407ZM482.336 122H480.836V115.68C480.836 113.98 479.976 113.44 478.676 113.44C477.496 113.44 476.376 114.16 475.816 114.94V122H474.316V112.34H475.816V113.74C476.496 112.94 477.816 112.1 479.256 112.1C481.276 112.1 482.336 113.12 482.336 115.22V122ZM489.592 122.24C486.712 122.24 484.772 120.04 484.772 117.16C484.772 114.3 486.712 112.1 489.592 112.1C491.352 112.1 492.392 112.82 493.132 113.78L492.132 114.7C491.492 113.82 490.672 113.44 489.672 113.44C487.612 113.44 486.332 115.02 486.332 117.16C486.332 119.3 487.612 120.9 489.672 120.9C490.672 120.9 491.492 120.5 492.132 119.64L493.132 120.56C492.392 121.52 491.352 122.24 489.592 122.24ZM499.594 122.24C496.734 122.24 494.674 120.18 494.674 117.16C494.674 114.36 496.674 112.1 499.434 112.1C502.354 112.1 504.074 114.38 504.074 117.28V117.66H496.254C496.374 119.48 497.654 121 499.734 121C500.834 121 501.954 120.56 502.714 119.78L503.434 120.76C502.474 121.72 501.174 122.24 499.594 122.24ZM502.594 116.56C502.574 115.12 501.614 113.34 499.414 113.34C497.354 113.34 496.334 115.08 496.254 116.56H502.594ZM509.564 122.24C507.984 122.24 506.644 121.76 505.664 120.72L506.444 119.64C507.084 120.38 508.304 121.02 509.624 121.02C511.104 121.02 511.904 120.32 511.904 119.36C511.904 117.02 505.924 118.46 505.924 114.88C505.924 113.38 507.224 112.1 509.524 112.1C511.164 112.1 512.324 112.72 513.104 113.5L512.404 114.54C511.824 113.84 510.764 113.32 509.524 113.32C508.204 113.32 507.384 113.98 507.384 114.84C507.384 116.96 513.364 115.56 513.364 119.32C513.364 120.94 512.064 122.24 509.564 122.24ZM28.68 146H27.02V139.88H19.22V146H17.56V132.66H19.22V138.4H27.02V132.66H28.68V146ZM35.9583 146.24C33.0183 146.24 31.1783 143.96 31.1783 141.16C31.1783 138.36 33.0183 136.1 35.9583 136.1C38.8983 136.1 40.7383 138.36 40.7383 141.16C40.7383 143.96 38.8983 146.24 35.9583 146.24ZM35.9583 144.9C38.0183 144.9 39.1583 143.14 39.1583 141.16C39.1583 139.2 38.0183 137.44 35.9583 137.44C33.8983 137.44 32.7383 139.2 32.7383 141.16C32.7383 143.14 33.8983 144.9 35.9583 144.9ZM53.0436 146H51.5436L49.0236 138.24L46.5036 146H45.0036L41.9236 136.34H43.4836L45.8436 144.04L48.3836 136.34H49.6636L52.2036 144.04L54.5636 136.34H56.1236L53.0436 146ZM71.5273 146H70.0273V144.56C69.3073 145.54 68.1273 146.24 66.7673 146.24C64.2473 146.24 62.4673 144.32 62.4673 141.18C62.4673 138.1 64.2273 136.1 66.7673 136.1C68.0673 136.1 69.2473 136.74 70.0273 137.8V132.66H71.5273V146ZM67.1273 144.9C68.3273 144.9 69.4873 144.22 70.0273 143.38V139C69.4873 138.16 68.3273 137.44 67.1273 137.44C65.1873 137.44 64.0273 139.04 64.0273 141.18C64.0273 143.32 65.1873 144.9 67.1273 144.9ZM78.7513 146.24C75.8113 146.24 73.9713 143.96 73.9713 141.16C73.9713 138.36 75.8113 136.1 78.7513 136.1C81.6913 136.1 83.5313 138.36 83.5313 141.16C83.5313 143.96 81.6913 146.24 78.7513 146.24ZM78.7513 144.9C80.8113 144.9 81.9513 143.14 81.9513 141.16C81.9513 139.2 80.8113 137.44 78.7513 137.44C76.6913 137.44 75.5312 139.2 75.5312 141.16C75.5312 143.14 76.6913 144.9 78.7513 144.9ZM90.3366 146.24C87.4766 146.24 85.4166 144.18 85.4166 141.16C85.4166 138.36 87.4166 136.1 90.1766 136.1C93.0966 136.1 94.8166 138.38 94.8166 141.28V141.66H86.9966C87.1166 143.48 88.3966 145 90.4766 145C91.5766 145 92.6966 144.56 93.4566 143.78L94.1766 144.76C93.2166 145.72 91.9166 146.24 90.3366 146.24ZM93.3366 140.56C93.3166 139.12 92.3566 137.34 90.1566 137.34C88.0966 137.34 87.0766 139.08 86.9966 140.56H93.3366ZM100.306 146.24C98.7261 146.24 97.3861 145.76 96.4061 144.72L97.1861 143.64C97.8261 144.38 99.0461 145.02 100.366 145.02C101.846 145.02 102.646 144.32 102.646 143.36C102.646 141.02 96.6661 142.46 96.6661 138.88C96.6661 137.38 97.9661 136.1 100.266 136.1C101.906 136.1 103.066 136.72 103.846 137.5L103.146 138.54C102.566 137.84 101.506 137.32 100.266 137.32C98.9461 137.32 98.1261 137.98 98.1261 138.84C98.1261 140.96 104.106 139.56 104.106 143.32C104.106 144.94 102.806 146.24 100.306 146.24ZM112.439 134.96C111.899 134.96 111.439 134.52 111.439 133.96C111.439 133.4 111.899 132.94 112.439 132.94C112.999 132.94 113.459 133.4 113.459 133.96C113.459 134.52 112.999 134.96 112.439 134.96ZM113.199 146H111.699V136.34H113.199V146ZM118.631 146.24C117.211 146.24 116.491 145.42 116.491 143.98V137.66H114.891V136.34H116.491V133.7H117.991V136.34H119.951V137.66H117.991V143.66C117.991 144.38 118.311 144.9 118.971 144.9C119.391 144.9 119.791 144.72 119.991 144.5L120.431 145.62C120.051 145.98 119.511 146.24 118.631 146.24ZM135.727 146H134.227V144.56C133.507 145.54 132.327 146.24 130.967 146.24C128.447 146.24 126.667 144.32 126.667 141.18C126.667 138.1 128.427 136.1 130.967 136.1C132.267 136.1 133.447 136.74 134.227 137.8V132.66H135.727V146ZM131.327 144.9C132.527 144.9 133.687 144.22 134.227 143.38V139C133.687 138.16 132.527 137.44 131.327 137.44C129.387 137.44 128.227 139.04 128.227 141.18C128.227 143.32 129.387 144.9 131.327 144.9ZM142.95 146.24C140.01 146.24 138.17 143.96 138.17 141.16C138.17 138.36 140.01 136.1 142.95 136.1C145.89 136.1 147.73 138.36 147.73 141.16C147.73 143.96 145.89 146.24 142.95 146.24ZM142.95 144.9C145.01 144.9 146.15 143.14 146.15 141.16C146.15 139.2 145.01 137.44 142.95 137.44C140.89 137.44 139.73 139.2 139.73 141.16C139.73 143.14 140.89 144.9 142.95 144.9ZM156.072 134.96C155.532 134.96 155.072 134.52 155.072 133.96C155.072 133.4 155.532 132.94 156.072 132.94C156.632 132.94 157.092 133.4 157.092 133.96C157.092 134.52 156.632 134.96 156.072 134.96ZM156.832 146H155.332V136.34H156.832V146ZM162.264 146.24C160.844 146.24 160.124 145.42 160.124 143.98V137.66H158.524V136.34H160.124V133.7H161.624V136.34H163.584V137.66H161.624V143.66C161.624 144.38 161.944 144.9 162.604 144.9C163.024 144.9 163.424 144.72 163.624 144.5L164.064 145.62C163.684 145.98 163.144 146.24 162.264 146.24ZM166.503 138.4C165.903 138.4 165.403 137.9 165.403 137.3C165.403 136.7 165.903 136.2 166.503 136.2C167.103 136.2 167.603 136.7 167.603 137.3C167.603 137.9 167.103 138.4 166.503 138.4ZM166.503 146.2C165.903 146.2 165.403 145.7 165.403 145.1C165.403 144.5 165.903 144 166.503 144C167.103 144 167.603 144.5 167.603 145.1C167.603 145.7 167.103 146.2 166.503 146.2ZM184.209 146H175.049V144.68C179.849 140.9 182.449 138.68 182.449 136.38C182.449 134.68 181.049 133.94 179.669 133.94C178.069 133.94 176.829 134.62 176.049 135.62L175.029 134.56C176.049 133.22 177.789 132.46 179.669 132.46C181.889 132.46 184.149 133.72 184.149 136.38C184.149 139.1 181.389 141.58 177.669 144.52H184.209V146ZM195.443 146.24C193.863 146.24 192.523 145.76 191.543 144.72L192.323 143.64C192.963 144.38 194.183 145.02 195.503 145.02C196.983 145.02 197.783 144.32 197.783 143.36C197.783 141.02 191.803 142.46 191.803 138.88C191.803 137.38 193.103 136.1 195.403 136.1C197.043 136.1 198.203 136.72 198.983 137.5L198.283 138.54C197.703 137.84 196.643 137.32 195.403 137.32C194.083 137.32 193.263 137.98 193.263 138.84C193.263 140.96 199.243 139.56 199.243 143.32C199.243 144.94 197.943 146.24 195.443 146.24ZM206.04 146.24C203.18 146.24 201.12 144.18 201.12 141.16C201.12 138.36 203.12 136.1 205.88 136.1C208.8 136.1 210.52 138.38 210.52 141.28V141.66H202.7C202.82 143.48 204.1 145 206.18 145C207.28 145 208.4 144.56 209.16 143.78L209.88 144.76C208.92 145.72 207.62 146.24 206.04 146.24ZM209.04 140.56C209.02 139.12 208.06 137.34 205.86 137.34C203.8 137.34 202.78 139.08 202.7 140.56H209.04ZM220.969 146H219.469V139.68C219.469 137.98 218.609 137.44 217.309 137.44C216.129 137.44 215.009 138.16 214.449 138.94V146H212.949V136.34H214.449V137.74C215.129 136.94 216.449 136.1 217.889 136.1C219.909 136.1 220.969 137.12 220.969 139.22V146ZM226.405 146.24C224.985 146.24 224.265 145.42 224.265 143.98V137.66H222.665V136.34H224.265V133.7H225.765V136.34H227.725V137.66H225.765V143.66C225.765 144.38 226.085 144.9 226.745 144.9C227.165 144.9 227.565 144.72 227.765 144.5L228.205 145.62C227.825 145.98 227.285 146.24 226.405 146.24ZM234.204 146.24C231.344 146.24 229.284 144.18 229.284 141.16C229.284 138.36 231.284 136.1 234.044 136.1C236.964 136.1 238.684 138.38 238.684 141.28V141.66H230.864C230.984 143.48 232.264 145 234.344 145C235.444 145 236.564 144.56 237.324 143.78L238.044 144.76C237.084 145.72 235.784 146.24 234.204 146.24ZM237.204 140.56C237.184 139.12 236.224 137.34 234.024 137.34C231.964 137.34 230.944 139.08 230.864 140.56H237.204ZM249.133 146H247.633V139.68C247.633 137.98 246.773 137.44 245.473 137.44C244.293 137.44 243.173 138.16 242.613 138.94V146H241.113V136.34H242.613V137.74C243.293 136.94 244.613 136.1 246.053 136.1C248.073 136.1 249.133 137.12 249.133 139.22V146ZM256.389 146.24C253.509 146.24 251.569 144.04 251.569 141.16C251.569 138.3 253.509 136.1 256.389 136.1C258.149 136.1 259.189 136.82 259.929 137.78L258.929 138.7C258.289 137.82 257.469 137.44 256.469 137.44C254.409 137.44 253.129 139.02 253.129 141.16C253.129 143.3 254.409 144.9 256.469 144.9C257.469 144.9 258.289 144.5 258.929 143.64L259.929 144.56C259.189 145.52 258.149 146.24 256.389 146.24ZM266.391 146.24C263.531 146.24 261.471 144.18 261.471 141.16C261.471 138.36 263.471 136.1 266.231 136.1C269.151 136.1 270.871 138.38 270.871 141.28V141.66H263.051C263.171 143.48 264.451 145 266.531 145C267.631 145 268.751 144.56 269.511 143.78L270.231 144.76C269.271 145.72 267.971 146.24 266.391 146.24ZM269.391 140.56C269.371 139.12 268.411 137.34 266.211 137.34C264.151 137.34 263.131 139.08 263.051 140.56H269.391ZM276.361 146.24C274.781 146.24 273.441 145.76 272.461 144.72L273.241 143.64C273.881 144.38 275.101 145.02 276.421 145.02C277.901 145.02 278.701 144.32 278.701 143.36C278.701 141.02 272.721 142.46 272.721 138.88C272.721 137.38 274.021 136.1 276.321 136.1C277.961 136.1 279.121 136.72 279.901 137.5L279.201 138.54C278.621 137.84 277.561 137.32 276.321 137.32C275.001 137.32 274.181 137.98 274.181 138.84C274.181 140.96 280.161 139.56 280.161 143.32C280.161 144.94 278.861 146.24 276.361 146.24ZM290.854 149.28L289.954 149.98C288.154 147.52 287.134 144.36 287.134 141.14C287.134 137.92 288.154 134.78 289.954 132.3L290.854 132.98C289.574 135.52 288.774 137.8 288.774 141.14C288.774 144.46 289.574 146.76 290.854 149.28ZM295.155 146.24C293.735 146.24 293.015 145.42 293.015 143.98V137.66H291.415V136.34H293.015V133.7H294.515V136.34H296.475V137.66H294.515V143.66C294.515 144.38 294.835 144.9 295.495 144.9C295.915 144.9 296.315 144.72 296.515 144.5L296.955 145.62C296.575 145.98 296.035 146.24 295.155 146.24ZM302.954 146.24C300.094 146.24 298.034 144.18 298.034 141.16C298.034 138.36 300.034 136.1 302.794 136.1C305.714 136.1 307.434 138.38 307.434 141.28V141.66H299.614C299.734 143.48 301.014 145 303.094 145C304.194 145 305.314 144.56 306.074 143.78L306.794 144.76C305.834 145.72 304.534 146.24 302.954 146.24ZM305.954 140.56C305.934 139.12 304.974 137.34 302.774 137.34C300.714 137.34 299.694 139.08 299.614 140.56H305.954ZM314.123 146.24C311.243 146.24 309.303 144.04 309.303 141.16C309.303 138.3 311.243 136.1 314.123 136.1C315.883 136.1 316.923 136.82 317.663 137.78L316.663 138.7C316.023 137.82 315.203 137.44 314.203 137.44C312.143 137.44 310.863 139.02 310.863 141.16C310.863 143.3 312.143 144.9 314.203 144.9C315.203 144.9 316.023 144.5 316.663 143.64L317.663 144.56C316.923 145.52 315.883 146.24 314.123 146.24ZM327.806 146H326.306V139.64C326.306 137.94 325.426 137.44 324.126 137.44C322.966 137.44 321.846 138.16 321.266 138.94V146H319.766V132.66H321.266V137.74C321.946 136.94 323.266 136.1 324.726 136.1C326.746 136.1 327.806 137.08 327.806 139.18V146ZM338.821 146H337.321V139.68C337.321 137.98 336.461 137.44 335.161 137.44C333.981 137.44 332.861 138.16 332.301 138.94V146H330.801V136.34H332.301V137.74C332.981 136.94 334.301 136.1 335.741 136.1C337.761 136.1 338.821 137.12 338.821 139.22V146ZM342.556 134.96C342.016 134.96 341.556 134.52 341.556 133.96C341.556 133.4 342.016 132.94 342.556 132.94C343.116 132.94 343.576 133.4 343.576 133.96C343.576 134.52 343.116 134.96 342.556 134.96ZM343.316 146H341.816V136.34H343.316V146ZM350.569 146.24C347.689 146.24 345.749 144.04 345.749 141.16C345.749 138.3 347.689 136.1 350.569 136.1C352.329 136.1 353.369 136.82 354.109 137.78L353.109 138.7C352.469 137.82 351.649 137.44 350.649 137.44C348.589 137.44 347.309 139.02 347.309 141.16C347.309 143.3 348.589 144.9 350.649 144.9C351.649 144.9 352.469 144.5 353.109 143.64L354.109 144.56C353.369 145.52 352.329 146.24 350.569 146.24ZM363.751 146H362.251V144.9C361.451 145.78 360.351 146.24 359.051 146.24C357.411 146.24 355.671 145.14 355.671 143.04C355.671 140.88 357.411 139.86 359.051 139.86C360.371 139.86 361.471 140.28 362.251 141.18V139.44C362.251 138.14 361.211 137.4 359.811 137.4C358.651 137.4 357.711 137.82 356.851 138.74L356.151 137.7C357.191 136.62 358.431 136.1 360.011 136.1C362.051 136.1 363.751 137.02 363.751 139.36V146ZM359.591 145.16C360.651 145.16 361.671 144.76 362.251 143.96V142.14C361.671 141.34 360.651 140.94 359.591 140.94C358.191 140.94 357.211 141.82 357.211 143.06C357.211 144.28 358.191 145.16 359.591 145.16ZM368.258 146H366.758V132.66H368.258V146ZM371.99 134.96C371.45 134.96 370.99 134.52 370.99 133.96C370.99 133.4 371.45 132.94 371.99 132.94C372.55 132.94 373.01 133.4 373.01 133.96C373.01 134.52 372.55 134.96 371.99 134.96ZM372.75 146H371.25V136.34H372.75V146ZM378.182 146.24C376.762 146.24 376.042 145.42 376.042 143.98V137.66H374.442V136.34H376.042V133.7H377.542V136.34H379.502V137.66H377.542V143.66C377.542 144.38 377.862 144.9 378.522 144.9C378.942 144.9 379.342 144.72 379.542 144.5L379.982 145.62C379.602 145.98 379.062 146.24 378.182 146.24ZM382.361 134.96C381.821 134.96 381.361 134.52 381.361 133.96C381.361 133.4 381.821 132.94 382.361 132.94C382.921 132.94 383.381 133.4 383.381 133.96C383.381 134.52 382.921 134.96 382.361 134.96ZM383.121 146H381.621V136.34H383.121V146ZM390.473 146.24C387.613 146.24 385.553 144.18 385.553 141.16C385.553 138.36 387.553 136.1 390.313 136.1C393.233 136.1 394.953 138.38 394.953 141.28V141.66H387.133C387.253 143.48 388.533 145 390.613 145C391.713 145 392.833 144.56 393.593 143.78L394.313 144.76C393.353 145.72 392.053 146.24 390.473 146.24ZM393.473 140.56C393.453 139.12 392.493 137.34 390.293 137.34C388.233 137.34 387.213 139.08 387.133 140.56H393.473ZM400.443 146.24C398.863 146.24 397.523 145.76 396.543 144.72L397.323 143.64C397.963 144.38 399.183 145.02 400.503 145.02C401.983 145.02 402.783 144.32 402.783 143.36C402.783 141.02 396.803 142.46 396.803 138.88C396.803 137.38 398.103 136.1 400.403 136.1C402.043 136.1 403.203 136.72 403.983 137.5L403.283 138.54C402.703 137.84 401.643 137.32 400.403 137.32C399.083 137.32 398.263 137.98 398.263 138.84C398.263 140.96 404.243 139.56 404.243 143.32C404.243 144.94 402.943 146.24 400.443 146.24ZM406.42 149.98L405.52 149.28C406.82 146.76 407.62 144.46 407.62 141.14C407.62 137.8 406.82 135.52 405.52 132.98L406.42 132.3C408.24 134.78 409.26 137.92 409.26 141.14C409.26 144.36 408.24 147.52 406.42 149.98Z" fill="black"/>
<defs>
<clipPath id="clip0_1_1503">
<rect width="40" height="40" fill="white" transform="translate(16 16)"/>
</clipPath>
</defs>
</svg>
