<svg width="40" height="40" viewBox="0 0 40 40" fill="none" xmlns="http://www.w3.org/2000/svg">
<g clip-path="url(#clip0_209_137)">
<path d="M13.2565 0H11.9371V40H13.2565V0Z" fill="#112FFF"/>
<path d="M20.6492 0H19.3298V40H20.6492V0Z" fill="#112FFF"/>
<path d="M28.0628 0H26.7434V40H28.0628V0Z" fill="#112FFF"/>
<path d="M39.979 13.2565V11.9371L-0.0209999 11.9371V13.2565L39.979 13.2565Z" fill="#112FFF"/>
<path d="M40 20.6492V19.3298L-3.8147e-06 19.3298V20.6492L40 20.6492Z" fill="#112FFF"/>
<path d="M40 28.0419V26.7225L3.8147e-06 26.7225V28.0419L40 28.0419Z" fill="#112FFF"/>
<path d="M32.5235 6.38745H7.45544V33.7382H32.5235V6.38745Z" fill="#112FFF"/>
<path d="M25.3822 14.178H14.6178V25.9267H25.3822V14.178Z" fill="#00F4C5"/>
</g>
<defs>
<clipPath id="clip0_209_137">
<rect width="40" height="40" fill="white"/>
</clipPath>
</defs>
</svg>
