<svg width="34" height="28" viewBox="0 0 34 28" fill="none" xmlns="http://www.w3.org/2000/svg">
<path d="M16.8334 16.1491C14.6548 16.1491 12.5186 16.0433 10.4882 15.853C6.55417 15.4511 2.04909 14.6051 0.166687 12.7438V17.9469C0.166687 20.7599 7.44249 21.7963 10.5728 22.1135C12.5609 22.3039 14.676 22.4097 16.8334 22.4097C18.9907 22.4097 21.0846 22.3039 23.0939 22.1135C25.9493 21.8174 32.2521 20.9291 33.3308 18.6449C33.4366 18.5391 33.5 18.391 33.5 18.243V12.765C31.5965 14.6262 26.9856 15.4723 23.1785 15.853C21.1481 16.0645 19.0119 16.1491 16.8334 16.1491Z" fill="#00F4C5"/>
<path d="M16.8334 21.7329C14.6548 21.7329 12.5186 21.6271 10.4882 21.4368C6.55417 21.0349 2.04909 20.1889 0.166687 18.3276V23.5307C0.166687 26.3437 7.44249 27.3801 10.5728 27.6973C12.5609 27.8877 14.676 27.9935 16.8334 27.9935C18.9907 27.9935 21.0846 27.8877 23.0939 27.6973C25.9493 27.4012 32.2521 26.5129 33.3308 24.2287C33.4366 24.1229 33.5 23.9748 33.5 23.8268V18.3488C31.5965 20.21 26.9856 21.0561 23.1785 21.4368C21.1481 21.6483 19.0119 21.7329 16.8334 21.7329Z" fill="#112FFF"/>
<path d="M33.5 4.19884V12.5745C33.5 12.7225 33.4366 12.8706 33.3308 12.9975C32.231 15.2606 25.9281 16.1489 23.0728 16.445C21.0846 16.6354 18.9907 16.7411 16.8334 16.7411C14.676 16.7411 12.5609 16.6354 10.5728 16.445C7.44249 16.1278 0.166687 15.0914 0.166687 12.2784V4.19884L0.441645 4.24114C1.96449 1.89342 9.43064 0.666687 16.8334 0.666687C24.2361 0.666687 31.7234 1.89342 33.2039 4.26229L33.5 4.19884Z" fill="#112FFF"/>
<path d="M33.3943 3.88158C33.3943 3.88158 33.4789 4.07193 33.5 4.19884C33.5 5.63708 27.0068 7.73099 16.8334 7.73099C7.35789 7.73099 1.09731 5.93319 0.27244 4.5161C0.208988 4.43149 0.187838 4.32574 0.166687 4.19884C0.166687 2.7606 6.65992 0.666687 16.8334 0.666687C26.3088 0.666687 32.5694 2.46449 33.3943 3.88158Z" fill="#00F4C5"/>
</svg>
