<svg width="1440" height="88" viewBox="0 0 1440 88" fill="none" xmlns="http://www.w3.org/2000/svg">
<rect width="88" height="21" rx="2.123" transform="matrix(0 -1 -1 0 1440 88)" fill="#FA05C3"/>
<rect width="88" height="21" rx="2.123" transform="matrix(0 -1 -1 0 1270.39 88)" fill="#FF7F00"/>
<rect width="88" height="21" rx="2.123" transform="matrix(0 -1 -1 0 1249.39 88)" fill="#1231FF"/>
<rect width="88" height="21" rx="2.123" transform="matrix(0 -1 -1 0 1228.39 88)" fill="#3AE8B6"/>
<rect width="88" height="22" rx="2.123" transform="matrix(0 -1 -1 0 1207.39 88)" fill="#3AE8B6"/>
<rect width="88" height="22" rx="2.123" transform="matrix(0 -1 -1 0 1142.93 88)" fill="#3AE8B6"/>
<rect width="88" height="21" rx="2.123" transform="matrix(0 -1 -1 0 993.55 88)" fill="#FA05C3"/>
</svg>
