<svg width="32" height="33" viewBox="0 0 32 33" fill="none" xmlns="http://www.w3.org/2000/svg">
<path d="M16.6667 18.2193C14.9239 18.2193 13.2149 18.1347 11.5906 17.9824C8.44336 17.6609 4.8393 16.9841 3.33337 15.4951V19.6575C3.33337 21.9079 9.15402 22.737 11.6582 22.9908C13.2488 23.1431 14.9408 23.2277 16.6667 23.2277C18.3926 23.2277 20.0677 23.1431 21.6752 22.9908C23.9594 22.7539 29.0017 22.0433 29.8647 20.2159C29.9493 20.1313 30 20.0128 30 19.8944V15.512C28.4772 17.001 24.7885 17.6778 21.7428 17.9824C20.1185 18.1516 18.4095 18.2193 16.6667 18.2193Z" fill="#00F4C5"/>
<path d="M16.6667 22.6863C14.9239 22.6863 13.2149 22.6017 11.5906 22.4494C8.44336 22.1279 4.8393 21.4511 3.33337 19.9621V24.1245C3.33337 26.375 9.15402 27.2041 11.6582 27.4579C13.2488 27.6101 14.9408 27.6948 16.6667 27.6948C18.3926 27.6948 20.0677 27.6101 21.6752 27.4579C23.9594 27.221 29.0017 26.5103 29.8647 24.6829C29.9493 24.5983 30 24.4799 30 24.3614V19.979C28.4772 21.468 24.7885 22.1448 21.7428 22.4494C20.1185 22.6186 18.4095 22.6863 16.6667 22.6863Z" fill="#112FFF"/>
<path d="M30 8.65905V15.3596C30 15.478 29.9493 15.5964 29.8647 15.698C28.9848 17.5085 23.9425 18.2191 21.6582 18.456C20.0677 18.6083 18.3926 18.6929 16.6667 18.6929C14.9408 18.6929 13.2488 18.6083 11.6582 18.456C9.15402 18.2022 3.33337 17.3731 3.33337 15.1227V8.65905L3.55334 8.69289C4.77161 6.81472 10.7445 5.83333 16.6667 5.83333C22.5889 5.83333 28.5787 6.81472 29.7632 8.70981L30 8.65905Z" fill="#112FFF"/>
<path d="M29.9154 8.40524C29.9154 8.40524 29.9831 8.55753 30 8.65905C30 9.80964 24.8055 11.4848 16.6667 11.4848C9.08633 11.4848 4.07787 10.0465 3.41798 8.91286C3.36722 8.84518 3.35029 8.76057 3.33337 8.65905C3.33337 7.50846 8.52796 5.83333 16.6667 5.83333C24.2471 5.83333 29.2555 7.27157 29.9154 8.40524Z" fill="#00F4C5"/>
</svg>
