<svg width="48" height="48" viewBox="0 0 48 48" fill="none" xmlns="http://www.w3.org/2000/svg">
<path d="M34.62 15.7L38.78 11.54L36.44 9.2L31.82 13.82C29.92 12.78 27.82 12.14 25.66 11.92V6.3H22.34V11.92C20.18 12.14 18.08 12.78 16.18 13.84L11.56 9.22L9.22 11.56L13.38 15.72C11.08 17.6 9.18 19.92 7.76 22.52C7.3 23.46 7.3 24.56 7.76 25.48C9.16 28.1 11.08 30.4 13.38 32.28L9.22 36.44L11.56 38.78L16.18 34.16C18.08 35.2 20.18 35.84 22.34 36.06V41.68H25.66V36.06C27.82 35.84 29.92 35.2 31.82 34.14L36.44 38.76L38.78 36.42L34.62 32.26C36.92 30.38 38.82 28.06 40.24 25.46C40.7 24.52 40.7 23.42 40.24 22.5C38.84 19.88 36.92 17.58 34.62 15.7ZM24 32.84C15.16 32.84 10.74 24 10.74 24C10.74 24 15.16 15.16 24 15.16C32.84 15.16 37.26 24 37.26 24C37.26 24 32.84 32.84 24 32.84Z" fill="#112FFF"/>
<path d="M24 17.34C20.32 17.34 17.34 20.32 17.34 24C17.34 27.68 20.32 30.66 24 30.66C27.68 30.66 30.66 27.68 30.66 24C30.66 20.32 27.68 17.34 24 17.34Z" fill="#112FFF"/>
<path d="M24 20.52C22.08 20.52 20.52 22.08 20.52 24C20.52 25.92 22.08 27.48 24 27.48C25.92 27.48 27.48 25.92 27.48 24C27.48 22.08 25.92 20.52 24 20.52Z" fill="#00F4C5"/>
</svg>
