<svg width="48" height="48" viewBox="0 0 48 48" fill="none" xmlns="http://www.w3.org/2000/svg">
<path d="M17.56 9.75999H9.24V23.14H17.56V9.75999Z" stroke="#112FFF" stroke-miterlimit="10"/>
<path d="M38.76 9.75999H28.92V23.14H38.76V9.75999Z" stroke="#112FFF" stroke-miterlimit="10"/>
<path d="M25.22 26.86H22.82V43.24H25.22V26.86Z" fill="#112FFF"/>
<path d="M32.32 44V42.34H15.72V44H32.32Z" fill="#112FFF"/>
<path d="M34.64 3.98V23.36C34.64 23.36 32.38 31.8 24 32.06H24.04C15.66 31.8 13.4 23.36 13.4 23.36V3.98H34.64Z" fill="#112FFF"/>
<path d="M24 10.08L25.58 14.94H30.7L26.56 17.94L28.14 22.82L24 19.8L19.86 22.82L21.44 17.94L17.3 14.94H22.42L24 10.08Z" fill="#00F4C5"/>
</svg>
