<svg width="40" height="38" viewBox="0 0 40 38" fill="none" xmlns="http://www.w3.org/2000/svg">
<g clip-path="url(#clip0_202_209)">
<path d="M34.2977 21.4675C34.5073 21.0901 34.675 20.6709 34.7799 20.2516L36.1635 20.0839L40.021 19.7065L39.1824 10.7128L35.3669 11.0901L33.9832 11.2579C33.7736 10.8386 33.5639 10.4193 33.2914 9.97904L34.0251 8.826L36.0797 5.66038L28.5325 0.733753L26.5828 3.75262L25.7862 4.96855H25.7233C25.2411 4.86373 24.7799 4.75891 24.2348 4.75891L23.7526 3.37526L22.6415 0L14.0671 2.85115L15.1782 6.18449L15.5975 7.56813C15.1782 7.8826 14.8008 8.25996 14.4864 8.67924L13.1027 8.15514L9.76938 6.9392L6.64569 15.4507L10.021 16.6667V16.7296L11.3417 17.2117C11.4046 17.7358 11.4465 18.26 11.5514 18.7421L10.2725 19.4759L7.21173 21.3208L11.8658 29.0356L15.0314 27.086L16.2474 26.3941C16.6247 26.6667 17.044 26.9182 17.4633 27.1908L17.2956 28.5744L16.8134 32.2851L25.8071 33.4382L26.2893 29.6226L26.4989 28.1971C26.9182 28.0922 27.3375 27.9874 27.7778 27.7778L28.7212 28.826L31.4256 31.5723L37.9245 25.283L35.2201 22.4738L34.2138 21.4675H34.2977Z" fill="#112FFF"/>
<path d="M29.8113 16.8134C29.7484 18.4067 29.1824 19.8323 28.218 20.8805C28.0084 21.195 27.6939 21.4675 27.3794 21.6772C26.2683 22.6206 24.8847 23.1656 23.3543 23.1656C22.8721 23.1656 22.4109 23.1027 21.9287 22.9979C20.5031 22.6835 19.2243 21.8449 18.3857 20.7338C18.0084 20.3564 17.7568 19.8952 17.5471 19.413C17.1279 18.6164 16.9182 17.673 16.9182 16.7086C16.9182 16.2893 16.9811 15.8071 17.023 15.4298V15.3669C17.1907 14.7799 17.4004 14.2139 17.7149 13.7317C18.3019 12.4528 19.3501 11.4675 20.6289 10.8805C21.1111 10.608 21.6771 10.4612 22.2641 10.3564C22.5786 10.2935 22.9979 10.2516 23.3752 10.2516C24.4235 10.2516 25.4926 10.5241 26.3312 11.0482C26.8134 11.2159 27.1698 11.5304 27.5471 11.8449C28.6583 12.7463 29.392 14.0042 29.7065 15.4298C29.7694 15.8071 29.8113 16.2684 29.8113 16.7086V16.8134Z" fill="white"/>
<path d="M13.3962 27.5052C11.6352 27.5052 9.91614 27.4214 8.30189 27.2537C5.13627 26.9392 1.50943 26.2474 0 24.7589V28.9308C0 31.195 5.84906 32.0335 8.36478 32.2851C9.97904 32.4528 11.6562 32.5157 13.3962 32.5157C15.1363 32.5157 16.8344 32.4319 18.4277 32.2851C20.7128 32.0545 25.7862 31.3417 26.6667 29.4969C26.7505 29.413 26.7925 29.2872 26.7925 29.1614V24.7589C25.2621 26.2474 21.5514 26.9392 18.4906 27.2537C16.8553 27.4214 15.1363 27.5052 13.3962 27.5052Z" fill="#00F4C5"/>
<path d="M13.3962 32.0126C11.6352 32.0126 9.91614 31.9287 8.30189 31.761C5.13627 31.4465 1.50943 30.7547 0 29.2662V33.4381C0 35.7023 5.84906 36.5409 8.36478 36.7924C9.97904 36.9602 11.6562 37.023 13.3962 37.023C15.1363 37.023 16.8344 36.9392 18.4277 36.7924C20.7128 36.5618 25.7862 35.849 26.6667 34.0042C26.7505 33.9203 26.7925 33.7945 26.7925 33.6687V29.2662C25.2621 30.7547 21.5514 31.4465 18.4906 31.761C16.8553 31.9287 15.1363 32.0126 13.3962 32.0126Z" fill="#112FFF"/>
<path d="M26.8134 17.8826V24.6121C26.8134 24.7379 26.7715 24.8427 26.6876 24.9475C25.8071 26.7714 20.7338 27.4842 18.4277 27.7148C16.8344 27.8616 15.1363 27.9454 13.4172 27.9454C11.6981 27.9454 9.97904 27.8616 8.38574 27.7148C5.84906 27.4842 0 26.6457 0 24.3815V17.8826L0.230608 17.9245C1.44654 16.0377 7.46331 15.0524 13.4172 15.0524C19.3711 15.0524 25.3878 16.0377 26.5828 17.9455L26.8134 17.9035V17.8826Z" fill="#112FFF"/>
<path d="M26.7296 17.6519C26.7296 17.6519 26.8134 17.8197 26.8134 17.9035C26.8134 19.0566 21.5933 20.7337 13.4172 20.7337C5.80713 20.7337 0.754717 19.2872 0.0838574 18.1551C0.0419287 18.0712 0 17.9874 0 17.9035C0 16.7295 5.22013 15.0524 13.3962 15.0524C21.0063 15.0524 26.0587 16.4989 26.7296 17.631V17.6519Z" fill="#00F4C5"/>
</g>
<defs>
<clipPath id="clip0_202_209">
<rect width="40" height="37.0231" fill="white"/>
</clipPath>
</defs>
</svg>
