<svg width="48" height="48" viewBox="0 0 48 48" fill="none" xmlns="http://www.w3.org/2000/svg">
<path d="M32.82 38.46L26.34 30.32L24.58 21.44L26.64 20.36L28.7 26.88L29.76 25.38L24.82 7.72L27.44 7.88L36.66 19.66L38.76 30.02L32.82 38.46Z" fill="#112FFF"/>
<path d="M34.3008 39.5041L37.8188 41.9766L43.7529 33.5333L40.2349 31.0608L34.3008 39.5041Z" fill="#00F4C5"/>
<path d="M15.18 38.46L21.66 30.32L23.42 21.44L21.36 20.36L19.3 26.88L18.24 25.38L23.18 7.72L20.56 7.88L11.34 19.66L9.23999 30.02L15.18 38.46Z" fill="#112FFF"/>
<path d="M7.74998 31.0631L4.23193 33.5356L10.166 41.9789L13.684 39.5064L7.74998 31.0631Z" fill="#00F4C5"/>
</svg>
